<?xml version="1.0" encoding="utf-8"?>
<!-- Generator: Adobe Illustrator 27.0.0, SVG Export Plug-In . SVG Version: 6.00 Build 0)  -->
<svg version="1.1" id="Capa_2_00000137128755286737763880000011175001644973536640_"
	 xmlns="http://www.w3.org/2000/svg" xmlns:xlink="http://www.w3.org/1999/xlink" x="0px" y="0px" viewBox="0 0 1449.5 975.7"
	 style="enable-background:new 0 0 1449.5 975.7;" xml:space="preserve">
<style type="text/css">
	.st0{fill:#68A2A6;}
	.st1{fill:#C5C5C5;}
</style>
<g id="Capa_1-2">
	<path class="st0" d="M278.7,4.6c166.8-11.1,255.5,0.6,286.5,5.7C772.6,44,849.5,94.4,1090.6,136c116.9,20.2,295.7-21,358.9-69.9
		v908.8c-20.5-3.9-119.6-22.7-185.4-33.9c-143.7-24.5-174.9-27-400.5-45.3c-92.3-7.5-246.2-10.6-496.9,20.2
		c-244.8,30.1-244,36.1-365.2,59.8v-926C21.3,40.9,233.8,7.6,278.7,4.6z"/>
	<path class="st1" d="M1429.6,93.5l0.7,1.3c2.6-1.2,4.6-2.2,5.9-2.9c0.7-0.3,1.2-0.6,1.5-0.8c0.2-0.1,0.3-0.2,0.4-0.2
		c0,0,0.1,0,0.1-0.1c0,0,0,0,0,0l0,0l0,0l0,0l0,0c0,0,0,0-0.7-1.3c-0.5-0.9-0.7-1.3-0.7-1.3l0,0l0,0l0,0l0,0c0,0,0,0,0,0
		c0,0-0.1,0-0.1,0.1c-0.1,0-0.2,0.1-0.4,0.2c-0.3,0.2-0.8,0.4-1.5,0.8c-1.3,0.7-3.3,1.7-5.8,2.9L1429.6,93.5L1429.6,93.5z
		 M1397,107.9l0.6,1.4c6.1-2.5,11.6-4.8,16.5-7l-0.6-1.4l-0.6-1.4c-4.8,2.1-10.3,4.5-16.4,6.9L1397,107.9L1397,107.9z M1363.7,120.4
		l0.5,1.4c5.9-2,11.5-4.1,16.8-6.1l-0.5-1.4l-0.5-1.4c-5.3,2-10.8,4-16.7,6L1363.7,120.4L1363.7,120.4z M1329.7,131.3l0.4,1.4
		c5.9-1.7,11.6-3.5,17.1-5.2l-0.5-1.4l-0.5-1.4c-5.5,1.8-11.2,3.5-17,5.2L1329.7,131.3L1329.7,131.3z M1295.3,140.3l0.3,1.5
		c5.9-1.4,11.7-2.8,17.3-4.3l-0.4-1.4l-0.4-1.4c-5.6,1.5-11.4,2.9-17.3,4.3L1295.3,140.3L1295.3,140.3z M1260.5,147.4l0.3,1.5
		c5.9-1,11.8-2.1,17.5-3.3l-0.3-1.5l-0.3-1.5c-5.7,1.2-11.6,2.3-17.4,3.3L1260.5,147.4L1260.5,147.4z M1225.2,152.3l0.2,1.5
		c6-0.6,11.9-1.4,17.7-2.2l-0.2-1.5l-0.2-1.5c-5.8,0.8-11.7,1.6-17.6,2.2L1225.2,152.3L1225.2,152.3z M1189.7,154.9l0.1,1.5
		c6-0.2,11.9-0.5,17.8-0.9l-0.1-1.5l-0.1-1.5c-5.9,0.4-11.8,0.7-17.7,0.9L1189.7,154.9L1189.7,154.9z M1154.1,154.7l-0.1,1.5
		c6,0.3,11.9,0.4,17.8,0.4v-1.5l0-1.5c-5.9,0-11.8-0.2-17.7-0.4L1154.1,154.7L1154.1,154.7z M1127.5,152.6l-0.2,1.5
		c3,0.3,5.9,0.6,8.9,0.9l0.1-1.5l0.1-1.5c-2.9-0.3-5.9-0.6-8.8-0.9L1127.5,152.6L1127.5,152.6z M1119,151.5l-0.2,1.5
		c2.9,0.4,5.7,0.7,8.5,1l0.2-1.5l0.2-1.5c-2.8-0.3-5.6-0.7-8.5-1L1119,151.5L1119,151.5z M1084.7,146.4l-0.2,1.5
		c5.8,1,11.5,1.9,17.2,2.7l0.2-1.5l0.2-1.5c-5.6-0.8-11.3-1.8-17.1-2.7L1084.7,146.4L1084.7,146.4z M1050.6,140.1l-0.3,1.5
		c5.8,1.1,11.4,2.2,17.1,3.3l0.3-1.5l0.3-1.5c-5.6-1-11.3-2.1-17-3.3L1050.6,140.1L1050.6,140.1z M1016.6,133l-0.3,1.5
		c5.7,1.3,11.3,2.5,17,3.7l0.3-1.5l0.3-1.5c-5.6-1.2-11.2-2.4-16.9-3.6L1016.6,133L1016.6,133z M982.9,125.2l-0.3,1.5
		c5.7,1.3,11.3,2.7,16.9,4l0.3-1.5l0.3-1.5c-5.6-1.3-11.2-2.6-16.9-4L982.9,125.2L982.9,125.2z M949.2,116.9l-0.4,1.4
		c5.6,1.4,11.2,2.8,16.8,4.2l0.4-1.5l0.4-1.5c-5.6-1.4-11.2-2.8-16.8-4.2L949.2,116.9L949.2,116.9z M915.6,108.2l-0.4,1.4
		c5.6,1.5,11.2,2.9,16.8,4.4l0.4-1.4l0.4-1.4c-5.6-1.5-11.2-2.9-16.8-4.4L915.6,108.2L915.6,108.2z M882.2,99.1l-0.4,1.4
		c5.5,1.5,11.1,3.1,16.7,4.6l0.4-1.4l0.4-1.4c-5.6-1.5-11.2-3.1-16.7-4.6L882.2,99.1L882.2,99.1z M848.8,89.7l-0.4,1.4
		c5.5,1.6,11,3.2,16.7,4.8l0.4-1.4l0.4-1.4c-5.6-1.6-11.2-3.2-16.7-4.7L848.8,89.7L848.8,89.7z M815.5,80l-0.4,1.4
		c5.4,1.6,11,3.2,16.7,4.9l0.4-1.4l0.4-1.4c-5.7-1.7-11.2-3.3-16.6-4.9L815.5,80L815.5,80z M782.3,70l-0.4,1.4
		c5.4,1.6,10.9,3.3,16.6,5l0.4-1.4l0.4-1.4c-5.7-1.7-11.2-3.4-16.6-5L782.3,70L782.3,70z M749.2,59.8l-0.5,1.4
		c5.2,1.6,10.7,3.3,16.5,5.1l0.4-1.4l0.4-1.4c-5.8-1.8-11.2-3.5-16.5-5.1L749.2,59.8L749.2,59.8z M716.1,49.3l-0.5,1.4
		c4.9,1.6,10.4,3.3,16.5,5.3l0.5-1.4l0.5-1.4c-6.1-1.9-11.6-3.7-16.5-5.3L716.1,49.3L716.1,49.3z M691.5,41.2
		c-0.3,0.9-0.5,1.4-0.5,1.4l0,0l0,0l0,0l0,0c0,0,0,0,0,0s0.1,0,0.1,0c0.1,0,0.2,0.1,0.4,0.1c0.3,0.1,0.9,0.3,1.5,0.5
		c1.4,0.5,3.4,1.1,6,2l0.5-1.4l0.5-1.4c-2.6-0.9-4.7-1.5-6-2c-0.7-0.2-1.2-0.4-1.5-0.5c-0.2-0.1-0.3-0.1-0.4-0.1c0,0-0.1,0-0.1,0
		c0,0,0,0,0,0l0,0l0,0l0,0L691.5,41.2L691.5,41.2z M682.6,39.1l-0.3,1.5c2.9,0.7,5.1,1.2,6.6,1.6c0.7,0.2,1.3,0.3,1.7,0.4
		c0.2,0,0.3,0.1,0.4,0.1c0,0,0.1,0,0.1,0c0,0,0,0,0,0l0,0l0,0l0,0l0.4-1.5c0.2-1,0.4-1.5,0.4-1.5l0,0l0,0l0,0c0,0,0,0,0,0
		c0,0-0.1,0-0.1,0c-0.1,0-0.2-0.1-0.4-0.1c-0.4-0.1-1-0.2-1.7-0.4c-1.5-0.4-3.7-0.9-6.6-1.6L682.6,39.1L682.6,39.1z M646.5,31.6
		l-0.3,1.5c6.7,1.3,12.8,2.5,18.1,3.6l0.3-1.5l0.3-1.5c-5.3-1.1-11.4-2.3-18.1-3.6L646.5,31.6L646.5,31.6z M610.2,25.2l-0.2,1.5
		c6.4,1,12.4,2,18.2,3l0.3-1.5l0.3-1.5c-5.7-1-11.8-2-18.2-3L610.2,25.2L610.2,25.2z M573.7,19.8l-0.2,1.5
		c6.3,0.9,12.4,1.7,18.3,2.6l0.2-1.5l0.2-1.5c-5.9-0.9-12-1.7-18.3-2.6L573.7,19.8L573.7,19.8z M537.2,15.4l-0.2,1.5
		c6.2,0.7,12.3,1.4,18.3,2.1l0.2-1.5l0.2-1.5c-6-0.7-12.1-1.4-18.3-2.1L537.2,15.4L537.2,15.4z M500.4,11.8l-0.1,1.5
		c6.2,0.5,12.4,1.1,18.4,1.7l0.2-1.5L519,12c-6-0.6-12.1-1.1-18.4-1.7L500.4,11.8L500.4,11.8z M463.7,9.1l-0.1,1.5
		c6.2,0.4,12.3,0.8,18.4,1.2l0.1-1.5l0.1-1.5c-6-0.4-12.2-0.8-18.4-1.2L463.7,9.1L463.7,9.1z M426.9,7.4l0,1.5
		c6.2,0.2,12.3,0.5,18.4,0.8l0.1-1.5l0.1-1.5c-6.1-0.3-12.2-0.5-18.4-0.8L426.9,7.4L426.9,7.4z M390,6.6v1.5
		c6.2,0.1,12.3,0.1,18.4,0.3l0-1.5l0-1.5c-6.1-0.1-12.2-0.2-18.5-0.3L390,6.6L390,6.6z M353.2,6.8l0,1.5c6.2-0.1,12.3-0.2,18.4-0.2
		V6.5l0-1.5c-6.1,0-12.2,0.1-18.5,0.2L353.2,6.8L353.2,6.8z M325.5,7.5l0.1,1.5c3.1-0.1,6.2-0.2,9.2-0.3l0-1.5l0-1.5
		c-3.1,0.1-6.2,0.2-9.2,0.3L325.5,7.5L325.5,7.5z M316.3,7.9l0.1,1.5c3-0.1,6.1-0.3,9.2-0.4l-0.1-1.5L325.4,6
		c-3.1,0.1-6.2,0.2-9.2,0.4L316.3,7.9L316.3,7.9z M279.7,10l0.1,1.5c6-0.4,12.1-0.8,18.2-1.2L298,8.9l-0.1-1.5
		c-6.2,0.4-12.3,0.8-18.3,1.2L279.7,10L279.7,10z M243.2,13.1l0.1,1.5c6-0.6,12.1-1.1,18.2-1.6l-0.1-1.5l-0.1-1.5
		c-6.2,0.5-12.3,1.1-18.3,1.6L243.2,13.1L243.2,13.1z M206.9,17l0.2,1.5c5.9-0.7,12-1.4,18.1-2.1l-0.2-1.5l-0.2-1.5
		c-6.2,0.7-12.2,1.4-18.2,2.1L206.9,17L206.9,17z M170.6,22l0.2,1.5c5.9-0.9,12-1.8,18.1-2.6l-0.2-1.5l-0.2-1.5
		c-6.2,0.9-12.3,1.7-18.2,2.6L170.6,22L170.6,22z M134.5,27.9l0.3,1.5c5.8-1,11.8-2.1,18-3.1l-0.2-1.5l-0.2-1.5
		c-6.2,1-12.2,2.1-18,3.1L134.5,27.9L134.5,27.9z M98.5,35l0.3,1.5c5.7-1.2,11.7-2.5,17.9-3.7l-0.3-1.5l-0.3-1.5
		c-6.2,1.2-12.2,2.5-17.9,3.7L98.5,35L98.5,35z M62.8,43.3l0.4,1.5c5.6-1.4,11.5-2.8,17.8-4.3L80.6,39l-0.3-1.5
		C74,39,68,40.4,62.5,41.9L62.8,43.3L62.8,43.3z M27.5,53l0.4,1.4c5.1-1.5,11-3.2,17.6-5L45.1,48l-0.4-1.5c-6.6,1.8-12.5,3.5-17.6,5
		L27.5,53L27.5,53z M1.5,61.6C1.9,62.5,2,63,2,63l0,0l0,0l0,0l0,0c0,0,0,0,0,0c0,0,0,0,0.1,0c0.1,0,0.2-0.1,0.4-0.2
		c0.4-0.1,0.9-0.3,1.6-0.6c1.4-0.5,3.6-1.3,6.4-2.2l-0.5-1.4l-0.5-1.4c-2.9,1-5,1.7-6.5,2.2c-0.7,0.3-1.3,0.5-1.6,0.6
		c-0.2,0.1-0.3,0.1-0.4,0.2c0,0-0.1,0-0.1,0c0,0,0,0,0,0l0,0l0,0l0,0C1,60.2,1,60.2,1.5,61.6L1.5,61.6z M1429,92.1
		c-0.8,0.4-1.1,1.3-0.7,2c0.4,0.8,1.3,1.1,2,0.7L1429,92.1z M1414,102.3c0.8-0.3,1.1-1.2,0.8-2s-1.2-1.1-2-0.8L1414,102.3z
		 M1396.4,106.5c-0.8,0.3-1.1,1.2-0.8,1.9c0.3,0.8,1.2,1.1,1.9,0.8L1396.4,106.5L1396.4,106.5z M1380.9,115.8
		c0.8-0.3,1.2-1.2,0.9-1.9c-0.3-0.8-1.2-1.2-1.9-0.9L1380.9,115.8L1380.9,115.8z M1363.2,119c-0.8,0.3-1.2,1.1-0.9,1.9
		c0.3,0.8,1.1,1.2,1.9,0.9L1363.2,119z M1347.3,127.5c0.8-0.2,1.2-1.1,1-1.9s-1.1-1.2-1.9-1L1347.3,127.5L1347.3,127.5z
		 M1329.3,129.8c-0.8,0.2-1.2,1.1-1,1.9s1.1,1.2,1.9,1L1329.3,129.8z M1313,137.5c0.8-0.2,1.3-1,1.1-1.8s-1-1.3-1.8-1.1L1313,137.5
		L1313,137.5z M1295,138.8c-0.8,0.2-1.3,1-1.1,1.8c0.2,0.8,1,1.3,1.8,1.1L1295,138.8z M1278.3,145.6c0.8-0.2,1.3-1,1.2-1.8
		c-0.2-0.8-1-1.3-1.8-1.2L1278.3,145.6z M1260.2,145.9c-0.8,0.1-1.4,0.9-1.2,1.7c0.1,0.8,0.9,1.4,1.7,1.2L1260.2,145.9L1260.2,145.9
		z M1243.1,151.6c0.8-0.1,1.4-0.9,1.3-1.7c-0.1-0.8-0.9-1.4-1.7-1.3L1243.1,151.6L1243.1,151.6z M1225,150.9
		c-0.8,0.1-1.4,0.8-1.3,1.6s0.8,1.4,1.7,1.3L1225,150.9L1225,150.9z M1207.6,155.4c0.8-0.1,1.4-0.8,1.4-1.6
		c-0.1-0.8-0.8-1.4-1.6-1.4L1207.6,155.4z M1189.7,153.4c-0.8,0-1.5,0.7-1.4,1.6s0.7,1.5,1.6,1.4L1189.7,153.4L1189.7,153.4z
		 M1171.9,156.7c0.8,0,1.5-0.7,1.5-1.5c0-0.8-0.7-1.5-1.5-1.5L1171.9,156.7L1171.9,156.7z M1154.2,153.2c-0.8,0-1.5,0.6-1.6,1.4
		c0,0.8,0.6,1.5,1.4,1.6L1154.2,153.2L1154.2,153.2z M1136.2,155c0.8,0.1,1.6-0.5,1.6-1.4c0.1-0.8-0.5-1.6-1.4-1.6L1136.2,155z
		 M1119.2,150.1c-0.8-0.1-1.6,0.5-1.7,1.3c-0.1,0.8,0.5,1.6,1.3,1.7L1119.2,150.1z M1101.6,150.7c0.8,0.1,1.6-0.4,1.7-1.3
		c0.1-0.8-0.4-1.6-1.3-1.7L1101.6,150.7z M1084.9,145c-0.8-0.1-1.6,0.4-1.7,1.2s0.4,1.6,1.2,1.7L1084.9,145L1084.9,145z
		 M1067.3,144.9c0.8,0.1,1.6-0.4,1.8-1.2s-0.4-1.6-1.2-1.8L1067.3,144.9z M1050.9,138.7c-0.8-0.2-1.6,0.4-1.8,1.2s0.4,1.6,1.2,1.8
		L1050.9,138.7L1050.9,138.7z M1033.3,138.1c0.8,0.2,1.6-0.4,1.8-1.2s-0.3-1.6-1.2-1.8L1033.3,138.1z M1017,131.5
		c-0.8-0.2-1.6,0.3-1.8,1.1s0.3,1.6,1.1,1.8L1017,131.5L1017,131.5z M999.4,130.7c0.8,0.2,1.6-0.3,1.8-1.1c0.2-0.8-0.3-1.6-1.1-1.8
		L999.4,130.7L999.4,130.7z M983.2,123.8c-0.8-0.2-1.6,0.3-1.8,1.1c-0.2,0.8,0.3,1.6,1.1,1.8L983.2,123.8z M965.6,122.6
		c0.8,0.2,1.6-0.3,1.8-1.1c0.2-0.8-0.3-1.6-1.1-1.8L965.6,122.6L965.6,122.6z M949.6,115.5c-0.8-0.2-1.6,0.3-1.8,1.1
		c-0.2,0.8,0.3,1.6,1.1,1.8L949.6,115.5L949.6,115.5z M932,114.1c0.8,0.2,1.6-0.3,1.8-1.1s-0.3-1.6-1.1-1.8L932,114.1z M916,106.8
		c-0.8-0.2-1.6,0.3-1.8,1.1c-0.2,0.8,0.3,1.6,1.1,1.8L916,106.8L916,106.8z M898.5,105.2c0.8,0.2,1.6-0.2,1.8-1.1
		c0.2-0.8-0.2-1.6-1-1.8L898.5,105.2L898.5,105.2z M882.6,97.7c-0.8-0.2-1.6,0.2-1.8,1s0.2,1.6,1,1.8L882.6,97.7L882.6,97.7z
		 M865.1,95.9c0.8,0.2,1.6-0.2,1.8-1s-0.2-1.6-1-1.8L865.1,95.9z M849.2,88.3c-0.8-0.2-1.6,0.2-1.9,1c-0.2,0.8,0.2,1.6,1,1.9
		L849.2,88.3L849.2,88.3z M831.7,86.3c0.8,0.2,1.6-0.2,1.9-1c0.2-0.8-0.2-1.6-1-1.9L831.7,86.3L831.7,86.3z M815.9,78.6
		c-0.8-0.2-1.6,0.2-1.9,1s0.2,1.6,1,1.9L815.9,78.6L815.9,78.6z M798.4,76.5c0.8,0.2,1.6-0.2,1.9-1s-0.2-1.6-1-1.9L798.4,76.5z
		 M782.7,68.6c-0.8-0.2-1.6,0.2-1.9,1s0.2,1.6,1,1.9L782.7,68.6z M765.2,66.4c0.8,0.2,1.6-0.2,1.9-1c0.2-0.8-0.2-1.6-1-1.9
		L765.2,66.4z M749.7,58.4c-0.8-0.2-1.6,0.2-1.9,1s0.2,1.6,1,1.9L749.7,58.4z M732.1,56c0.8,0.2,1.6-0.2,1.9-1s-0.2-1.6-1-1.9
		L732.1,56L732.1,56z M716.5,47.9c-0.8-0.2-1.6,0.2-1.9,1c-0.2,0.8,0.2,1.6,1,1.9L716.5,47.9L716.5,47.9z M699.1,45.3
		c0.8,0.3,1.6-0.2,1.9-1s-0.2-1.6-1-1.9L699.1,45.3L699.1,45.3z M683,37.7c-0.8-0.2-1.6,0.3-1.8,1.1s0.3,1.6,1.1,1.8L683,37.7
		L683,37.7z M664.3,36.7c0.8,0.2,1.6-0.3,1.8-1.2c0.2-0.8-0.3-1.6-1.2-1.8L664.3,36.7L664.3,36.7z M646.8,30.1
		c-0.8-0.1-1.6,0.4-1.8,1.2c-0.2,0.8,0.4,1.6,1.2,1.8L646.8,30.1L646.8,30.1z M628.1,29.8c0.8,0.1,1.6-0.4,1.7-1.2s-0.4-1.6-1.2-1.7
		L628.1,29.8z M610.4,23.7c-0.8-0.1-1.6,0.4-1.7,1.2s0.4,1.6,1.2,1.7C609.9,26.7,610.4,23.7,610.4,23.7z M591.8,23.9
		c0.8,0.1,1.6-0.4,1.7-1.3s-0.5-1.6-1.3-1.7L591.8,23.9L591.8,23.9z M573.9,18.4c-0.8-0.1-1.6,0.5-1.7,1.3c-0.1,0.8,0.5,1.6,1.3,1.7
		L573.9,18.4L573.9,18.4z M555.3,19c0.8,0.1,1.6-0.5,1.7-1.3s-0.5-1.6-1.3-1.7L555.3,19z M537.3,13.9c-0.8-0.1-1.6,0.5-1.7,1.3
		c-0.1,0.8,0.5,1.6,1.3,1.6L537.3,13.9L537.3,13.9z M518.6,15c0.8,0.1,1.6-0.5,1.6-1.4c0.1-0.8-0.5-1.6-1.3-1.6L518.6,15L518.6,15z
		 M500.5,10.3c-0.8-0.1-1.5,0.5-1.6,1.4s0.5,1.6,1.4,1.6L500.5,10.3z M482,11.9c0.8,0.1,1.5-0.6,1.6-1.4s-0.6-1.5-1.4-1.6L482,11.9
		L482,11.9z M463.8,7.7c-0.8-0.1-1.5,0.6-1.6,1.4s0.6,1.5,1.4,1.6L463.8,7.7L463.8,7.7z M445.2,9.7c0.8,0,1.5-0.6,1.6-1.4
		s-0.6-1.5-1.4-1.6L445.2,9.7z M426.9,5.9c-0.8,0-1.5,0.6-1.5,1.4s0.6,1.5,1.5,1.6L426.9,5.9L426.9,5.9z M408.4,8.4
		c0.8,0,1.5-0.6,1.5-1.5s-0.6-1.5-1.5-1.5L408.4,8.4L408.4,8.4z M390,5.1c-0.8,0-1.5,0.7-1.5,1.5s0.7,1.5,1.5,1.5L390,5.1L390,5.1z
		 M371.6,8.1c0.8,0,1.5-0.7,1.5-1.5c0-0.8-0.7-1.5-1.5-1.5L371.6,8.1L371.6,8.1z M353.1,5.3c-0.8,0-1.5,0.7-1.5,1.5s0.7,1.5,1.5,1.5
		L353.1,5.3L353.1,5.3z M334.8,8.7c0.8,0,1.5-0.7,1.5-1.6s-0.7-1.5-1.5-1.4L334.8,8.7L334.8,8.7z M316.2,6.5c-0.8,0-1.5,0.7-1.4,1.6
		s0.7,1.5,1.6,1.4L316.2,6.5z M298.1,10.4c0.8-0.1,1.5-0.8,1.4-1.6s-0.8-1.5-1.6-1.4L298.1,10.4L298.1,10.4z M279.6,8.6
		c-0.8,0.1-1.5,0.8-1.4,1.6s0.8,1.4,1.6,1.4C279.8,11.6,279.6,8.6,279.6,8.6z M261.6,13c0.8-0.1,1.4-0.8,1.4-1.6s-0.8-1.4-1.6-1.4
		L261.6,13z M243.1,11.6c-0.8,0.1-1.4,0.8-1.4,1.6c0.1,0.8,0.8,1.4,1.6,1.4C243.4,14.6,243.1,11.6,243.1,11.6z M225.2,16.5
		c0.8-0.1,1.4-0.8,1.3-1.6s-0.8-1.4-1.6-1.3L225.2,16.5L225.2,16.5z M189,20.9c0.8-0.1,1.4-0.9,1.3-1.7s-0.9-1.4-1.7-1.3L189,20.9
		L189,20.9z M170.4,20.5c-0.8,0.1-1.4,0.9-1.3,1.7c0.1,0.8,0.9,1.4,1.7,1.3L170.4,20.5L170.4,20.5z M152.7,26.3
		c0.8-0.1,1.4-0.9,1.2-1.7c-0.1-0.8-0.9-1.4-1.7-1.2L152.7,26.3L152.7,26.3z M134.2,26.5c-0.8,0.1-1.4,0.9-1.2,1.7s0.9,1.4,1.7,1.2
		L134.2,26.5z M116.7,32.9c0.8-0.2,1.3-1,1.2-1.8c-0.2-0.8-0.9-1.3-1.8-1.2L116.7,32.9z M98.2,33.6c-0.8,0.2-1.3,1-1.2,1.8
		s1,1.3,1.8,1.2L98.2,33.6z M81,40.5c0.8-0.2,1.3-1,1.1-1.8c-0.2-0.8-1-1.3-1.8-1.1L81,40.5z M62.5,41.9c-0.8,0.2-1.3,1-1.1,1.8
		s1,1.3,1.8,1.1L62.5,41.9z M45.5,49.4c0.8-0.2,1.3-1,1-1.8s-1-1.3-1.8-1L45.5,49.4z M27.1,51.6c-0.8,0.2-1.2,1.1-1,1.9
		s1.1,1.2,1.9,1L27.1,51.6L27.1,51.6z M10.6,60c0.8-0.3,1.2-1.1,0.9-1.9c-0.3-0.8-1.1-1.2-1.9-0.9L10.6,60z M1438.2,90.9
		c0.7-0.4,1-1.3,0.6-2c-0.4-0.7-1.3-1-2-0.6L1438.2,90.9L1438.2,90.9z M1127.5,152.6l0.2-1.5L1127.5,152.6z M691.5,41.2l0.5-1.4l0,0
		h0L691.5,41.2L691.5,41.2z M1,60.2c-0.8,0.3-1.2,1.2-0.9,1.9C0.4,62.9,1.3,63.3,2,63L1,60.2L1,60.2z"/>
</g>
</svg>
