<svg width="135" height="191" viewBox="0 0 135 191" fill="none" xmlns="http://www.w3.org/2000/svg">
<mask id="mask0_615_4605" style="mask-type:luminance" maskUnits="userSpaceOnUse" x="0" y="0" width="135" height="191">
<path d="M0 0H135V190.167H0V0Z" fill="white"/>
</mask>
<g mask="url(#mask0_615_4605)">
<path d="M0.660889 116.18V118.554C0.660889 122.854 3.49626 126.566 7.49469 128.196C6.32803 129.83 5.65982 131.905 5.65982 133.983V136.356C5.65982 141.847 10.4926 146.446 16.492 147.041C15.99 148.228 15.6577 149.415 15.6577 150.75V152.384C15.6577 157.575 20.4905 161.879 26.3237 161.879H39.4857L39.1534 174.786C38.9872 178.794 40.4862 182.65 43.6502 185.471C46.6518 188.436 50.9825 190.07 55.483 190.07C59.9798 190.07 64.3106 188.436 67.3121 185.619C70.4761 182.65 71.9787 178.942 71.6428 174.934L71.3105 158.91H81.3084C85.3068 158.91 87.8062 156.983 90.1396 155.349L105.136 144.52C105.469 144.221 105.967 144.073 106.469 144.073H131.626C133.461 144.073 134.96 142.738 134.96 141.107C134.96 139.473 133.461 138.138 131.626 138.138H106.469C104.302 138.138 102.301 138.73 100.802 139.92L86.4734 150.306L85.8052 150.898C83.974 152.384 82.9735 153.124 81.4745 153.124H71.3105L70.31 115.585C72.311 116.772 74.4746 117.515 76.974 117.515H86.3073C88.1385 117.515 89.6375 116.18 89.6375 114.546C89.6375 112.915 88.1385 111.577 86.3073 111.577H76.974C74.4746 111.577 71.9787 109.503 71.9787 107.425V99.7087C71.9787 98.078 70.4761 96.74 68.6449 96.74L56.646 96.592C55.8153 96.592 54.9809 96.8879 54.3163 97.483C53.6481 97.9268 53.3158 98.8178 53.3158 99.5608V109.799C53.3158 111.429 52.4814 113.063 51.1486 114.25C49.6497 115.437 47.8184 116.029 45.6513 116.029C41.6528 115.585 38.319 112.767 38.319 109.651V86.3542C38.319 85.1674 40.9846 83.2375 42.9856 83.2375H80.6401C83.1396 83.2375 85.1406 84.2764 87.4739 86.6501L100.137 99.8567C101.803 101.639 104.468 102.526 106.968 102.526H131.626C133.461 102.526 134.96 101.191 134.96 99.5608C134.96 97.9268 133.461 96.592 131.626 96.592H106.801C106.133 96.592 105.469 96.4441 105.136 96.0002L92.4729 82.7937C88.9729 79.0851 84.9745 77.3033 80.6401 77.3033H68.9772L68.4787 60.3882C82.475 55.4928 91.6385 43.7722 91.6385 30.2698C91.6385 17.5071 83.1396 5.93448 69.9777 0.592032C68.9772 0.148168 67.6444 0.148168 66.81 0.739987C65.8131 1.33502 65.3111 2.22596 65.3111 3.26486L65.4772 24.9273L54.9809 30.1186L44.4846 24.7794V3.11691C44.4846 2.07801 43.9825 1.18707 42.9856 0.592032C41.9851 0.000213772 40.8185 0.000213414 39.818 0.444077C26.656 5.63857 18.3233 17.2112 18.3233 29.9707C18.3233 43.4731 27.6566 55.3449 41.6528 60.2402L41.3169 77.3033C36.6539 78.0462 31.655 81.7548 31.655 86.2063V87.689H18.3233C11.8254 87.689 6.66033 92.2885 6.66033 98.078V100.301C6.66033 102.378 7.32854 104.456 8.66134 106.09C3.99471 107.573 0.660889 111.577 0.660889 116.18ZM24.9909 29.9707C24.9909 21.2188 29.8201 13.0556 37.8206 8.16023V26.5581C37.8206 27.597 38.4852 28.6359 39.4857 29.0829L53.3158 36.0561C54.3163 36.5 55.6491 36.6479 56.646 36.0561L70.31 29.0829C71.3105 28.4879 71.9787 27.597 71.9787 26.5581V8.16023C79.9755 13.2068 84.9745 21.3668 84.9745 30.2698C84.9745 41.8424 76.6417 52.0802 64.1444 55.4928C62.6454 55.9367 61.8147 57.1235 61.8147 58.4616L62.3131 77.3033H47.9846L48.3169 58.3104C48.3169 56.9756 47.4825 55.7887 45.9836 55.4928C33.4862 51.7843 24.9909 41.6945 24.9909 29.9707ZM12.3275 136.356V133.983C12.3275 131.313 14.6572 129.235 17.6587 129.235H40.32C43.3179 129.235 45.6513 131.313 45.6513 133.983V136.356C45.6513 139.029 43.3179 141.107 40.32 141.107H17.6587C14.6572 141.107 12.3275 139.029 12.3275 136.356ZM22.3217 152.384V150.75C22.3217 148.82 24.1566 147.189 26.3237 147.189H44.983C47.1502 147.189 48.9815 148.82 48.9815 150.75V152.384C48.9815 154.31 47.1502 155.944 44.983 155.944H26.3237C24.1566 155.944 22.3217 154.31 22.3217 152.384ZM55.8153 118.402C58.4809 116.18 60.146 112.915 60.146 109.651V102.378H63.3137L65.3111 175.085C65.4772 177.459 64.6465 179.685 62.8116 181.315C60.9803 183.097 58.4809 183.985 55.8153 183.985C53.1496 183.985 50.6502 182.949 48.8153 181.315C46.9841 179.537 45.9836 177.311 46.1497 174.934L46.482 161.731C51.8168 161.136 55.8153 157.131 55.8153 152.233V150.602C55.8153 147.041 53.6481 143.925 50.484 142.294C51.8168 140.512 52.4814 138.582 52.4814 136.356V133.983C52.4814 130.274 50.3143 127.01 47.1502 125.08V121.667C50.3143 121.667 53.3158 120.48 55.8153 118.402ZM13.3244 98.078C13.3244 95.7011 15.4915 93.6265 18.3233 93.6265H31.655V104.752H18.3233C15.6577 104.752 13.3244 102.825 13.3244 100.301V98.078ZM7.32854 116.18C7.32854 113.507 9.65824 111.429 12.6598 111.429H31.8211C32.4857 115.437 35.6534 118.85 39.9841 120.628C39.1534 122.262 37.3185 123.301 35.1549 123.301H12.6598C9.65824 123.301 7.32854 121.223 7.32854 118.554V116.18Z" fill="#7AACAE"/>
</g>
</svg>
