<svg width="199" height="199" viewBox="0 0 199 199" fill="none" xmlns="http://www.w3.org/2000/svg">
<mask id="mask0_615_4646" style="mask-type:luminance" maskUnits="userSpaceOnUse" x="0" y="43" width="199" height="130">
<path d="M0.417236 43.2424H198.042V172.05H0.417236V43.2424Z" fill="white"/>
</mask>
<g mask="url(#mask0_615_4646)">
<path fill-rule="evenodd" clip-rule="evenodd" d="M164.018 43.7959C165.825 43.7959 167.299 45.2658 167.299 47.0808C167.299 48.8957 165.825 50.3657 164.018 50.3657H34.4159C19.5226 50.3657 7.43251 62.4809 7.43251 77.3958C7.43251 92.3179 19.5226 104.437 34.4159 104.437H164.018C182.527 104.437 197.553 119.492 197.553 138.04C197.553 156.585 182.527 171.644 164.018 171.644H34.4159C32.6046 171.644 31.1311 170.174 31.1311 168.359C31.1311 166.551 32.6046 165.074 34.4159 165.074H164.018C178.911 165.074 190.997 152.962 190.997 138.04C190.997 123.122 178.911 111.003 164.018 111.003H34.4159C15.8999 111.003 0.873535 95.9478 0.873535 77.3958C0.873535 58.851 15.8999 43.7959 34.4159 43.7959H164.018Z" fill="#A79BA7"/>
</g>
<path fill-rule="evenodd" clip-rule="evenodd" d="M114.834 75.2683H138.562C140.819 75.2683 142.748 76.4759 143.568 78.4058L152.086 98.4996C152.33 99.0855 152.449 99.6282 152.449 100.268V125.12C152.449 126.903 150.997 128.347 149.225 128.347H114.834V75.2683Z" fill="#FFE177"/>
<path fill-rule="evenodd" clip-rule="evenodd" d="M150.562 94.9057H134.292C131.575 94.9057 129.375 92.6954 129.375 89.9784V75.2683H138.562C140.819 75.2683 142.749 76.4759 143.568 78.4058L150.562 94.9057Z" fill="#D8ECFE"/>
<path fill-rule="evenodd" clip-rule="evenodd" d="M133.638 119.747C138.382 119.747 142.22 123.593 142.22 128.348C142.22 133.102 138.382 136.948 133.638 136.948C128.905 136.948 125.052 133.102 125.052 128.348C125.052 123.593 128.905 119.747 133.638 119.747Z" fill="#837683"/>
<path fill-rule="evenodd" clip-rule="evenodd" d="M131.589 119.995C132.247 119.83 132.933 119.747 133.638 119.747C138.382 119.747 142.22 123.593 142.22 128.348C142.22 133.102 138.382 136.948 133.638 136.948C132.933 136.948 132.247 136.865 131.589 136.707C135.345 135.787 138.127 132.394 138.127 128.348C138.127 124.304 135.345 120.915 131.589 119.995Z" fill="#685E68"/>
<path fill-rule="evenodd" clip-rule="evenodd" d="M45.9846 124.045V65.7622C45.9846 63.3973 47.9146 61.4602 50.2758 61.4602H110.543C112.908 61.4602 114.834 63.3973 114.834 65.7622V128.347H50.2758C47.9146 128.347 45.9846 126.417 45.9846 124.045Z" fill="#E3A76F"/>
<path fill-rule="evenodd" clip-rule="evenodd" d="M114.834 124.247V128.347H50.2758C47.9146 128.347 45.9846 126.418 45.9846 124.046V65.7623C45.9846 63.4586 47.8139 61.5682 50.0853 61.4675C50.0781 61.5286 50.0781 61.5933 50.0781 61.658V119.945C50.0781 122.317 52.0153 124.247 54.3693 124.247H114.834Z" fill="#C48958"/>
<path fill-rule="evenodd" clip-rule="evenodd" d="M71.8828 119.747C76.6269 119.747 80.4652 123.593 80.4652 128.348C80.4652 133.102 76.6269 136.948 71.8828 136.948C67.1388 136.948 63.2969 133.102 63.2969 128.348C63.2969 123.593 67.1388 119.747 71.8828 119.747Z" fill="#837683"/>
<path fill-rule="evenodd" clip-rule="evenodd" d="M69.8342 119.988C70.4919 119.83 71.1748 119.747 71.8828 119.747C76.6268 119.747 80.4652 123.593 80.4652 128.348C80.4652 133.102 76.6268 136.948 71.8828 136.948C71.1748 136.948 70.4919 136.865 69.8342 136.707C73.5863 135.787 76.3716 132.394 76.3716 128.348C76.3716 124.304 73.5863 120.908 69.8342 119.988Z" fill="#685E68"/>
<mask id="mask1_615_4646" style="mask-type:luminance" maskUnits="userSpaceOnUse" x="0" y="136" width="50" height="63">
<path d="M0 136.168H49.1797V198.732H0V136.168Z" fill="white"/>
</mask>
<g mask="url(#mask1_615_4646)">
<path fill-rule="evenodd" clip-rule="evenodd" d="M23.0947 198.142C14.3362 187.964 0.0717773 173.175 0.0717773 160.689C0.0717773 147.334 10.8752 136.509 24.2052 136.509C37.5316 136.509 48.335 147.334 48.335 160.689C48.335 173.175 34.0742 187.964 25.3121 198.142C24.7335 198.828 23.6805 198.828 23.0947 198.142Z" fill="#FE646F"/>
</g>
<path fill-rule="evenodd" clip-rule="evenodd" d="M23.095 198.142C22.98 198.016 22.8578 197.876 22.7356 197.735C31.5264 187.568 45.4099 173.002 45.4099 160.689C45.4099 147.826 35.3827 137.307 22.7356 136.552C23.2208 136.52 23.7132 136.509 24.2055 136.509C37.5319 136.509 48.3354 147.334 48.3354 160.689C48.3354 173.174 34.0745 187.963 25.3125 198.142C24.7338 198.828 23.6808 198.828 23.095 198.142Z" fill="#FD4755"/>
<path fill-rule="evenodd" clip-rule="evenodd" d="M24.2053 177.463C33.431 177.463 40.964 169.919 40.964 160.672C40.964 151.425 33.431 143.877 24.2053 143.877C14.976 143.877 7.44312 151.425 7.44312 160.672C7.44312 169.919 14.976 177.463 24.2053 177.463Z" fill="#ECEFF1"/>
<mask id="mask2_615_4646" style="mask-type:luminance" maskUnits="userSpaceOnUse" x="149" y="0" width="50" height="63">
<path d="M149.466 0H198.042V62.5636H149.466V0Z" fill="white"/>
</mask>
<g mask="url(#mask2_615_4646)">
<path fill-rule="evenodd" clip-rule="evenodd" d="M172.891 61.7012C164.129 51.5231 149.868 36.7304 149.868 24.2486C149.868 10.8863 160.671 0.0612793 174.001 0.0612793C187.328 0.0612793 198.131 10.8863 198.131 24.2486C198.131 36.7304 183.874 51.5231 175.108 61.7012C174.53 62.3877 173.477 62.3877 172.891 61.7012Z" fill="#FE646F"/>
</g>
<path fill-rule="evenodd" clip-rule="evenodd" d="M174.001 41.3701C183.227 41.3701 190.76 33.8228 190.76 24.5756C190.76 15.3283 183.227 7.78101 174.001 7.78101C164.772 7.78101 157.239 15.3283 157.239 24.5756C157.239 33.8228 164.772 41.3701 174.001 41.3701Z" fill="#ECEFF1"/>
<path fill-rule="evenodd" clip-rule="evenodd" d="M174.001 7.78101C174.44 7.78101 174.875 7.79898 175.306 7.83851C166.659 8.50339 159.856 15.7416 159.856 24.5756C159.856 33.4059 166.659 40.6477 175.306 41.3162C174.875 41.3486 174.44 41.3701 174.001 41.3701C164.74 41.3701 157.239 33.848 157.239 24.5756C157.239 15.3032 164.74 7.78101 174.001 7.78101Z" fill="#D1D1D6"/>
</svg>
