<svg width="1210" height="237" viewBox="0 0 1210 237" fill="none" xmlns="http://www.w3.org/2000/svg">
<g opacity="0.4">
<mask id="mask0_1593_1883" style="mask-type:luminance" maskUnits="userSpaceOnUse" x="0" y="0" width="416" height="183">
<path d="M415.114 182.383L-3.05176e-05 182.383L-1.63648e-05 -1.0367e-05L415.114 3.05176e-05L415.114 182.383Z" fill="white"/>
</mask>
<g mask="url(#mask0_1593_1883)">
<mask id="mask1_1593_1883" style="mask-type:luminance" maskUnits="userSpaceOnUse" x="-9" y="0" width="480" height="243">
<path d="M-6.17892 126.032L143.83 241.349C144.87 242.148 146.466 242.403 147.862 241.989C149.259 241.576 150.173 240.58 150.173 239.474L150.173 193.079C150.173 191.288 151.139 189.571 152.857 188.305C154.576 187.039 156.908 186.329 159.34 186.329L461.354 186.329C463.786 186.329 466.118 185.617 467.835 184.351C469.555 183.085 470.521 181.368 470.521 179.577L470.521 62.7379C470.521 60.9472 469.555 59.2301 467.835 57.9638C466.118 56.6991 463.786 55.9876 461.354 55.9876L159.34 55.9876C156.908 55.9876 154.576 55.2761 152.857 54.0099C151.139 52.7436 150.173 51.0281 150.173 49.2374L150.173 2.84268C150.173 1.73469 149.259 0.738631 147.862 0.326125C146.466 -0.0863661 144.87 0.166243 143.83 0.967253L-6.17891 116.282C-9.72484 119.008 -9.72484 123.308 -6.17892 126.032Z" fill="white"/>
</mask>
<g mask="url(#mask1_1593_1883)">
<path d="M470.521 246.224L-12.5108 246.224L-12.5108 -3.90755L470.522 -3.9075L470.521 246.224Z" fill="#3C8892"/>
</g>
</g>
</g>
<rect opacity="0.4" x="1210" y="182" width="795" height="127" transform="rotate(-180 1210 182)" fill="#3C8892"/>
<path opacity="0.4" d="M140.345 234.267L66.5 182H143.5V232.634C143.5 234.257 141.669 235.204 140.345 234.267Z" fill="#3C8892"/>
</svg>
