<svg width="861" height="195" viewBox="0 0 861 195" fill="none" xmlns="http://www.w3.org/2000/svg">
<g opacity="0.6">
<rect x="938.396" y="128.557" width="627.235" height="89.4845" transform="rotate(179.916 938.396 128.557)" fill="#0F6F7C"/>
<mask id="mask0_2167_2044" style="mask-type:luminance" maskUnits="userSpaceOnUse" x="0" y="0" width="329" height="130">
<path d="M328.141 129.448L0.80279 129.926L0.614974 1.36977L327.953 0.891539L328.141 129.448Z" fill="white"/>
</mask>
<g mask="url(#mask0_2167_2044)">
<mask id="mask1_2167_2044" style="mask-type:luminance" maskUnits="userSpaceOnUse" x="-7" y="1" width="379" height="171">
<path d="M-4.12756 90.2137L114.28 171.325C115.101 171.887 116.36 172.064 117.461 171.771C118.561 171.478 119.281 170.775 119.28 169.995L119.232 137.293C119.23 136.031 119.991 134.819 121.344 133.925C122.699 133.03 124.537 132.527 126.455 132.524L364.607 132.176C366.525 132.174 368.363 131.669 369.716 130.775C371.071 129.88 371.831 128.669 371.829 127.407L371.709 45.0501C371.707 43.7879 370.943 42.5786 369.586 41.688C368.23 40.7986 366.39 40.2998 364.473 40.3026L126.32 40.6505C124.403 40.6533 122.563 40.1545 121.206 39.2639C119.85 38.3733 119.086 37.1652 119.084 35.903L119.036 3.20063C119.035 2.41964 118.313 1.71859 117.212 1.42945C116.111 1.1403 114.852 1.3202 114.033 1.88601L-4.1376 83.3414C-6.93095 85.267 -6.92652 88.2974 -4.12756 90.2137Z" fill="white"/>
</mask>
<g mask="url(#mask1_2167_2044)">
<path d="M371.898 174.385L-8.99654 174.941L-9.25412 -1.36988L371.64 -1.92635L371.898 174.385Z" fill="#0F6F7C"/>
<rect x="299.252" y="33.4263" width="627.235" height="89.4845" transform="rotate(179.916 299.252 33.4263)" fill="#0F6F7C"/>
</g>
</g>
<path d="M119.78 173.18L30.8354 114.75L119.591 44.2183L119.78 173.18Z" fill="#0E6F7E"/>
</g>
</svg>
