<svg width="501" height="196" viewBox="0 0 501 196" fill="none" xmlns="http://www.w3.org/2000/svg">
<mask id="mask0_1512_585" style="mask-type:luminance" maskUnits="userSpaceOnUse" x="0" y="0" width="501" height="196">
<path d="M0 0H501V195.383H0V0Z" fill="white"/>
</mask>
<g mask="url(#mask0_1512_585)">
<mask id="mask1_1512_585" style="mask-type:luminance" maskUnits="userSpaceOnUse" x="-67" y="-65" width="579" height="261">
<path d="M508.457 60.3672L327.412 -63.1693C326.157 -64.0257 324.231 -64.2981 322.545 -63.8544C320.86 -63.4125 319.757 -62.3455 319.757 -61.1602V-11.4586C319.757 -9.54025 318.591 -7.70071 316.518 -6.34418C314.442 -4.98766 311.628 -4.22718 308.692 -4.22718H-55.8063C-58.7415 -4.22718 -61.5561 -3.46499 -63.6291 -2.10846C-65.7046 -0.751934 -66.8708 1.0876 -66.8708 3.00592V128.173C-66.8708 130.091 -65.7046 131.931 -63.6291 133.287C-61.5561 134.642 -58.7415 135.404 -55.8063 135.404H308.692C311.628 135.404 314.442 136.167 316.518 137.523C318.591 138.88 319.757 140.717 319.757 142.636V192.337C319.757 193.524 320.86 194.591 322.545 195.033C324.231 195.475 326.157 195.205 327.412 194.347L508.457 70.8118C512.737 67.8914 512.737 63.2858 508.457 60.3672Z" fill="white"/>
</mask>
<g mask="url(#mask1_1512_585)">
<path d="M-66.8708 -68.3916H516.099V199.569H-66.8708V-68.3916Z" fill="#0F6F7C"/>
<rect x="44" y="146" width="960" height="136" fill="#0F6F7C"/>
</g>
</g>
</svg>
