<svg width="1213" height="294" viewBox="0 0 1213 294" fill="none" xmlns="http://www.w3.org/2000/svg">
<rect x="-222" y="98.2578" width="960" height="136" fill="#0F6F7C"/>
<mask id="mask0_1915_614" style="mask-type:luminance" maskUnits="userSpaceOnUse" x="712" y="98" width="501" height="196">
<path d="M712 98.2578H1213V293.641H712V98.2578Z" fill="white"/>
</mask>
<g mask="url(#mask0_1915_614)">
<mask id="mask1_1915_614" style="mask-type:luminance" maskUnits="userSpaceOnUse" x="645" y="34" width="579" height="260">
<path d="M1220.46 158.625L1039.41 35.0887C1038.16 34.2323 1036.23 33.96 1034.55 34.4036C1032.86 34.8455 1031.76 35.9126 1031.76 37.0978V86.7995C1031.76 88.7178 1030.59 90.5573 1028.52 91.9139C1026.44 93.2704 1023.63 94.0309 1020.69 94.0309H656.194C653.259 94.0309 650.444 94.7931 648.371 96.1496C646.295 97.5061 645.129 99.3457 645.129 101.264V226.431C645.129 228.349 646.295 230.189 648.371 231.545C650.444 232.9 653.259 233.662 656.194 233.662H1020.69C1023.63 233.662 1026.44 234.425 1028.52 235.781C1030.59 237.138 1031.76 238.976 1031.76 240.894V290.595C1031.76 291.782 1032.86 292.85 1034.55 293.291C1036.23 293.733 1038.16 293.463 1039.41 292.605L1220.46 169.07C1224.74 166.15 1224.74 161.544 1220.46 158.625Z" fill="white"/>
</mask>
<g mask="url(#mask1_1915_614)">
<path d="M645.129 29.8662H1228.1V297.827H645.129V29.8662Z" fill="#0F6F7C"/>
<rect x="756" y="244.258" width="960" height="136" fill="#0F6F7C"/>
</g>
</g>
<path d="M1031 32.2574L1167 121.257L1031 228.255L1031 32.2574Z" fill="#0E6F7E"/>
</svg>
