<svg width="1435" height="248" viewBox="0 0 1435 248" fill="none" xmlns="http://www.w3.org/2000/svg">
<mask id="mask0_1593_1837" style="mask-type:luminance" maskUnits="userSpaceOnUse" x="942" y="56" width="493" height="192">
<path d="M1434.33 57.4157L1434.33 247.334L943.362 247.334L943.362 57.4156L1434.33 57.4157Z" fill="white" stroke="white" stroke-width="1.33333"/>
</mask>
<g mask="url(#mask0_1593_1837)">
<mask id="mask1_1593_1837" style="mask-type:luminance" maskUnits="userSpaceOnUse" x="876" y="-6" width="570" height="254">
<path d="M1259.81 -5.11068C1261.31 -5.50384 1263 -5.24726 1264.05 -4.53354L1441.95 116.39L1441.95 116.391C1443.92 117.729 1444.81 119.384 1444.81 120.951C1444.81 122.517 1443.92 124.172 1441.95 125.511L1264.05 246.434L1264.05 246.434C1263 247.149 1261.31 247.405 1259.81 247.013C1258.27 246.612 1257.57 245.729 1257.57 245.019L1257.57 196.369C1257.57 194.335 1256.41 192.463 1254.48 191.076L1254.08 190.805C1251.92 189.395 1249.02 188.624 1246.03 188.624L887.856 188.624C885.077 188.624 882.443 187.902 880.533 186.659C878.62 185.413 877.651 183.798 877.651 182.212L877.651 59.691C877.651 58.1049 878.62 56.4896 880.533 55.2438L880.534 55.2438C882.444 53.9989 885.077 53.278 887.856 53.278L1246.03 53.278C1248.83 53.278 1251.55 52.601 1253.67 51.3542L1254.08 51.0973C1256.25 49.6876 1257.57 47.7019 1257.57 45.5329L1257.57 -3.1185C1257.57 -3.82675 1258.27 -4.70938 1259.81 -5.11068L1259.81 -5.11068Z" fill="white" stroke="white" stroke-width="1.33333"/>
</mask>
<g mask="url(#mask1_1593_1837)">
<path d="M1449.17 -9.52961L1449.17 251.431L877.651 251.431L877.651 -9.52966L1449.17 -9.52961ZM1273.64 55.7194L1360.14 55.7194L1358.28 54.4958L1274.67 -0.556972L1273.64 -1.23666L1273.64 55.7194ZM1355.69 54.3864L1274.97 54.3864L1274.97 1.23697L1355.69 54.3864Z" fill="#0F6F7C" stroke="#0F6F7C" stroke-width="1.33333"/>
</g>
</g>
<rect x="0.5" y="57.6501" width="941.831" height="132.175" fill="#0F6F7C" stroke="#0F6F7C"/>
<path d="M1265.32 56.6501V3.61102C1265.32 2.43248 1266.61 1.71432 1267.61 2.33954L1354.39 56.6501H1265.32Z" fill="#0F6F7C" stroke="#0F6F7C"/>
</svg>
