<svg width="1195" height="244" viewBox="0 0 1195 244" fill="none" xmlns="http://www.w3.org/2000/svg">
<g opacity="0.4">
<mask id="mask0_1593_1837" style="mask-type:luminance" maskUnits="userSpaceOnUse" x="785" y="55" width="410" height="189">
<path d="M1194.33 56.5003L1194.33 243.333L785.699 243.333L785.699 56.5003L1194.33 56.5003Z" fill="white" stroke="white" stroke-width="1.33333"/>
</mask>
<g mask="url(#mask0_1593_1837)">
<mask id="mask1_1593_1837" style="mask-type:luminance" maskUnits="userSpaceOnUse" x="730" y="-6" width="474" height="250">
<path d="M1049.17 -5.02627C1050.36 -5.39514 1051.7 -5.15481 1052.54 -4.4833L1200.68 114.49L1200.69 114.491C1202.3 115.787 1203.06 117.415 1203.06 119C1203.06 120.585 1202.3 122.214 1200.68 123.51L1052.54 242.483L1052.53 242.483C1051.7 243.155 1050.36 243.394 1049.17 243.026C1047.97 242.658 1047.36 241.829 1047.35 241.067L1047.35 193.201C1047.35 191.112 1046.28 189.159 1044.44 187.749C1042.62 186.342 1040.16 185.57 1037.63 185.57L739.365 185.57C737.091 185.57 734.936 184.874 733.371 183.67C731.807 182.467 730.978 180.878 730.978 179.273L730.978 58.7286C730.978 57.2234 731.706 55.7332 733.085 54.5616L733.371 54.3311C734.936 53.1255 737.091 52.4289 739.365 52.4288L1037.63 52.4288C1040.16 52.4288 1042.62 51.6591 1044.44 50.252C1046.28 48.8423 1047.35 46.8871 1047.35 44.7979L1047.35 -3.06827C1047.36 -3.82827 1047.97 -4.65653 1049.17 -5.0253L1049.17 -5.02627Z" fill="white" stroke="white" stroke-width="1.33333"/>
</mask>
<g mask="url(#mask1_1593_1837)">
<path d="M1206.69 -9.36525L1206.69 247.365L730.978 247.365L730.978 -9.3653L1206.69 -9.36525ZM1060.51 54.832L1132.75 54.832L1131.21 53.6387L1061.59 -0.526394L1060.51 -1.36331L1060.51 54.832ZM1128.86 53.498L1061.85 53.498L1061.85 1.36325L1128.86 53.498Z" fill="#0F6F7C" stroke="#0F6F7C" stroke-width="1.33333"/>
</g>
</g>
</g>
<rect opacity="0.4" x="0.5" y="56.7283" width="784.145" height="130.027" fill="#0F6F7C" stroke="#0F6F7C"/>
<path opacity="0.4" d="M1053.78 55.7283V3.96661C1053.78 2.73526 1055.18 2.02751 1056.17 2.75958L1127.81 55.7283H1053.78Z" fill="#0F6F7C" stroke="#0F6F7C"/>
</svg>
