<svg width="1049" height="144" viewBox="0 0 1049 144" fill="none" xmlns="http://www.w3.org/2000/svg">
<g opacity="0.6">
<rect y="0.276855" width="701.219" height="100.039" fill="#0F6F7C"/>
<mask id="mask0_2167_2086" style="mask-type:luminance" maskUnits="userSpaceOnUse" x="682" y="0" width="367" height="144">
<path d="M682.228 0.276855L1048.18 0.276855V143.997L682.228 143.997V0.276855Z" fill="white"/>
</mask>
<g mask="url(#mask0_2167_2086)">
<mask id="mask1_2167_2086" style="mask-type:luminance" maskUnits="userSpaceOnUse" x="633" y="-47" width="423" height="191">
<path d="M1053.62 44.6817L921.381 -46.1898C920.464 -46.8197 919.057 -47.02 917.827 -46.6937C916.596 -46.3687 915.79 -45.5838 915.79 -44.7119V-8.15217C915.79 -6.74109 914.938 -5.38795 913.424 -4.39011C911.908 -3.39227 909.852 -2.83288 907.708 -2.83288L641.465 -2.83288C639.321 -2.83288 637.265 -2.27222 635.751 -1.27438C634.235 -0.276545 633.383 1.07659 633.383 2.48767V94.5586C633.383 95.9696 634.235 97.3228 635.751 98.3206C637.265 99.3172 639.321 99.8778 641.465 99.8778L907.708 99.8778C909.852 99.8778 911.908 100.438 913.424 101.436C914.938 102.434 915.79 103.786 915.79 105.197V141.757C915.79 142.63 916.596 143.415 917.827 143.74C919.057 144.065 920.464 143.866 921.381 143.235L1053.62 52.3645C1056.75 50.2164 1056.75 46.8286 1053.62 44.6817Z" fill="white"/>
</mask>
<g mask="url(#mask1_2167_2086)">
<path d="M633.382 -50.0312L1059.2 -50.0312V147.076L633.382 147.076V-50.0312Z" fill="#0F6F7C"/>
<rect x="714.367" y="107.672" width="701.219" height="100.039" fill="#0F6F7C"/>
</g>
</g>
</g>
</svg>
