<svg width="127" height="123" viewBox="0 0 127 123" fill="none" xmlns="http://www.w3.org/2000/svg">
<mask id="mask0_615_4718" style="mask-type:luminance" maskUnits="userSpaceOnUse" x="0" y="0" width="127" height="123">
<path d="M0.785156 0.464844H126.681V122.117H0.785156V0.464844Z" fill="white"/>
</mask>
<g mask="url(#mask0_615_4718)">
<path d="M101.511 80.8528C101.482 80.8616 101.452 80.8704 101.423 80.8807L70.8518 91.6353C70.2514 88.6993 68.525 85.7178 65.4804 84.3613L44.827 75.129C39.7932 72.883 35.4552 73.7623 31.8733 74.9176L19.0708 79.0633L18.4763 77.0272C18.4043 76.7849 18.3104 76.55 18.1929 76.3254C18.0755 76.1008 17.9375 75.8909 17.779 75.6927C17.6204 75.496 17.4443 75.3155 17.249 75.1525C17.0552 74.991 16.8468 74.8486 16.6251 74.7268C16.402 74.6049 16.17 74.5066 15.9293 74.4303C15.6871 74.3554 15.4404 74.3025 15.1894 74.2761C14.9369 74.2482 14.6844 74.2467 14.4319 74.2688C14.1794 74.2908 13.9328 74.3378 13.6891 74.4082L3.62004 77.356C3.37635 77.4265 3.14293 77.5204 2.91833 77.6378C2.69372 77.7553 2.48233 77.8933 2.28562 78.0518C2.0889 78.2104 1.90834 78.388 1.74539 78.5818C1.58244 78.7756 1.44005 78.984 1.3182 79.2057C1.19636 79.4273 1.098 79.6593 1.02166 79.9C0.945328 80.1423 0.893948 80.3889 0.866056 80.6399C0.838163 80.8924 0.833759 81.1434 0.85578 81.3959C0.8778 81.6484 0.923308 81.8965 0.993772 82.1402L11.7763 119C11.8482 119.244 11.9422 119.478 12.0581 119.702C12.1756 119.927 12.3136 120.138 12.4721 120.336C12.6307 120.533 12.8068 120.714 13.0006 120.877C13.1958 121.039 13.4028 121.182 13.626 121.304C13.8476 121.426 14.0796 121.524 14.3218 121.6C14.5626 121.677 14.8092 121.729 15.0617 121.757C15.3142 121.784 15.5652 121.787 15.8177 121.765C16.0702 121.743 16.3183 121.697 16.562 121.625L26.6472 118.677C26.8894 118.606 27.1228 118.51 27.346 118.393C27.5706 118.275 27.7805 118.137 27.9772 117.979C28.1739 117.82 28.353 117.642 28.5145 117.449C28.676 117.255 28.8184 117.046 28.9387 116.825C29.0606 116.603 29.1589 116.373 29.2338 116.13C29.3102 115.89 29.3615 115.643 29.388 115.392C29.4158 115.141 29.4188 114.89 29.3968 114.637C29.3747 114.386 29.3278 114.138 29.2573 113.896L28.4602 111.174L32.3431 110.157L50.1045 116.653C52.7689 117.626 55.5434 118.51 58.3782 118.51C60.3394 118.523 62.192 118.083 63.936 117.189L103.469 96.9862C103.483 96.9803 103.496 96.973 103.509 96.9656C103.863 96.7733 104.233 96.5839 104.625 96.3843C107.633 94.8488 112.178 92.5278 110.354 86.302C109.161 82.221 105.193 79.7782 101.511 80.8528ZM25.9264 115.178C25.8721 115.28 25.7884 115.349 25.6783 115.383L15.6034 118.33C15.5491 118.344 15.4947 118.349 15.439 118.341C15.3832 118.335 15.3303 118.318 15.2804 118.291C15.232 118.265 15.1894 118.23 15.1542 118.186C15.1175 118.142 15.0925 118.093 15.0749 118.04L4.29238 81.1801C4.26155 81.0671 4.27477 80.9585 4.33202 80.8557C4.38487 80.7544 4.46708 80.6869 4.57718 80.6531L4.58011 80.6517L14.6594 77.7039C14.6961 77.6922 14.7343 77.6878 14.7725 77.6863C14.8444 77.6878 14.9134 77.7054 14.9765 77.7406C15.0778 77.7949 15.1454 77.8771 15.1777 77.9872L25.9631 114.865C25.9954 114.975 25.9837 115.079 25.9264 115.178ZM103.066 93.325C102.678 93.5231 102.277 93.7287 101.89 93.9401L62.377 114.13C59.1591 115.768 55.9956 115.147 51.2847 113.426L33.0198 106.745C32.6822 106.622 32.3416 106.606 31.9937 106.696L27.4972 107.876L20.0338 82.359L32.9288 78.1839C37.1801 76.8114 40.2218 76.8348 43.425 78.2647L64.0814 87.4955C66.1821 88.4321 67.6545 91.0965 67.6604 93.9768C67.6604 93.9841 67.6618 93.9914 67.6618 93.9988C67.6618 94.0061 67.6604 94.0149 67.6604 94.0237C67.6604 94.8532 67.5136 95.6576 67.2214 96.4357C65.865 100.018 62.3564 100.147 59.7625 99.1706L45.859 93.9547C45.7533 93.9151 45.6447 93.8857 45.5331 93.8681C45.4215 93.849 45.31 93.8417 45.1969 93.8461C45.0854 93.8505 44.9738 93.8652 44.8637 93.8901C44.7536 93.9166 44.6479 93.9518 44.5451 93.9988C44.4424 94.0458 44.3455 94.1015 44.2545 94.1676C44.162 94.2337 44.0783 94.3071 44.0005 94.3893C43.9242 94.4715 43.8552 94.561 43.7964 94.6564C43.7363 94.7533 43.6878 94.8532 43.6482 94.9589C43.6085 95.0646 43.5792 95.1732 43.5616 95.2848C43.5425 95.3949 43.5351 95.5079 43.5395 95.6195C43.5425 95.7325 43.5572 95.8441 43.5836 95.9542C43.6085 96.0628 43.6452 96.17 43.6922 96.2727C43.7392 96.3755 43.795 96.4724 43.861 96.5634C43.9256 96.6559 44.0005 96.7395 44.0827 96.8159C44.1649 96.8937 44.2545 96.9612 44.3499 97.0214C44.4453 97.0801 44.5466 97.13 44.6523 97.1697L58.5543 102.387C59.8241 102.879 61.1409 103.13 62.5018 103.142C66.0867 103.142 69.1049 101.164 70.4334 97.6571C70.7314 96.8687 70.9281 96.054 71.0236 95.2158L102.514 84.1382C104.34 83.6332 106.413 85.0572 107.06 87.2665C108.038 90.6062 106.363 91.6412 103.066 93.325ZM65.4143 33.2424C60.9662 33.9177 56.9718 36.0433 53.729 39.4961C50.1235 43.332 47.65 48.6799 46.7618 54.552L45.8208 60.7646C45.7078 61.456 45.6711 62.1518 45.7107 62.8521C45.7518 63.5509 45.8693 64.2379 46.063 64.9117C46.2568 65.5855 46.5225 66.2285 46.8602 66.8436C47.1978 67.4572 47.5986 68.0268 48.0639 68.5524C52.5281 73.7418 68.8069 74.1484 73.7144 74.1484H73.7276C77.3331 74.1484 95.5466 73.8753 100.125 68.5538C100.589 68.0283 100.99 67.4587 101.328 66.8451C101.665 66.23 101.932 65.587 102.126 64.9132C102.32 64.2393 102.437 63.5523 102.479 62.8535C102.52 62.1533 102.483 61.4575 102.368 60.766L101.429 54.552C100.541 48.6799 98.0657 43.332 94.4603 39.4961C91.2175 36.0448 87.223 33.9177 82.7749 33.2424C83.5501 32.5994 84.2576 31.8889 84.8977 31.1108C87.9732 27.3777 89.5982 22.1164 89.5982 15.8964C89.5982 15.3885 89.5733 14.882 89.5219 14.377C89.472 13.872 89.3986 13.3715 89.2988 12.8738C89.199 12.3761 89.0756 11.8844 88.9288 11.3984C88.7806 10.9125 88.6103 10.4354 88.415 9.96567C88.2213 9.49738 88.004 9.03936 87.7647 8.59162C87.5254 8.14388 87.2641 7.70935 86.9823 7.28656C86.7004 6.86524 86.398 6.45861 86.0765 6.06518C85.7535 5.67322 85.413 5.29741 85.0548 4.93922C84.6951 4.58103 84.3193 4.24045 83.9273 3.91749C83.5354 3.59599 83.1273 3.29358 82.706 3.01173C82.2832 2.72987 81.8486 2.47003 81.4009 2.23075C80.9532 1.99146 80.4951 1.7742 80.0254 1.58042C79.5571 1.38664 79.08 1.21635 78.5941 1.06809C78.1082 0.921285 77.6164 0.797973 77.1187 0.699617C76.6211 0.599792 76.119 0.524924 75.614 0.47648C75.109 0.426567 74.6026 0.401611 74.0946 0.401611C73.5867 0.401611 73.0817 0.426567 72.5752 0.47648C72.0702 0.524924 71.5697 0.599792 71.072 0.699617C70.5729 0.797973 70.0811 0.921285 69.5967 1.06809C69.1107 1.21635 68.6336 1.38664 68.1639 1.58042C67.6956 1.7742 67.2361 1.99146 66.7884 2.23075C66.3406 2.47003 65.9061 2.72987 65.4848 3.01173C65.062 3.29358 64.6553 3.59599 64.2619 3.91749C63.87 4.24045 63.4942 4.58103 63.136 4.93922C62.7763 5.29741 62.4357 5.67322 62.1142 6.06518C61.7913 6.45861 61.4889 6.86524 61.207 7.28656C60.9251 7.70935 60.6638 8.14388 60.4245 8.59162C60.1853 9.03936 59.968 9.49738 59.7742 9.96567C59.5804 10.4354 59.4087 10.9125 59.2619 11.3984C59.1136 11.8844 58.9903 12.3761 58.8905 12.8738C58.7921 13.3715 58.7173 13.872 58.6673 14.377C58.6174 14.882 58.5925 15.3885 58.5925 15.8964C58.5925 22.1164 60.2176 27.3777 63.2916 31.1108C63.9316 31.8889 64.6392 32.5994 65.4128 33.2439L65.4143 33.2424ZM98.0319 55.0672L98.9715 61.2813C99.0493 61.7291 99.0742 62.1783 99.0493 62.6304C99.0243 63.0826 98.9494 63.5274 98.8232 63.9619C98.6984 64.3979 98.5252 64.8133 98.3065 65.2097C98.0863 65.6061 97.8264 65.9731 97.524 66.3107L97.5211 66.3136C95.6435 68.498 86.8663 70.7118 73.7262 70.7147H73.71C62.3711 70.7147 52.8951 68.9047 50.6638 66.3107C50.3614 65.9731 50.1001 65.6061 49.8813 65.2097C49.6611 64.8133 49.4894 64.3979 49.3631 63.9619C49.2383 63.5259 49.162 63.0826 49.137 62.6304C49.1121 62.1768 49.1385 61.7276 49.2149 61.2813L50.1558 55.0672C51.5578 45.7982 57.788 36.4441 68.5485 36.4441H79.6393C90.3998 36.4441 96.63 45.7968 98.0319 55.0672ZM74.0932 3.82941C74.4895 3.82941 74.8829 3.84849 75.2764 3.88813C75.6698 3.92776 76.0603 3.98502 76.4478 4.06282C76.8354 4.14062 77.2171 4.23604 77.5958 4.35202C77.9731 4.46652 78.3445 4.60011 78.71 4.75132C79.0756 4.90252 79.4323 5.07134 79.7802 5.25778C80.1281 5.44421 80.4672 5.6468 80.7961 5.867C81.1234 6.08573 81.4405 6.32208 81.7459 6.57164C82.0512 6.82267 82.3434 7.08838 82.6237 7.3673C82.9027 7.64622 83.1684 7.93836 83.4194 8.2437C83.669 8.55052 83.9053 8.86614 84.124 9.19497C84.3443 9.5238 84.5468 9.86145 84.7333 10.2108C84.9197 10.5587 85.0885 10.9155 85.2397 11.281C85.3909 11.6451 85.5245 12.0165 85.6405 12.3952C85.755 12.7725 85.8504 13.1557 85.9282 13.5432C86.006 13.9308 86.0648 14.3212 86.1029 14.7147C86.1426 15.1066 86.1616 15.5015 86.1631 15.8964C86.1631 27.6537 79.9065 33.009 74.0946 33.009C68.2813 33.009 62.0247 27.6552 62.0247 15.8964C62.0261 15.5015 62.0452 15.1066 62.0849 14.7147C62.123 14.3212 62.1818 13.9308 62.2596 13.5432C62.3374 13.1557 62.4328 12.7725 62.5488 12.3952C62.6633 12.0165 62.7968 11.6451 62.9481 11.281C63.0993 10.9155 63.2681 10.5587 63.4545 10.2108C63.641 9.86291 63.8435 9.5238 64.0637 9.19497C64.2839 8.86761 64.5188 8.55052 64.7684 8.24517C65.0194 7.93983 65.2851 7.64622 65.564 7.3673C65.8444 7.08838 66.1366 6.82267 66.4419 6.57164C66.7473 6.32208 67.0643 6.08573 67.3917 5.867C67.7205 5.6468 68.0597 5.44421 68.4076 5.25778C68.7555 5.07134 69.1122 4.90252 69.4777 4.75132C69.8433 4.60011 70.2147 4.46652 70.592 4.35202C70.9707 4.23604 71.3524 4.14062 71.7399 4.06282C72.1275 3.98502 72.518 3.92776 72.9114 3.88813C73.3048 3.84849 73.6983 3.82941 74.0932 3.82941ZM12.5631 83.1355C12.5925 83.2456 12.6101 83.3572 12.616 83.4717C12.6233 83.5847 12.6174 83.6978 12.6028 83.8093C12.5866 83.9224 12.5602 84.0325 12.522 84.1396C12.4853 84.2468 12.4369 84.3481 12.3796 84.4465C12.3209 84.5448 12.2549 84.6358 12.1785 84.7195C12.1022 84.8046 12.0185 84.8795 11.9275 84.9485C11.8365 85.016 11.7396 85.0748 11.6368 85.1232C11.5355 85.1717 11.4284 85.2098 11.3183 85.2377C11.2082 85.2641 11.0966 85.2803 10.9836 85.2862C10.8691 85.292 10.756 85.2862 10.6444 85.2685C10.5314 85.2524 10.4228 85.2245 10.3156 85.1849C10.2085 85.1467 10.1072 85.0983 10.0103 85.0381C9.91338 84.9793 9.82236 84.9118 9.73869 84.8355C9.65501 84.7577 9.58014 84.674 9.51408 84.5815C9.44655 84.4905 9.3893 84.3921 9.34233 84.2894C9.29388 84.1866 9.25718 84.0795 9.23076 83.9694L9.22488 83.9415C9.19699 83.8314 9.18085 83.7213 9.17497 83.6082C9.1691 83.4952 9.17497 83.3836 9.19112 83.2721C9.20874 83.1605 9.23516 83.0504 9.27333 82.9447C9.3115 82.839 9.35994 82.7377 9.41719 82.6408C9.47591 82.5439 9.54198 82.4529 9.61831 82.3692C9.69318 82.287 9.77686 82.2107 9.86787 82.1432C9.95889 82.0771 10.0543 82.0184 10.1571 81.9714C10.2584 81.923 10.3641 81.8848 10.4742 81.8569C10.5828 81.8305 10.6944 81.8143 10.8074 81.8084C10.919 81.8026 11.032 81.8084 11.1436 81.8246C11.2551 81.8422 11.3638 81.8686 11.4695 81.9068C11.5766 81.945 11.6779 81.9934 11.7748 82.0521C11.8702 82.1094 11.9612 82.1769 12.0449 82.2518C12.1286 82.3281 12.2035 82.4118 12.271 82.5028C12.3371 82.5924 12.3958 82.6893 12.4428 82.7906C12.4912 82.8933 12.5294 82.999 12.5558 83.1091L12.5631 83.1355ZM97.9145 19.5576V34.4124C97.916 34.5254 97.9277 34.6355 97.9512 34.7456C97.9747 34.8543 98.007 34.9614 98.051 35.0642C98.0951 35.1669 98.1479 35.2653 98.211 35.3578C98.2742 35.4503 98.3446 35.5354 98.4254 35.6147C98.5046 35.6925 98.5913 35.763 98.6837 35.8246C98.7777 35.8863 98.876 35.9391 98.9788 35.9802C99.083 36.0228 99.1902 36.0551 99.2988 36.0771C99.4089 36.0991 99.5205 36.1094 99.6321 36.1094C99.7436 36.1094 99.8537 36.0991 99.9638 36.0771C100.074 36.0551 100.181 36.0228 100.284 35.9802C100.388 35.9391 100.486 35.8863 100.579 35.8246C100.673 35.763 100.759 35.6925 100.839 35.6147C100.918 35.5354 100.99 35.4503 101.052 35.3578C101.115 35.2653 101.169 35.1669 101.212 35.0642C101.256 34.9614 101.289 34.8543 101.313 34.7456C101.335 34.6355 101.348 34.5254 101.348 34.4124V19.5576C101.62 19.4681 101.881 19.358 102.135 19.2288C102.389 19.0981 102.63 18.9484 102.86 18.7796C103.091 18.6108 103.305 18.4258 103.506 18.2232C103.707 18.0221 103.891 17.8048 104.058 17.5744C104.225 17.3424 104.374 17.1002 104.503 16.8462C104.631 16.5923 104.739 16.3295 104.827 16.0579C104.915 15.7863 104.981 15.5103 105.026 15.2285C105.07 14.9466 105.092 14.6633 105.092 14.3785C105.092 14.0937 105.07 13.8104 105.026 13.5285C104.981 13.2467 104.915 12.9707 104.827 12.6991C104.739 12.4275 104.631 12.1647 104.503 11.9108C104.374 11.6568 104.225 11.4146 104.058 11.1827C103.891 10.9522 103.707 10.7349 103.506 10.5323C103.305 10.3312 103.091 10.1462 102.86 9.97742C102.63 9.8086 102.389 9.65886 102.135 9.52821C101.881 9.39756 101.62 9.28746 101.348 9.19791V6.22813C101.348 6.11656 101.335 6.00646 101.313 5.89636C101.289 5.78626 101.256 5.68056 101.212 5.5778C101.169 5.47504 101.115 5.37669 101.052 5.2842C100.99 5.19172 100.918 5.10657 100.839 5.0273C100.759 4.9495 100.673 4.87903 100.579 4.81738C100.486 4.75572 100.388 4.70287 100.284 4.6603C100.181 4.61773 100.074 4.58543 99.9638 4.56488C99.8537 4.54286 99.7436 4.53258 99.6321 4.53258C99.5205 4.53258 99.4089 4.54286 99.2988 4.56488C99.1902 4.58543 99.083 4.61773 98.9788 4.6603C98.876 4.70287 98.7777 4.75572 98.6837 4.81738C98.5913 4.87903 98.5046 4.9495 98.4254 5.0273C98.3446 5.10657 98.2742 5.19172 98.211 5.2842C98.1479 5.37669 98.0951 5.47504 98.051 5.5778C98.007 5.68056 97.9747 5.78626 97.9512 5.89636C97.9277 6.00646 97.916 6.11656 97.9145 6.22813V9.19938C97.6444 9.28892 97.3816 9.39902 97.1291 9.52968C96.8752 9.66033 96.6329 9.8086 96.4039 9.97742C96.1734 10.1462 95.9576 10.3312 95.7565 10.5338C95.5554 10.7364 95.3719 10.9522 95.2046 11.1841C95.0387 11.4146 94.8904 11.6568 94.7612 11.9108C94.632 12.1662 94.5234 12.429 94.4368 12.6991C94.3487 12.9707 94.2827 13.2467 94.2386 13.5285C94.1931 13.8104 94.1711 14.0937 94.1711 14.3785C94.1711 14.6633 94.1931 14.9466 94.2386 15.2285C94.2827 15.5103 94.3487 15.7863 94.4368 16.0579C94.5234 16.3295 94.632 16.5923 94.7612 16.8462C94.8904 17.1002 95.0387 17.3439 95.2046 17.5744C95.3719 17.8048 95.5554 18.0221 95.7565 18.2247C95.9576 18.4258 96.1734 18.6122 96.4039 18.7796C96.6329 18.9484 96.8752 19.0981 97.1291 19.2288C97.3816 19.3594 97.6444 19.4695 97.9145 19.5591V19.5576ZM99.6321 12.3541C99.7642 12.3541 99.8963 12.3673 100.027 12.3938C100.156 12.4187 100.284 12.4583 100.406 12.5083C100.529 12.5596 100.645 12.6213 100.757 12.6962C100.867 12.7696 100.969 12.8532 101.063 12.9472C101.157 13.0411 101.241 13.1439 101.314 13.254C101.388 13.3641 101.451 13.4816 101.502 13.6034C101.552 13.7267 101.59 13.853 101.617 13.9836C101.643 14.1143 101.656 14.2449 101.656 14.3785C101.656 14.5106 101.643 14.6427 101.617 14.7734C101.59 14.904 101.552 15.0303 101.502 15.1521C101.451 15.2755 101.389 15.3929 101.314 15.503C101.241 15.6131 101.157 15.7159 101.063 15.8098C100.969 15.9038 100.867 15.9874 100.757 16.0608C100.646 16.1357 100.529 16.1974 100.407 16.2487C100.284 16.2987 100.158 16.3368 100.027 16.3632C99.8963 16.3897 99.7642 16.4029 99.6321 16.4029C99.4985 16.4029 99.3678 16.3897 99.2372 16.3632C99.1065 16.3383 98.9803 16.2987 98.857 16.2487C98.7351 16.1974 98.6177 16.1357 98.5076 16.0608C98.3975 15.9874 98.2947 15.9038 98.2008 15.8098C98.1068 15.7159 98.0231 15.6131 97.9497 15.503C97.8749 15.3929 97.8132 15.2755 97.7618 15.1536C97.7119 15.0303 97.6723 14.904 97.6473 14.7734C97.6209 14.6427 97.6077 14.5121 97.6077 14.3785C97.6077 14.2464 97.6209 14.1143 97.6473 13.9836C97.6738 13.853 97.7119 13.7267 97.7633 13.6049C97.8132 13.4816 97.8763 13.3656 97.9497 13.2555C98.0231 13.1439 98.1083 13.0426 98.2022 12.9487C98.2962 12.8547 98.3975 12.771 98.5076 12.6976C98.6191 12.6228 98.7351 12.5611 98.857 12.5097C98.9803 12.4584 99.1065 12.4202 99.2372 12.3938C99.3678 12.3688 99.4985 12.3556 99.6321 12.3556V12.3541ZM25.5814 45.9318C25.9058 45.9318 26.2273 45.9641 26.5444 46.0273C26.8615 46.0904 27.1713 46.1843 27.4693 46.3091C27.7687 46.4324 28.0535 46.5851 28.3222 46.7657C28.5923 46.9448 28.8419 47.1503 29.0709 47.3793C29.2999 47.6083 29.5039 47.8579 29.6845 48.1265C29.8636 48.3966 30.0163 48.6799 30.1396 48.9794C30.2644 49.2789 30.3583 49.5872 30.4214 49.9043C30.4846 50.2228 30.5169 50.5428 30.5169 50.8673C30.5169 50.9803 30.5286 51.0919 30.5506 51.202C30.5726 51.3135 30.6049 51.4207 30.6475 51.5249C30.6915 51.6292 30.7444 51.7275 30.8061 51.8215C30.8692 51.9154 30.9411 52.002 31.0204 52.0813C31.0997 52.1621 31.1863 52.2325 31.2802 52.2956C31.3742 52.3573 31.4725 52.4102 31.5768 52.4542C31.681 52.4968 31.7896 52.5291 31.8997 52.5511C32.0098 52.5731 32.1214 52.5848 32.2344 52.5848C32.3475 52.5848 32.459 52.5731 32.5691 52.5511C32.6807 52.5291 32.7879 52.4968 32.8921 52.4542C32.9963 52.4102 33.0947 52.3573 33.1886 52.2956C33.2826 52.2325 33.3692 52.1621 33.4485 52.0813C33.5292 52.002 33.5997 51.9154 33.6628 51.8215C33.7244 51.7275 33.7773 51.6292 33.8213 51.5249C33.8639 51.4207 33.8962 51.3135 33.9182 51.202C33.9402 51.0919 33.952 50.9803 33.952 50.8673C33.952 50.5428 33.9843 50.2228 34.0474 49.9043C34.1105 49.5872 34.2045 49.2789 34.3293 48.9794C34.4526 48.6799 34.6053 48.3966 34.7858 48.1265C34.9649 47.8579 35.1704 47.6083 35.3994 47.3793C35.6285 47.1503 35.8765 46.9448 36.1467 46.7657C36.4153 46.5851 36.7001 46.4324 36.9996 46.3091C37.299 46.1843 37.6073 46.0904 37.9244 46.0273C38.243 45.9641 38.563 45.9318 38.8874 45.9318C39.0005 45.9333 39.1135 45.923 39.2251 45.9025C39.3366 45.8819 39.4453 45.8496 39.551 45.8071C39.6552 45.7645 39.7565 45.7116 39.8504 45.65C39.9459 45.5869 40.0339 45.5164 40.1147 45.4356C40.1954 45.3564 40.2674 45.2698 40.3305 45.1758C40.3951 45.0804 40.4479 44.982 40.492 44.8763C40.536 44.7721 40.5683 44.6635 40.5918 44.5519C40.6138 44.4403 40.6255 44.3288 40.6255 44.2143C40.6255 44.1012 40.6138 43.9882 40.5918 43.8766C40.5683 43.7651 40.536 43.6579 40.492 43.5522C40.4479 43.448 40.3951 43.3481 40.3305 43.2542C40.2674 43.1602 40.1954 43.0736 40.1147 42.9929C40.0339 42.9136 39.9459 42.8417 39.8504 42.78C39.7565 42.7169 39.6552 42.6655 39.551 42.623C39.4453 42.5804 39.3366 42.5481 39.2251 42.5275C39.1135 42.5055 39.0005 42.4967 38.8874 42.4982C38.563 42.4967 38.243 42.4659 37.9244 42.4013C37.6073 42.3382 37.299 42.2442 36.9996 42.1209C36.7001 41.9961 36.4153 41.8449 36.1467 41.6643C35.8765 41.4838 35.6285 41.2797 35.3994 41.0507C35.1704 40.8217 34.9649 40.5721 34.7858 40.3035C34.6053 40.0334 34.4526 39.7486 34.3293 39.4506C34.2045 39.1511 34.1105 38.8428 34.0474 38.5243C33.9843 38.2072 33.952 37.8857 33.952 37.5627C33.952 37.4497 33.9402 37.3381 33.9182 37.2266C33.8962 37.1165 33.8639 37.0093 33.8213 36.9051C33.7773 36.8008 33.7244 36.7025 33.6628 36.6085C33.5997 36.5146 33.5292 36.428 33.4485 36.3487C33.3692 36.2679 33.2826 36.1975 33.1886 36.1344C33.0947 36.0712 32.9963 36.0184 32.8921 35.9758C32.7879 35.9332 32.6807 35.8995 32.5691 35.8775C32.459 35.8554 32.3475 35.8452 32.2344 35.8452C32.1214 35.8452 32.0098 35.8554 31.8997 35.8775C31.7896 35.8995 31.681 35.9332 31.5768 35.9758C31.4725 36.0184 31.3742 36.0712 31.2802 36.1344C31.1863 36.1975 31.0997 36.2679 31.0204 36.3487C30.9411 36.428 30.8692 36.5146 30.8061 36.6085C30.7444 36.7025 30.6915 36.8008 30.6475 36.9051C30.6049 37.0093 30.5726 37.1165 30.5506 37.2266C30.5286 37.3381 30.5169 37.4497 30.5169 37.5627C30.5169 37.8857 30.4846 38.2072 30.4214 38.5243C30.3583 38.8428 30.2644 39.1511 30.1396 39.4506C30.0163 39.7486 29.8636 40.0334 29.6845 40.3035C29.5039 40.5721 29.2999 40.8217 29.0694 41.0507C28.8404 41.2797 28.5923 41.4838 28.3222 41.6643C28.0535 41.8434 27.7687 41.9961 27.4693 42.1209C27.1698 42.2442 26.8615 42.3382 26.5444 42.4013C26.2273 42.4659 25.9058 42.4967 25.5814 42.4982C25.4684 42.4967 25.3553 42.5055 25.2438 42.5275C25.1322 42.5481 25.0236 42.5804 24.9179 42.623C24.8136 42.6655 24.7124 42.7169 24.6184 42.78C24.523 42.8417 24.4349 42.9136 24.3542 42.9929C24.2734 43.0736 24.2015 43.1602 24.1384 43.2542C24.0738 43.3481 24.0209 43.448 23.9769 43.5522C23.9328 43.6579 23.9005 43.7651 23.8771 43.8766C23.855 43.9882 23.8448 44.1012 23.8448 44.2143C23.8448 44.3288 23.855 44.4403 23.8771 44.5519C23.9005 44.6635 23.9328 44.7721 23.9769 44.8763C24.0209 44.982 24.0738 45.0804 24.1384 45.1758C24.2015 45.2698 24.2734 45.3564 24.3542 45.4356C24.4349 45.5164 24.523 45.5869 24.6184 45.65C24.7124 45.7116 24.8136 45.7645 24.9179 45.8071C25.0236 45.8496 25.1322 45.8819 25.2438 45.9025C25.3553 45.923 25.4684 45.9333 25.5814 45.9318ZM32.2344 42.6362C32.691 43.2322 33.2165 43.7592 33.814 44.2143C33.2165 44.6708 32.691 45.1978 32.2344 45.7938C31.7779 45.1978 31.2523 44.6708 30.6548 44.2143C31.2523 43.7592 31.7779 43.2322 32.2344 42.6362ZM122.916 11.212V6.22813C122.916 6.11509 122.904 6.00352 122.884 5.89342C122.862 5.78332 122.828 5.67469 122.785 5.57193C122.743 5.4677 122.69 5.36788 122.627 5.27393C122.564 5.17997 122.493 5.09336 122.413 5.01409C122.333 4.93482 122.247 4.86288 122.153 4.80123C122.059 4.7381 121.96 4.68526 121.856 4.64121C121.752 4.59864 121.645 4.56635 121.533 4.54433C121.423 4.52231 121.312 4.51056 121.199 4.51056C121.086 4.51056 120.974 4.52231 120.864 4.54433C120.754 4.56635 120.647 4.59864 120.542 4.64121C120.438 4.68526 120.338 4.7381 120.244 4.80123C120.15 4.86288 120.064 4.93482 119.985 5.01409C119.905 5.09336 119.833 5.17997 119.772 5.27393C119.709 5.36788 119.656 5.4677 119.613 5.57193C119.569 5.67469 119.537 5.78332 119.515 5.89342C119.493 6.00352 119.481 6.11509 119.481 6.22813V11.212C119.211 11.3016 118.95 11.4117 118.696 11.5423C118.442 11.673 118.201 11.8227 117.97 11.9915C117.74 12.1589 117.526 12.3453 117.324 12.5464C117.123 12.749 116.938 12.9663 116.773 13.1968C116.605 13.4272 116.457 13.6709 116.328 13.9249C116.2 14.1789 116.091 14.4416 116.003 14.7132C115.915 14.9848 115.849 15.2608 115.805 15.5426C115.761 15.823 115.739 16.1078 115.739 16.3926C115.739 16.6774 115.761 16.9607 115.805 17.2426C115.849 17.5244 115.915 17.8004 116.003 18.072C116.091 18.3421 116.2 18.6049 116.328 18.8603C116.457 19.1143 116.605 19.3565 116.773 19.587C116.938 19.8189 117.123 20.0347 117.324 20.2373C117.526 20.4399 117.74 20.6249 117.97 20.7937C118.201 20.9625 118.442 21.1108 118.696 21.2414C118.95 21.3721 119.211 21.4822 119.481 21.5717V34.4139C119.481 34.5269 119.493 34.6385 119.515 34.7486C119.537 34.8587 119.569 34.9673 119.613 35.0701C119.656 35.1743 119.709 35.2741 119.772 35.3681C119.833 35.462 119.905 35.5486 119.985 35.6279C120.064 35.7072 120.15 35.7791 120.244 35.8408C120.338 35.9039 120.438 35.9567 120.542 36.0008C120.647 36.0433 120.754 36.0756 120.864 36.0977C120.974 36.1197 121.086 36.1314 121.199 36.1314C121.312 36.1314 121.423 36.1197 121.533 36.0977C121.645 36.0756 121.752 36.0433 121.856 36.0008C121.96 35.9567 122.059 35.9039 122.153 35.8408C122.247 35.7791 122.333 35.7072 122.413 35.6279C122.493 35.5486 122.564 35.462 122.627 35.3681C122.69 35.2741 122.743 35.1743 122.785 35.0701C122.828 34.9673 122.862 34.8587 122.884 34.7486C122.904 34.6385 122.916 34.5269 122.916 34.4139V21.5717C123.186 21.4822 123.449 21.3721 123.702 21.2414C123.955 21.1108 124.198 20.961 124.427 20.7937C124.657 20.6249 124.873 20.4399 125.074 20.2373C125.275 20.0347 125.459 19.8189 125.626 19.587C125.792 19.3565 125.94 19.1143 126.069 18.8589C126.199 18.6049 126.307 18.3421 126.394 18.0705C126.482 17.8004 126.548 17.523 126.592 17.2426C126.638 16.9607 126.66 16.6774 126.66 16.3926C126.66 16.1063 126.638 15.823 126.592 15.5426C126.548 15.2608 126.482 14.9848 126.394 14.7132C126.307 14.4416 126.199 14.1789 126.069 13.9249C125.94 13.6709 125.792 13.4272 125.626 13.1968C125.459 12.9663 125.275 12.749 125.074 12.5464C124.873 12.3453 124.657 12.1589 124.427 11.9915C124.198 11.8227 123.955 11.673 123.702 11.5423C123.449 11.4117 123.186 11.3016 122.916 11.212ZM121.199 18.4155C121.066 18.4155 120.934 18.4023 120.804 18.3774C120.673 18.3509 120.547 18.3128 120.425 18.2614C120.302 18.2115 120.186 18.1483 120.074 18.0749C119.964 18.0015 119.861 17.9179 119.767 17.8239C119.673 17.73 119.59 17.6272 119.516 17.5171C119.443 17.4055 119.38 17.2896 119.328 17.1662C119.278 17.0444 119.24 16.9167 119.214 16.7875C119.187 16.6568 119.174 16.5247 119.174 16.3926C119.174 16.259 119.187 16.1269 119.214 15.9977C119.24 15.8671 119.278 15.7408 119.328 15.6175C119.38 15.4942 119.441 15.3782 119.516 15.2681C119.59 15.1565 119.673 15.0553 119.767 14.9613C119.861 14.8673 119.964 14.7837 120.074 14.7088C120.184 14.6354 120.302 14.5737 120.425 14.5224C120.547 14.471 120.673 14.4328 120.804 14.4064C120.934 14.3814 121.066 14.3682 121.199 14.3682C121.332 14.3682 121.463 14.3814 121.593 14.4064C121.724 14.4328 121.85 14.471 121.974 14.5224C122.096 14.5737 122.213 14.6354 122.323 14.7088C122.433 14.7837 122.536 14.8673 122.63 14.9613C122.724 15.0553 122.807 15.1565 122.881 15.2681C122.956 15.3782 123.017 15.4957 123.069 15.6175C123.119 15.7408 123.158 15.8671 123.183 15.9977C123.21 16.1284 123.223 16.259 123.223 16.3926C123.223 16.5247 123.21 16.6568 123.183 16.7875C123.157 16.9167 123.119 17.0429 123.067 17.1662C123.017 17.2896 122.954 17.4055 122.881 17.5156C122.807 17.6257 122.722 17.7285 122.628 17.8224C122.534 17.9164 122.433 18.0001 122.323 18.0735C122.211 18.1483 122.096 18.21 121.972 18.2614C121.85 18.3128 121.724 18.3509 121.593 18.3759C121.463 18.4023 121.332 18.4155 121.199 18.4155ZM37.299 28.4743C37.5119 28.4743 37.7248 28.486 37.9362 28.5066C38.149 28.5272 38.3589 28.5594 38.5689 28.6006C38.7773 28.6431 38.9843 28.6945 39.1884 28.7562C39.3924 28.8193 39.5921 28.8912 39.7888 28.972C39.9855 29.0542 40.1778 29.1452 40.3657 29.245C40.5536 29.3463 40.7371 29.4549 40.9133 29.5738C41.0909 29.6927 41.2627 29.819 41.4271 29.9541C41.5915 30.0906 41.7486 30.233 41.8998 30.3842C42.051 30.5339 42.1934 30.6925 42.3284 30.8569C42.4635 31.0213 42.5912 31.1931 42.7086 31.3692C42.8276 31.5468 42.9377 31.7289 43.0375 31.9168C43.1388 32.1047 43.2298 32.2985 43.3105 32.4952C43.3927 32.6919 43.4647 32.8915 43.5263 33.0956C43.5895 33.2996 43.6408 33.5066 43.6819 33.7151C43.7245 33.9235 43.7553 34.1349 43.7774 34.3463C43.7979 34.5592 43.8082 34.772 43.8082 34.9849C43.8067 35.0979 43.817 35.211 43.8375 35.3226C43.8596 35.4341 43.8904 35.5428 43.933 35.6484C43.9755 35.7541 44.0284 35.854 44.0915 35.9479C44.1532 36.0433 44.2251 36.1314 44.3044 36.2122C44.3836 36.2929 44.4717 36.3648 44.5657 36.4294C44.6596 36.4926 44.7595 36.5454 44.8637 36.5894C44.9694 36.6335 45.0765 36.6672 45.1881 36.6893C45.2997 36.7113 45.4127 36.723 45.5258 36.723C45.6388 36.723 45.7518 36.7113 45.8634 36.6893C45.975 36.6672 46.0821 36.6335 46.1878 36.5894C46.2921 36.5454 46.3919 36.4926 46.4858 36.4294C46.5798 36.3648 46.6679 36.2929 46.7471 36.2122C46.8264 36.1314 46.8983 36.0433 46.96 35.9479C47.0231 35.854 47.076 35.7541 47.1185 35.6484C47.1611 35.5428 47.1919 35.4341 47.214 35.3226C47.2345 35.211 47.2448 35.0979 47.2433 34.9849C47.2433 34.772 47.2536 34.5592 47.2756 34.3463C47.2962 34.1349 47.3285 33.9235 47.3696 33.7151C47.4121 33.5052 47.4635 33.2996 47.5266 33.0956C47.5883 32.8915 47.6602 32.6904 47.7424 32.4937C47.8232 32.297 47.9157 32.1047 48.0155 31.9168C48.1168 31.7289 48.2269 31.5454 48.3443 31.3677C48.4632 31.1916 48.591 31.0198 48.726 30.8554C48.8611 30.691 49.0049 30.5324 49.1547 30.3827C49.3059 30.2315 49.4644 30.0891 49.6288 29.9526C49.7932 29.8175 49.965 29.6913 50.1426 29.5724C50.3203 29.4549 50.5023 29.3448 50.6902 29.245C50.8781 29.1437 51.0704 29.0527 51.2686 28.9705C51.4653 28.8897 51.665 28.8178 51.869 28.7562C52.0731 28.6945 52.28 28.6417 52.49 28.6006C52.6984 28.558 52.9098 28.5272 53.1212 28.5066C53.3341 28.486 53.5469 28.4743 53.7598 28.4743C53.8714 28.4728 53.9829 28.4611 54.0916 28.4376C54.2017 28.4156 54.3074 28.3818 54.4101 28.3378C54.5129 28.2937 54.6112 28.2409 54.7037 28.1778C54.7962 28.1146 54.8814 28.0442 54.9606 27.9649C55.0399 27.8856 55.1089 27.799 55.1706 27.7051C55.2337 27.6111 55.2851 27.5128 55.3276 27.41C55.3702 27.3058 55.4025 27.2001 55.4245 27.09C55.4451 26.9799 55.4568 26.8698 55.4568 26.7582C55.4568 26.6452 55.4451 26.5351 55.4245 26.425C55.4025 26.3149 55.3702 26.2092 55.3276 26.1049C55.2851 26.0022 55.2337 25.9038 55.1706 25.8099C55.1089 25.7174 55.0399 25.6308 54.9606 25.55C54.8814 25.4708 54.7962 25.4003 54.7037 25.3372C54.6112 25.274 54.5129 25.2212 54.4101 25.1772C54.3074 25.1331 54.2017 25.0994 54.0916 25.0773C53.9829 25.0538 53.8714 25.0421 53.7598 25.0406C53.5469 25.0406 53.3341 25.0289 53.1212 25.0083C52.9084 24.9878 52.6984 24.9555 52.4885 24.9144C52.28 24.8718 52.0731 24.8204 51.869 24.7588C51.665 24.6957 51.4638 24.6237 51.2671 24.543C51.0704 24.4608 50.8766 24.3698 50.6887 24.2685C50.5008 24.1686 50.3188 24.0585 50.1412 23.9396C49.9635 23.8222 49.7918 23.6945 49.6274 23.5594C49.4629 23.4244 49.3044 23.2805 49.1532 23.1293C49.0035 22.9796 48.8596 22.821 48.7245 22.6566C48.5895 22.4907 48.4618 22.3204 48.3429 22.1428C48.2254 21.9652 48.1153 21.7831 48.014 21.5938C47.9142 21.4058 47.8232 21.2135 47.741 21.0168C47.6588 20.8201 47.5868 20.619 47.5252 20.4149C47.4635 20.2109 47.4107 20.0039 47.3696 19.794C47.327 19.5855 47.2962 19.3741 47.2756 19.1627C47.2536 18.9499 47.2433 18.737 47.2433 18.5242C47.2448 18.4096 47.2345 18.2981 47.214 18.1865C47.1919 18.0749 47.1611 17.9663 47.1185 17.8606C47.076 17.7549 47.0231 17.6551 46.96 17.5597C46.8983 17.4657 46.8264 17.3776 46.7471 17.2969C46.6679 17.2162 46.5798 17.1428 46.4858 17.0796C46.3919 17.0165 46.2921 16.9622 46.1878 16.9182C46.0821 16.8756 45.975 16.8418 45.8634 16.8198C45.7518 16.7978 45.6388 16.786 45.5258 16.786C45.4127 16.786 45.2997 16.7978 45.1881 16.8198C45.0765 16.8418 44.9694 16.8756 44.8637 16.9182C44.7595 16.9622 44.6596 17.0165 44.5657 17.0796C44.4717 17.1428 44.3836 17.2162 44.3044 17.2969C44.2251 17.3776 44.1532 17.4657 44.0915 17.5597C44.0284 17.6551 43.9755 17.7549 43.933 17.8606C43.8904 17.9663 43.8596 18.0749 43.8375 18.1865C43.817 18.2981 43.8067 18.4096 43.8082 18.5242C43.8082 18.737 43.7979 18.9499 43.7774 19.1613C43.7553 19.3741 43.7245 19.5855 43.6834 19.794C43.6408 20.0024 43.5895 20.2094 43.5278 20.4135C43.4661 20.6175 43.3942 20.8186 43.312 21.0154C43.2313 21.2121 43.1402 21.4044 43.039 21.5938C42.9391 21.7817 42.829 21.9637 42.7101 22.1413C42.5927 22.319 42.465 22.4892 42.3299 22.6551C42.1948 22.8195 42.0525 22.9766 41.9012 23.1278C41.75 23.279 41.593 23.4229 41.4285 23.5579C41.2627 23.693 41.0924 23.8207 40.9147 23.9382C40.7386 24.0571 40.5551 24.1672 40.3672 24.267C40.1793 24.3683 39.987 24.4593 39.7903 24.5415C39.5935 24.6237 39.3924 24.6957 39.1884 24.7573C38.9843 24.819 38.7788 24.8718 38.5689 24.9129C38.3604 24.9555 38.149 24.9863 37.9376 25.0083C37.7248 25.0289 37.5119 25.0406 37.299 25.0406C37.186 25.0392 37.073 25.0494 36.9614 25.07C36.8498 25.0905 36.7412 25.1228 36.6355 25.1654C36.5298 25.208 36.43 25.2608 36.3346 25.3225C36.2406 25.3856 36.1525 25.4561 36.0718 25.5354C35.9911 25.6161 35.9177 25.7027 35.8545 25.7967C35.7914 25.8906 35.7371 25.9904 35.693 26.0961C35.6505 26.2004 35.6167 26.309 35.5947 26.4206C35.5727 26.5321 35.5609 26.6437 35.5609 26.7582C35.5609 26.8712 35.5727 26.9843 35.5947 27.0944C35.6167 27.2059 35.6505 27.3146 35.693 27.4188C35.7371 27.5245 35.7914 27.6243 35.8545 27.7183C35.9177 27.8122 35.9911 27.8988 36.0718 27.9796C36.1525 28.0589 36.2406 28.1308 36.3346 28.1924C36.43 28.2556 36.5298 28.3069 36.6355 28.3495C36.7412 28.3921 36.8498 28.4244 36.9614 28.4449C37.073 28.4655 37.186 28.4758 37.299 28.4743ZM45.5258 24.107C46.2421 25.1595 47.1244 26.0418 48.177 26.7582C47.1259 27.4731 46.2421 28.3554 45.5258 29.4065C44.8123 28.3554 43.9286 27.4731 42.8789 26.7582C43.9286 26.0418 44.8123 25.1581 45.5258 24.107ZM112.134 21.306V6.22813C112.134 6.11509 112.122 6.00352 112.1 5.89342C112.078 5.78332 112.046 5.67616 112.001 5.57193C111.959 5.4677 111.906 5.36935 111.843 5.27539C111.78 5.18291 111.709 5.0963 111.63 5.01702C111.549 4.93628 111.463 4.86582 111.369 4.8027C111.276 4.74104 111.176 4.68819 111.072 4.64562C110.969 4.60158 110.861 4.56928 110.751 4.54726C110.641 4.52524 110.529 4.51497 110.416 4.51497C110.304 4.51497 110.193 4.52524 110.081 4.54726C109.971 4.56928 109.864 4.60158 109.76 4.64562C109.656 4.68819 109.557 4.74104 109.463 4.8027C109.369 4.86582 109.283 4.93628 109.203 5.01702C109.124 5.0963 109.052 5.18291 108.989 5.27539C108.927 5.36935 108.875 5.4677 108.831 5.57193C108.788 5.67616 108.756 5.78332 108.732 5.89342C108.71 6.00352 108.7 6.11509 108.7 6.22813V21.306C108.428 21.397 108.167 21.5071 107.913 21.6378C107.661 21.7684 107.418 21.9182 107.189 22.087C106.959 22.2558 106.743 22.4408 106.543 22.6434C106.342 22.846 106.159 23.0632 105.991 23.2937C105.824 23.5257 105.677 23.7679 105.548 24.0218C105.419 24.2758 105.31 24.5386 105.224 24.8102C105.136 25.0817 105.07 25.3577 105.026 25.6396C104.981 25.9214 104.958 26.2048 104.958 26.4896C104.958 26.7744 104.981 27.0577 105.026 27.3395C105.07 27.6214 105.136 27.8974 105.224 28.169C105.31 28.4405 105.419 28.7033 105.548 28.9573C105.677 29.2112 105.824 29.4549 105.991 29.6854C106.159 29.9174 106.342 30.1332 106.543 30.3357C106.743 30.5383 106.959 30.7233 107.189 30.8921C107.418 31.0609 107.661 31.2107 107.913 31.3413C108.167 31.472 108.428 31.5835 108.7 31.6731V34.4139C108.7 34.5269 108.71 34.637 108.732 34.7486C108.756 34.8587 108.788 34.9658 108.831 35.0701C108.875 35.1743 108.927 35.2726 108.989 35.3666C109.052 35.4591 109.124 35.5457 109.203 35.625C109.283 35.7057 109.369 35.7762 109.463 35.8393C109.557 35.9009 109.656 35.9538 109.76 35.9964C109.864 36.0404 109.971 36.0727 110.081 36.0947C110.193 36.1167 110.304 36.127 110.416 36.127C110.529 36.127 110.641 36.1167 110.751 36.0947C110.861 36.0727 110.969 36.0404 111.072 35.9964C111.176 35.9538 111.276 35.9009 111.369 35.8393C111.463 35.7762 111.549 35.7057 111.63 35.625C111.709 35.5457 111.78 35.4591 111.843 35.3666C111.906 35.2726 111.959 35.1743 112.001 35.0701C112.046 34.9658 112.078 34.8587 112.1 34.7486C112.122 34.637 112.134 34.5269 112.134 34.4139V31.6731C112.404 31.5835 112.667 31.4734 112.919 31.3413C113.173 31.2107 113.414 31.0609 113.644 30.8921C113.875 30.7248 114.089 30.5383 114.29 30.3357C114.491 30.1332 114.675 29.9174 114.842 29.6854C115.008 29.4549 115.156 29.2112 115.285 28.9573C115.413 28.7033 115.522 28.4405 115.61 28.169C115.698 27.8974 115.764 27.6214 115.808 27.3395C115.852 27.0577 115.874 26.7744 115.874 26.4896C115.874 26.2048 115.852 25.9214 115.808 25.6396C115.764 25.3577 115.698 25.0817 115.61 24.8102C115.522 24.54 115.413 24.2773 115.285 24.0218C115.156 23.7679 115.008 23.5257 114.842 23.2937C114.675 23.0632 114.491 22.846 114.29 22.6434C114.089 22.4408 113.875 22.2558 113.644 22.087C113.414 21.9182 113.173 21.7684 112.919 21.6378C112.667 21.5071 112.404 21.397 112.134 21.3075V21.306ZM110.416 28.5169C110.284 28.5169 110.152 28.5037 110.021 28.4787C109.891 28.4523 109.763 28.4141 109.639 28.3642C109.516 28.3128 109.4 28.2497 109.289 28.1763C109.179 28.1029 109.076 28.0192 108.98 27.9253C108.886 27.8298 108.803 27.7286 108.728 27.617C108.654 27.5069 108.591 27.3894 108.54 27.2676C108.49 27.1443 108.45 27.0166 108.425 26.8859C108.399 26.7553 108.386 26.6231 108.386 26.491C108.386 26.3574 108.399 26.2253 108.424 26.0947C108.45 25.964 108.489 25.8378 108.54 25.7144C108.59 25.5911 108.653 25.4737 108.726 25.3636C108.801 25.252 108.885 25.1507 108.979 25.0553C109.073 24.9614 109.176 24.8777 109.287 24.8043C109.397 24.7294 109.515 24.6678 109.638 24.6164C109.76 24.565 109.888 24.5268 110.018 24.5004C110.149 24.4755 110.281 24.4622 110.415 24.4622C110.547 24.4622 110.679 24.4755 110.809 24.5019C110.94 24.5268 111.068 24.5665 111.19 24.6164C111.313 24.6678 111.43 24.7309 111.541 24.8043C111.652 24.8792 111.753 24.9628 111.847 25.0568C111.941 25.1522 112.026 25.255 112.1 25.3651C112.173 25.4766 112.236 25.5926 112.286 25.7159C112.338 25.8392 112.376 25.9655 112.402 26.0976C112.427 26.2283 112.44 26.3589 112.44 26.4925C112.44 26.6261 112.427 26.7567 112.401 26.8874C112.374 27.018 112.336 27.1443 112.285 27.2676C112.235 27.3894 112.172 27.5069 112.098 27.617C112.025 27.7271 111.94 27.8298 111.846 27.9238C111.752 28.0178 111.651 28.1014 111.539 28.1748C111.429 28.2497 111.313 28.3114 111.19 28.3627C111.066 28.4126 110.94 28.4523 110.809 28.4772C110.68 28.5037 110.548 28.5169 110.415 28.5169H110.416Z" fill="white"/>
</g>
</svg>
