<svg width="79" height="105" viewBox="0 0 79 105" fill="none" xmlns="http://www.w3.org/2000/svg">
<mask id="mask0_615_4948" style="mask-type:luminance" maskUnits="userSpaceOnUse" x="0" y="0" width="79" height="105">
<path d="M0.250366 0.632812H78.9355V104.926H0.250366V0.632812Z" fill="white"/>
</mask>
<g mask="url(#mask0_615_4948)">
<path d="M72.9876 0.634277H14.0116C10.768 0.634277 8.11343 3.44957 8.11343 6.89104V8.97704H6.14737C2.90378 8.97704 0.250366 11.7936 0.250366 15.2351V87.5499C0.250366 88.1346 0.486199 88.6967 0.879648 89.094L16.607 104.383C16.9803 104.737 17.4519 104.925 17.9437 104.925H65.1245C68.3681 104.925 71.0227 102.109 71.0227 98.6678V96.5817H72.9876C76.2323 96.5817 78.8857 93.7652 78.8857 90.3237V6.89104C78.8857 3.44957 76.2323 0.634277 72.9876 0.634277ZM15.9777 98.1044L7.97596 90.3237H15.9777V98.1044ZM74.9536 90.3237C74.9536 91.4717 74.0695 92.4097 72.9876 92.4097H71.0227V63.2082C71.0227 62.0614 70.1374 61.1222 69.0566 61.1222C67.9746 61.1222 67.0906 62.0614 67.0906 63.2082V98.6678C67.0906 99.8145 66.2053 100.754 65.1245 100.754H19.9086V88.2377C19.9086 87.091 19.0245 86.153 17.9437 86.153H4.18249V15.2351C4.18249 14.0871 5.06657 13.1491 6.14737 13.1491H65.1245C66.2053 13.1491 67.0906 14.0871 67.0906 15.2351V46.5214C67.0906 47.6694 67.9746 48.6074 69.0566 48.6074C70.1374 48.6074 71.0227 47.6694 71.0227 46.5214V15.2351C71.0227 11.7936 68.3681 8.97704 65.1245 8.97704H12.0456V6.89104C12.0456 5.7443 12.9308 4.80503 14.0116 4.80503H72.9876C74.0695 4.80503 74.9536 5.7443 74.9536 6.89104V90.3237Z" fill="white"/>
</g>
<path d="M35.636 38.1785V25.6637C35.636 24.8728 35.2153 24.1511 34.5493 23.7977L22.7541 17.541C22.2019 17.2468 21.5489 17.2468 20.9954 17.541L9.20025 23.7977C8.53423 24.1511 8.11353 24.8728 8.11353 25.6637V38.1785C8.11353 38.9694 8.53423 39.6911 9.20025 40.0444C9.20025 40.0444 20.9871 46.2962 20.9895 46.2974C21.543 46.5904 22.2078 46.5917 22.76 46.2987L34.5493 40.0444C35.2153 39.6911 35.636 38.9694 35.636 38.1785ZM19.9087 41.0604L12.0457 36.8897V29.0385L19.9087 33.2105V41.0604ZM21.8748 29.5893L14.4763 25.6637L21.8748 21.7381L29.2745 25.6637L21.8748 29.5893ZM31.7051 36.8897L23.8408 41.0604V33.2105L31.7051 29.0385V36.8897Z" fill="white"/>
<path d="M61.1924 17.3208H41.5342C40.4475 17.3208 39.5681 18.2538 39.5681 19.4055C39.5681 20.5573 40.4475 21.4916 41.5342 21.4916H61.1924C62.2792 21.4916 63.1585 20.5573 63.1585 19.4055C63.1585 18.2538 62.2792 17.3208 61.1924 17.3208Z" fill="white"/>
<path d="M61.1924 25.6638H41.5342C40.4475 25.6638 39.5681 26.5981 39.5681 27.7498C39.5681 28.9016 40.4475 29.8358 41.5342 29.8358H61.1924C62.2792 29.8358 63.1585 28.9016 63.1585 27.7498C63.1585 26.5981 62.2792 25.6638 61.1924 25.6638Z" fill="white"/>
<path d="M61.1924 34.0066H41.5342C40.4475 34.0066 39.5681 34.9408 39.5681 36.0926C39.5681 37.2444 40.4475 38.1786 41.5342 38.1786H61.1924C62.2792 38.1786 63.1585 37.2444 63.1585 36.0926C63.1585 34.9408 62.2792 34.0066 61.1924 34.0066Z" fill="white"/>
<path d="M61.1924 42.3503H41.5342C40.4475 42.3503 39.5681 43.2846 39.5681 44.4363C39.5681 45.5881 40.4475 46.5211 41.5342 46.5211H61.1924C62.2792 46.5211 63.1585 45.5881 63.1585 44.4363C63.1585 43.2846 62.2792 42.3503 61.1924 42.3503Z" fill="white"/>
<path d="M61.1924 92.4097H59.2264V69.4661C59.2264 68.3181 58.3423 67.3801 57.2615 67.3801H49.3973C48.3165 67.3801 47.4312 68.3181 47.4312 69.4661V73.6369H41.5342C40.4522 73.6369 39.5681 74.5762 39.5681 75.7229V79.8949H33.6699C32.5891 79.8949 31.7051 80.8342 31.7051 81.9809V92.4097H27.7729V69.4661C27.7729 68.3181 26.8877 67.3801 25.8069 67.3801C24.7261 67.3801 23.8408 68.3181 23.8408 69.4661V94.4957C23.8408 95.6424 24.7261 96.5817 25.8069 96.5817H61.1924C62.2744 96.5817 63.1585 95.6424 63.1585 94.4957C63.1585 93.3489 62.2744 92.4097 61.1924 92.4097ZM39.5681 92.4097H35.636V84.0669H39.5681V92.4097ZM47.4312 92.4097H43.5003V77.8089H47.4312V92.4097ZM55.2954 92.4097H51.3633V71.5521H55.2954V92.4097Z" fill="white"/>
<path d="M14.0117 59.0374H17.9438C19.0294 59.0374 19.9087 58.1031 19.9087 56.9514C19.9087 55.7996 19.0294 54.8654 17.9438 54.8654H15.9778V52.7794C15.9778 51.6276 15.0984 50.6934 14.0117 50.6934C12.925 50.6934 12.0457 51.6276 12.0457 52.7794V55.2501C9.76198 56.1127 8.11353 58.4074 8.11353 61.1221C8.11353 64.5737 10.7598 67.3801 14.0117 67.3801C15.0961 67.3801 15.9778 68.3156 15.9778 69.4662C15.9778 70.6154 15.0961 71.5522 14.0117 71.5522H10.0796C8.99286 71.5522 8.11353 72.4851 8.11353 73.6369C8.11353 74.7899 8.99286 75.7229 10.0796 75.7229H12.0457V77.8089C12.0457 78.9607 12.925 79.8949 14.0117 79.8949C15.0984 79.8949 15.9778 78.9607 15.9778 77.8089V75.3394C18.2603 74.4756 19.9087 72.1821 19.9087 69.4662C19.9087 66.0159 17.2636 63.2081 14.0117 63.2081C12.9274 63.2081 12.0457 62.2726 12.0457 61.1221C12.0457 59.9729 12.9274 59.0374 14.0117 59.0374Z" fill="white"/>
<path d="M33.67 50.6934H29.739C28.6523 50.6934 27.7729 51.6276 27.7729 52.7794C27.7729 53.9311 28.6523 54.8654 29.739 54.8654H33.67C34.7567 54.8654 35.636 53.9311 35.636 52.7794C35.636 51.6276 34.7567 50.6934 33.67 50.6934Z" fill="white"/>
<path d="M33.67 59.0371H29.739C28.6523 59.0371 27.7729 59.9701 27.7729 61.1219C27.7729 62.2736 28.6523 63.2079 29.739 63.2079H33.67C34.7567 63.2079 35.636 62.2736 35.636 61.1219C35.636 59.9701 34.7567 59.0371 33.67 59.0371Z" fill="white"/>
<path d="M61.1924 50.6934H41.5342C40.4475 50.6934 39.5681 51.6276 39.5681 52.7794C39.5681 53.9311 40.4475 54.8654 41.5342 54.8654H61.1924C62.2792 54.8654 63.1585 53.9311 63.1585 52.7794C63.1585 51.6276 62.2792 50.6934 61.1924 50.6934Z" fill="white"/>
<path d="M61.1924 59.0371H41.5342C40.4475 59.0371 39.5681 59.9701 39.5681 61.1219C39.5681 62.2736 40.4475 63.2079 41.5342 63.2079H61.1924C62.2792 63.2079 63.1585 62.2736 63.1585 61.1219C63.1585 59.9701 62.2792 59.0371 61.1924 59.0371Z" fill="white"/>
<path d="M71.0228 54.8653C71.0228 55.0024 71.0098 55.1382 70.9849 55.2714C70.9588 55.406 70.9221 55.5367 70.8723 55.6637C70.8237 55.7895 70.7621 55.9102 70.691 56.0234C70.6187 56.1378 70.5381 56.2434 70.4469 56.3402C70.3556 56.437 70.2561 56.5238 70.1482 56.5992C70.0416 56.6759 69.9278 56.7401 69.8081 56.7916C69.6896 56.8444 69.5663 56.8847 69.4395 56.9111C69.3127 56.9375 69.1859 56.9513 69.0568 56.9513C68.9276 56.9513 68.7996 56.9375 68.6728 56.9111C68.546 56.8847 68.4227 56.8444 68.3042 56.7916C68.1845 56.7401 68.072 56.6759 67.9641 56.5992C67.8563 56.5238 67.7579 56.437 67.6667 56.3402C67.5754 56.2434 67.4936 56.1378 67.4213 56.0234C67.3502 55.9102 67.2898 55.7895 67.24 55.6637C67.1902 55.5367 67.1535 55.406 67.1286 55.2714C67.1025 55.1382 67.0907 55.0024 67.0907 54.8653C67.0907 54.7282 67.1025 54.5924 67.1286 54.4579C67.1535 54.3234 67.1902 54.1939 67.24 54.0669C67.2898 53.9399 67.3502 53.8204 67.4213 53.706C67.4936 53.5928 67.5754 53.4872 67.6667 53.3904C67.7579 53.2936 67.8563 53.2068 67.9641 53.1314C68.072 53.0547 68.1845 52.9905 68.3042 52.9377C68.4227 52.8862 68.546 52.8459 68.6728 52.8195C68.7996 52.7931 68.9276 52.7793 69.0568 52.7793C69.1859 52.7793 69.3127 52.7931 69.4395 52.8195C69.5663 52.8459 69.6896 52.8862 69.8081 52.9377C69.9278 52.9905 70.0416 53.0547 70.1482 53.1314C70.2561 53.2068 70.3556 53.2936 70.4469 53.3904C70.5381 53.4872 70.6187 53.5928 70.691 53.706C70.7621 53.8204 70.8237 53.9399 70.8723 54.0669C70.9221 54.1939 70.9588 54.3234 70.9849 54.4579C71.0098 54.5924 71.0228 54.7282 71.0228 54.8653Z" fill="white"/>
</svg>
