<svg width="136" height="154" viewBox="0 0 136 154" fill="none" xmlns="http://www.w3.org/2000/svg">
<path d="M75.0933 101.111C75.7073 101.111 76.3194 100.877 76.7878 100.409L115.448 61.7504C115.896 61.3024 116.149 60.6921 116.149 60.056C116.149 59.4217 115.896 58.8115 115.448 58.3634L102.497 45.4146C102.049 44.9647 101.439 44.7121 100.805 44.7121H49.0094C48.3733 44.7121 47.7649 44.9647 47.315 45.4146L34.3662 58.3634C33.9144 58.8133 33.6618 59.4254 33.6637 60.0634C33.6655 60.6995 33.9218 61.3098 34.3735 61.7578L73.4081 100.418C73.8746 100.881 74.4849 101.111 75.0933 101.111ZM84.5316 62.4529L74.9219 91.2822L65.2844 62.4529H84.5316ZM67.7403 57.6609L74.9071 50.496L82.072 57.6609H67.7403ZM89.5817 62.4529H107.97L80.3868 90.034L89.5817 62.4529ZM80.6892 49.5022H95.0209L87.8559 56.669L80.6892 49.5022ZM61.9583 56.669L54.7915 49.5022H69.1232L61.9583 56.669ZM60.2325 62.4529L69.3149 89.6209L41.8814 62.4529H60.2325ZM107.97 57.6609H93.638L100.805 50.496L107.97 57.6609ZM49.0094 50.496L56.1743 57.6609H41.8427L49.0094 50.496ZM110.485 99.5146C107.737 98.779 104.876 99.1533 102.425 100.566L75.2666 116.245C75.1284 114.595 74.6287 112.978 73.7769 111.49C72.2484 108.816 69.7814 106.903 66.8314 106.099L36.1731 97.7538C31.96 96.607 27.428 97.7667 23.0675 101.108L15.5781 106.842L15.556 106.759C15.2665 105.677 14.5696 104.769 13.5942 104.207C12.6207 103.643 11.4868 103.494 10.4026 103.783L3.11049 105.739C2.02635 106.029 1.11921 106.726 0.556859 107.699C-0.0054925 108.675 -0.154838 109.808 0.134635 110.891L10.7087 150.359C11.212 152.236 12.9175 153.478 14.7742 153.478C15.1337 153.478 15.4988 153.43 15.862 153.334L23.156 151.38C24.2402 151.089 25.1455 150.392 25.7096 149.418C26.272 148.443 26.4213 147.309 26.1319 146.227L25.7816 144.923C29.9817 141.833 33.8554 140.968 38.5331 142.039L56.0932 146.066C57.6401 146.42 59.1465 146.597 60.6123 146.597C63.6509 146.597 66.505 145.836 69.1361 144.317L113.047 118.965C118.12 116.037 119.864 109.528 116.936 104.454C115.522 102.006 113.232 100.252 110.485 99.5146ZM15.1872 148.555L4.9137 110.216L11.0793 108.562L21.3528 146.903L15.1872 148.555ZM110.652 114.816L66.741 140.168C63.8832 141.816 60.7524 142.22 57.1645 141.396L39.6043 137.371C34.0785 136.104 29.2995 136.916 24.4669 140.011L16.9204 111.848L25.9807 104.911C29.1538 102.479 32.161 101.628 34.9156 102.378L65.5721 110.721C67.2886 111.188 68.7249 112.307 69.6192 113.868C70.5134 115.432 70.7475 117.237 70.2811 118.952C69.3094 122.519 65.6163 124.632 62.0505 123.661L45.674 119.204C44.3982 118.856 43.0817 119.61 42.7351 120.886C42.3866 122.162 43.1407 123.478 44.4166 123.827L60.793 128.283C61.7997 128.558 62.8119 128.689 63.8094 128.689C68.087 128.689 72.0714 126.277 74.0387 122.44L74.059 122.475L104.822 104.716C106.163 103.942 107.732 103.737 109.244 104.143C110.754 104.546 112.013 105.509 112.787 106.849C114.395 109.635 113.436 113.208 110.652 114.816ZM113.696 39.2601C113.035 38.1151 113.427 36.6493 114.574 35.9892L124.361 30.3362C125.508 29.6761 126.972 30.0688 127.634 31.2138C128.295 32.3588 127.903 33.8246 126.758 34.4865L116.969 40.1377C116.591 40.3553 116.18 40.4585 115.773 40.4585C114.947 40.4585 114.141 40.0289 113.696 39.2601ZM135.79 61.6564C135.79 62.9784 134.719 64.0515 133.395 64.0515H122.093C120.771 64.0515 119.698 62.9784 119.698 61.6564C119.698 60.3326 120.771 59.2613 122.093 59.2613H133.395C134.719 59.2613 135.79 60.3326 135.79 61.6564ZM127.634 92.099C127.191 92.8678 126.385 93.2974 125.557 93.2974C125.152 93.2974 124.739 93.1923 124.361 92.9748L114.574 87.3236C113.427 86.6617 113.035 85.1977 113.696 84.0527C114.358 82.9059 115.822 82.5132 116.969 83.1751L126.758 88.8263C127.903 89.4882 128.295 90.9521 127.634 92.099ZM22.1788 31.2138C22.8407 30.067 24.3065 29.6761 25.4515 30.3362L35.2383 35.9892C36.3851 36.6493 36.7778 38.1151 36.1159 39.2601C35.6716 40.0289 34.8677 40.4585 34.0398 40.4585C33.6323 40.4585 33.2212 40.3553 32.8432 40.1377L23.0546 34.4865C21.9096 33.8246 21.5169 32.3588 22.1788 31.2138ZM14.022 61.6564C14.022 60.3326 15.095 59.2613 16.417 59.2613H27.7194C29.0432 59.2613 30.1144 60.3326 30.1144 61.6564C30.1144 62.9784 29.0432 64.0515 27.7194 64.0515H16.417C15.0932 64.0515 14.022 62.9784 14.022 61.6564ZM72.5102 14.4686V3.1663C72.5102 1.84432 73.5833 0.77124 74.9071 0.77124C76.2291 0.77124 77.3022 1.84432 77.3022 3.1663V14.4686C77.3022 15.7925 76.2291 16.8656 74.9071 16.8656C73.5833 16.8656 72.5102 15.7925 72.5102 14.4686ZM96.4258 19.5943L102.077 9.80574C102.737 8.65891 104.203 8.26803 105.348 8.9281C106.495 9.59002 106.887 11.0558 106.225 12.2008L100.574 21.9894C100.13 22.7564 99.3242 23.186 98.4964 23.186C98.0907 23.186 97.6796 23.0828 97.3016 22.8652C96.1566 22.2051 95.7639 20.7393 96.4258 19.5943ZM36.1159 84.0527C36.7778 85.1977 36.3851 86.6617 35.2383 87.3236L25.4515 92.9748C25.0735 93.1923 24.6624 93.2974 24.2549 93.2974C23.4271 93.2974 22.6232 92.8678 22.1788 92.099C21.5169 90.9521 21.9096 89.4882 23.0546 88.8263L32.8432 83.1751C33.9882 82.515 35.454 82.9059 36.1159 84.0527ZM43.5869 12.2008C42.925 11.0558 43.3177 9.59002 44.4645 8.9281C45.6095 8.26803 47.0753 8.65891 47.7354 9.80574L53.3866 19.5943C54.0485 20.7393 53.6558 22.2033 52.5108 22.8652C52.1328 23.0828 51.7216 23.186 51.316 23.186C50.4863 23.186 49.6824 22.7564 49.2381 21.9894L43.5869 12.2008Z" fill="white"/>
</svg>
