<svg width="134" height="136" viewBox="0 0 134 136" fill="none" xmlns="http://www.w3.org/2000/svg">
<path d="M52.6865 21.1382L82.6801 38.4544L112.674 21.1382L82.6801 3.8219L52.6865 21.1382ZM82.6801 41.9076C82.4003 41.9076 82.127 41.8393 81.8749 41.6912L48.6754 22.5289C48.1793 22.2393 47.8751 21.7123 47.8751 21.1382C47.8751 20.564 48.1793 20.0321 48.6754 19.7491L81.8749 0.580181C82.3743 0.290656 82.9858 0.290656 83.4803 0.580181L116.68 19.7491C117.174 20.0321 117.485 20.564 117.485 21.1382C117.485 21.7123 117.174 22.2393 116.68 22.5289L83.4803 41.6912C83.2331 41.8393 82.9533 41.9076 82.6801 41.9076Z" fill="white"/>
<path d="M82.6801 80.2456C82.4003 80.2456 82.127 80.1724 81.8749 80.0309L48.6754 60.862C48.1793 60.5773 47.8751 60.0455 47.8751 59.4713V21.1384C47.8751 20.2486 48.5908 19.533 49.4805 19.533C50.3654 19.533 51.0811 20.2486 51.0811 21.1384V58.5442L82.6801 76.7875L114.274 58.5442V21.1384C114.274 20.2486 114.995 19.533 115.88 19.533C116.764 19.533 117.485 20.2486 117.485 21.1384V59.4713C117.485 60.0455 117.174 60.5773 116.68 60.862L83.4803 80.0309C83.2331 80.1724 82.9533 80.2456 82.6801 80.2456Z" fill="white"/>
<path d="M82.68 67.3731C81.7903 67.3731 81.0746 66.6526 81.0746 65.7677V40.3024C81.0746 39.4176 81.7903 38.7019 82.68 38.7019C83.5648 38.7019 84.2854 39.4176 84.2854 40.3024V65.7677C84.2854 66.6526 83.5648 67.3731 82.68 67.3731Z" fill="white"/>
<path d="M78.1468 111.581H70.5866C69.7018 111.581 68.9812 110.86 68.9812 109.975C68.9812 109.091 69.7018 108.37 70.5866 108.37H78.1468C85.0694 108.37 91.7562 106.317 97.4849 102.432L99.7686 100.878C101.037 100.021 101.491 98.3668 100.858 97.046L100.832 97.0249C98.495 94.8616 94.9735 96.0132 91.2406 97.2298C90.6355 97.4299 90.0353 97.6251 89.44 97.804C80.263 100.605 72.8248 97.2461 72.5141 97.0981C72.4507 97.0721 72.3921 97.0347 72.3352 97.0037C54.9034 86.0684 38.5973 84.8209 26.416 93.492C25.6938 94.0076 24.6935 93.8401 24.1779 93.1179C23.6671 92.3974 23.8363 91.397 24.5569 90.8814C37.8344 81.4198 55.3719 82.6104 73.9357 94.224C74.6985 94.5444 81.0112 97.0249 88.508 94.7347C89.0821 94.5607 89.6612 94.372 90.2451 94.1817C94.4888 92.7975 99.2952 91.2279 103.012 94.6713C103.186 94.829 103.275 94.9185 103.275 94.9185C103.381 95.0194 103.471 95.1397 103.544 95.2617C105.144 98.061 104.281 101.695 101.569 103.538L99.2855 105.084C93.0249 109.333 85.7119 111.581 78.1468 111.581Z" fill="white"/>
<path d="M74.8872 126.482C74.056 126.482 73.2183 126.454 72.3872 126.407C42.7937 124.722 25.4888 122.921 25.3197 122.902C24.4364 122.811 23.7988 122.022 23.8932 121.142C23.9826 120.259 24.7829 119.621 25.6515 119.711C25.8255 119.732 43.0572 121.527 72.571 123.206C80.1003 123.632 87.6767 121.963 94.4676 118.383L128.456 99.2941C129.656 98.6207 130.336 97.2983 130.188 95.9304C130.03 94.5088 129.404 92.7603 125.93 91.8656C123.55 91.2492 120.043 92.7602 117.233 93.9769L116.437 94.3185L108.03 98.1571C107.218 98.5247 106.271 98.1718 105.902 97.3666C105.535 96.5615 105.886 95.6083 106.693 95.2407L115.958 91.028C119.222 89.6178 123.287 87.8692 126.735 88.7589C131.746 90.0488 133.111 93.1815 133.375 95.5823C133.664 98.2303 132.353 100.784 130.03 102.09L96.0047 121.2C89.4139 124.675 82.1692 126.482 74.8872 126.482Z" fill="white"/>
<path d="M21.3931 135.141H2.4975C1.60777 135.141 0.89209 134.426 0.89209 133.536C0.89209 132.651 1.60777 131.935 2.4975 131.935H21.3931C22.5138 131.935 23.4198 131.025 23.4198 129.902V82.2719C23.4198 81.1561 22.5138 80.2452 21.3931 80.2452H2.4975C1.60777 80.2452 0.89209 79.5247 0.89209 78.6398C0.89209 77.755 1.60777 77.0393 2.4975 77.0393H21.3931C24.2835 77.0393 26.6306 79.388 26.6306 82.2719V129.902C26.6306 132.793 24.2835 135.141 21.3931 135.141Z" fill="white"/>
</svg>
