<svg width="91" height="135" viewBox="0 0 91 135" fill="none" xmlns="http://www.w3.org/2000/svg">
<mask id="mask0_615_4708" style="mask-type:luminance" maskUnits="userSpaceOnUse" x="0" y="0" width="91" height="135">
<path d="M0.795776 0.461182H90.2484V134.64H0.795776V0.461182Z" fill="white"/>
</mask>
<g mask="url(#mask0_615_4708)">
<path d="M50.4868 99.143C50.8589 98.745 51.3135 98.3892 51.8522 98.0786L54.0312 98.5978C54.9484 98.8227 55.602 99.0524 55.9919 99.2854C56.3801 99.5183 56.5759 99.9648 56.5759 100.623C56.5759 101.282 56.2539 101.765 55.6149 102.078C54.9727 102.391 54.2221 102.547 53.355 102.547C52.1401 102.547 51.2682 102.354 50.7311 101.963C50.1924 101.574 49.9255 101.112 49.9255 100.575C49.9255 100.021 50.1131 99.5442 50.4868 99.143ZM52.7322 72.7857C52.1433 72.7857 51.7373 73.0106 51.5124 73.4603C51.2876 73.91 51.1743 74.4665 51.1743 75.1217V83.4335C51.1743 84.1954 51.2957 84.7681 51.5383 85.1482C51.7794 85.5284 52.1773 85.7177 52.7338 85.7177C53.2887 85.7177 53.6866 85.5284 53.9293 85.1482C54.1736 84.7681 54.2933 84.1954 54.2933 83.4335V75.1217C54.2933 74.4293 54.1817 73.868 53.9568 73.4344C53.7271 73.0025 53.3194 72.7857 52.7322 72.7857ZM90.2549 45.7507V120.608C90.2549 128.208 84.093 134.369 76.493 134.369H13.6387C6.5451 134.369 0.795776 128.619 0.795776 121.529V45.7507C0.795776 38.6554 6.5451 32.9077 13.6387 32.9077H35.8789V19.9062H23.3919C18.631 19.9062 14.7679 16.0464 14.7679 11.2822V9.24068C14.7679 4.47978 18.631 0.616699 23.3919 0.616699H67.6555C72.4197 0.616699 76.2827 4.47978 76.2827 9.24068V11.2822C76.2827 16.0447 72.4229 19.9062 67.6588 19.9062H55.1717V32.9077H77.4119C84.5023 32.9077 90.2549 38.6554 90.2549 45.7507ZM44.0564 96.786L39.2794 77.6211L43.3317 68.3759H38.3459L35.8013 75.8011L35.4891 76.7378H35.2286V58.6082H29.984V96.786H35.2286V86.9698L36.0617 84.891H36.1119L36.162 85.3052L38.7601 96.7844V96.786H44.0564ZM59.1707 73.2549C59.4829 73.064 59.8986 72.9119 60.4163 72.8003C60.9388 72.6871 61.5438 72.6321 62.2362 72.6321H62.2313V67.9601C61.5568 67.9601 60.7948 68.1834 59.9455 68.625C59.0979 69.065 58.4249 69.7105 57.9218 70.5582C57.4349 69.8496 56.7732 69.2397 55.9336 68.7285C55.094 68.2173 54.0069 67.9634 52.6756 67.9634C50.6162 67.9634 48.9921 68.6315 47.8063 69.9758C46.6221 71.3152 46.0284 73.051 46.0284 75.1799V82.919C46.0284 84.3912 46.2921 85.6319 46.8195 86.6462C47.3468 87.6589 48.0878 88.4775 49.0406 89.1019C48.2431 89.5193 47.4989 90.0612 46.8065 90.739C46.1142 91.412 45.768 92.2872 45.768 93.3597C45.768 94.4678 46.085 95.3155 46.7159 95.9044C47.3468 96.4932 48.0878 96.9073 48.9354 97.15C48.5375 97.2551 48.0101 97.5172 47.3517 97.9427C46.6949 98.3649 46.1109 98.9165 45.5997 99.5895C45.0885 100.264 44.8346 101.062 44.8346 101.979C44.8346 103.173 45.2309 104.138 46.0171 104.873C46.8033 105.609 47.8386 106.141 49.1199 106.47C50.4011 106.8 51.7794 106.965 53.2499 106.965C54.722 106.965 56.1229 106.706 57.4591 106.186C58.7905 105.667 59.876 104.871 60.7172 103.799C61.5568 102.723 61.9758 101.356 61.9758 99.6946C61.9758 97.5657 61.2785 96.0144 59.8841 95.0454C58.4912 94.0763 56.6778 93.4277 54.4437 93.0976C53.3874 92.9423 52.5413 92.7482 51.9104 92.5153C51.2795 92.2791 50.964 91.886 50.964 91.3327C50.964 91.0917 51.0271 90.8668 51.1582 90.6581C51.2876 90.4495 51.4671 90.244 51.6904 90.0353C51.8651 90.0693 52.1935 90.0855 52.6788 90.0855C54.722 90.0855 56.3558 89.419 57.5869 88.0844C58.8148 86.7498 59.4295 85.0803 59.4295 83.0727V75.023C59.4295 74.7286 59.4004 74.3889 59.3389 74.0087C59.2774 73.6269 59.2208 73.3746 59.1707 73.2549Z" fill="white"/>
</g>
</svg>
