<svg width="1210" height="237" viewBox="0 0 1210 237" fill="none" xmlns="http://www.w3.org/2000/svg">
<g opacity="0.4">
<mask id="mask0_1593_1883" style="mask-type:luminance" maskUnits="userSpaceOnUse" x="794" y="54" width="416" height="183">
<path d="M794.886 54.1174L1210 54.1175L1210 236.5L794.886 236.5L794.886 54.1174Z" fill="white"/>
</mask>
<g mask="url(#mask0_1593_1883)">
<mask id="mask1_1593_1883" style="mask-type:luminance" maskUnits="userSpaceOnUse" x="739" y="-6" width="480" height="243">
<path d="M1216.18 110.468L1066.17 -4.84875C1065.13 -5.64816 1063.53 -5.90237 1062.14 -5.48828C1060.74 -5.07578 1059.83 -4.07971 1059.83 -2.97332L1059.83 43.4214C1059.83 45.2121 1058.86 46.9292 1057.14 48.1955C1055.42 49.4617 1053.09 50.1716 1050.66 50.1716L748.646 50.1716C746.214 50.1716 743.882 50.8831 742.165 52.1493C740.445 53.4156 739.479 55.1327 739.479 56.9234L739.479 173.762C739.479 175.553 740.445 177.27 742.165 178.536C743.882 179.801 746.214 180.513 748.646 180.513L1050.66 180.513C1053.09 180.513 1055.42 181.224 1057.14 182.49C1058.86 183.757 1059.83 185.472 1059.83 187.263L1059.83 233.658C1059.83 234.766 1060.74 235.762 1062.14 236.174C1063.53 236.587 1065.13 236.334 1066.17 235.533L1216.18 120.218C1219.72 117.492 1219.72 113.193 1216.18 110.468Z" fill="white"/>
</mask>
<g mask="url(#mask1_1593_1883)">
<path d="M739.479 -9.72363L1222.51 -9.72359L1222.51 240.408L739.478 240.408L739.479 -9.72363Z" fill="#3C8892"/>
</g>
</g>
</g>
<rect opacity="0.4" y="54.5002" width="795" height="127" fill="#3C8892"/>
<path opacity="0.4" d="M1069.66 2.23364L1143.5 54.5002L1066.5 54.5002V3.86611C1066.5 2.24331 1068.33 1.29611 1069.66 2.23364Z" fill="#3C8892"/>
</svg>
