<svg width="901" height="108" viewBox="0 0 901 108" fill="none" xmlns="http://www.w3.org/2000/svg">
<g opacity="0.59" clip-path="url(#clip0_2553_1542)">
<mask id="mask0_2553_1542" style="mask-type:luminance" maskUnits="userSpaceOnUse" x="0" y="0" width="901" height="108">
<path d="M900.869 17.1247L1.71533 0L3.03742e-06 90.0655L899.154 107.19L900.869 17.1247Z" fill="white"/>
</mask>
<g mask="url(#mask0_2553_1542)">
<path d="M187.662 27.6285C178.727 27.4583 171.349 34.2907 171.186 42.8808C171.022 51.4708 178.134 58.5792 187.07 58.7494C196.005 58.9195 203.383 52.0871 203.546 43.4971C203.71 34.907 196.598 27.7986 187.662 27.6285ZM187.222 50.7522C182.875 50.6694 179.407 47.2182 179.487 43.0244C179.567 38.8306 183.164 35.5139 187.51 35.5967C191.857 35.6795 195.325 39.1307 195.245 43.3245C195.165 47.5183 191.569 50.835 187.222 50.7522Z" fill="white"/>
<path d="M454.951 28.8853C446.016 28.7151 438.638 35.5475 438.475 44.1231C438.312 52.6987 445.423 59.8216 454.359 59.9917C463.294 60.1619 470.672 53.3295 470.836 44.7394C470.999 36.1494 463.887 29.0555 454.951 28.8853ZM454.511 52.0091C450.164 51.9263 446.697 48.4606 446.776 44.2812C446.856 40.1019 450.453 36.7707 454.8 36.8535C459.146 36.9363 462.614 40.3875 462.534 44.5813C462.454 48.7751 458.858 52.0918 454.511 52.0091Z" fill="white"/>
<path d="M674.888 64.3365C665.953 64.1663 658.575 70.9987 658.411 79.5888C658.248 88.1788 665.36 95.2727 674.296 95.4429C683.231 95.6131 690.609 88.7807 690.772 80.2051C690.935 71.6295 683.823 64.5067 674.888 64.3365ZM674.448 87.4602C670.101 87.3774 666.633 83.9262 666.713 79.7324C666.793 75.5386 670.389 72.2219 674.736 72.3047C679.083 72.3875 682.551 75.8387 682.471 80.0325C682.391 84.2263 678.795 87.543 674.448 87.4602Z" fill="white"/>
</g>
<mask id="mask1_2553_1542" style="mask-type:luminance" maskUnits="userSpaceOnUse" x="0" y="0" width="901" height="108">
<path d="M900.869 17.1247L1.71533 0L3.03742e-06 90.0655L899.154 107.19L900.869 17.1247Z" fill="white"/>
</mask>
<g mask="url(#mask1_2553_1542)">
<path d="M84.4114 23.8537L83.3246 23.833C78.0551 23.8339 72.8129 23.98 67.7791 24.2892C65.8441 24.4114 64.3639 26.018 64.4947 27.8722C64.6121 29.6394 66.1263 30.9991 67.9375 31.0336C68.028 31.0353 68.1337 31.0374 68.2394 31.0394C73.122 30.7418 78.1981 30.5925 83.3162 30.6177L84.3879 30.6381C86.3358 30.6318 87.9045 29.1282 87.9249 27.2624C87.9454 25.3966 86.3135 23.8754 84.4265 23.854" fill="white"/>
<path d="M117.531 25.844C111.714 25.2413 106.318 24.7769 101.024 24.4446C99.0634 24.3349 97.4211 25.7359 97.295 27.5997C97.1689 29.4634 98.6482 31.0685 100.579 31.192C105.766 31.5223 111.058 31.9703 116.769 32.5565C116.875 32.5585 116.98 32.5605 117.086 32.5625C118.882 32.5967 120.447 31.31 120.646 29.5489C120.848 27.6866 119.46 26.0254 117.531 25.8151" fill="white"/>
<path d="M150.213 30.1844C144.01 29.2416 138.831 28.492 133.921 27.8198C132.009 27.5519 130.217 28.8487 129.956 30.6955C129.694 32.5422 131.036 34.2459 132.963 34.5141C137.828 35.1709 142.962 35.9197 149.135 36.8619C149.3 36.894 149.466 36.8971 149.617 36.9C151.353 36.9331 152.871 35.7323 153.16 34.0452C153.466 32.1993 152.156 30.4673 150.229 30.1702" fill="white"/>
<path d="M18.6936 33.7263C13.3429 35.6064 8.16786 37.7791 3.27491 40.2031C1.55253 41.0527 0.864399 43.0939 1.75371 44.76C2.36588 45.9145 3.56125 46.5738 4.81401 46.5977C5.37247 46.6083 5.94851 46.4891 6.48201 46.2244C11.1156 43.9401 16.0319 41.8782 21.1089 40.0943C22.9331 39.4491 23.8759 37.514 23.1998 35.7507C22.5235 34.0018 20.5024 33.0953 18.6933 33.7408" fill="white"/>
<path d="M51.1686 25.955C45.5368 26.7447 40.0207 27.7969 34.7425 29.0418C32.8618 29.4834 31.7096 31.3132 32.1733 33.1303C32.5673 34.6424 33.9668 35.6817 35.5214 35.7113C35.8233 35.717 36.126 35.6794 36.4292 35.6128C41.4799 34.4215 46.7836 33.423 52.2036 32.6583C54.1263 32.3911 55.4425 30.6657 55.1605 28.8231C54.8786 26.9804 53.0759 25.702 51.1684 25.9694" fill="white"/>
<path d="M363.061 40.6472C358.213 41.5386 353.074 42.5836 346.903 43.9272C345.008 44.3396 343.826 46.1543 344.259 47.9709C344.622 49.5258 346.037 50.5798 347.622 50.61C347.893 50.6152 348.181 50.5917 348.469 50.5249C354.579 49.1946 359.641 48.1771 364.415 47.2843C366.324 46.93 367.566 45.1598 367.193 43.3299C366.82 41.5 364.986 40.2933 363.076 40.6475" fill="white"/>
<path d="M396.056 36.5014C390.736 36.7762 385.306 37.2659 379.433 38.0366C377.511 38.2893 376.165 39.9852 376.431 41.842C376.671 43.5102 378.143 44.739 379.848 44.7714C380.03 44.7749 380.211 44.7783 380.393 44.7384C386.069 44.0074 391.317 43.5143 396.441 43.2647C398.375 43.1713 399.87 41.5795 399.77 39.7114C399.67 37.8433 398.021 36.4086 396.071 36.5162" fill="white"/>
<path d="M330.891 47.4993C327.585 48.2465 324.264 48.9934 320.959 49.7116C318.972 50.1512 316.956 50.5757 314.955 50.9861C313.06 51.384 311.848 53.1837 312.267 55C312.614 56.5546 314.043 57.6379 315.643 57.6683C315.915 57.6735 316.187 57.6497 316.46 57.5971C318.491 57.1728 320.523 56.7341 322.539 56.2951C325.86 55.5772 329.181 54.8303 332.517 54.0837C334.412 53.6569 335.579 51.8418 335.131 50.0105C334.682 48.1936 332.802 47.0583 330.891 47.4849" fill="white"/>
<path d="M425.535 37.7714C421.425 37.1578 417.16 36.7294 412.846 36.5026C410.901 36.3932 409.243 37.8227 409.147 39.6871C409.036 41.5512 410.53 43.142 412.461 43.2511C416.549 43.4737 420.587 43.8833 424.472 44.4636C424.623 44.481 424.788 44.4986 424.939 44.5015C426.675 44.5345 428.208 43.3196 428.482 41.6322C428.774 39.786 427.463 38.054 425.535 37.7714Z" fill="white"/>
<path d="M266.915 57.0877C261.387 57.1705 256 56.9811 250.921 56.5082C248.991 56.3268 247.275 57.6829 247.088 59.5455C246.902 61.4082 248.32 63.0554 250.249 63.2369C253.776 63.5789 257.471 63.7795 261.199 63.8505C263.116 63.887 265.079 63.8954 267.042 63.8605C268.991 63.8253 270.53 62.2922 270.49 60.4252C270.45 58.5583 268.803 57.0513 266.914 57.1021" fill="white"/>
<path d="M235.251 53.9528C230.035 52.725 224.993 51.0955 220.259 49.1247C218.477 48.3819 216.408 49.1671 215.636 50.8884C214.863 52.5952 215.686 54.5928 217.469 55.3356C222.562 57.4579 227.995 59.1961 233.571 60.5175C233.827 60.5803 234.098 60.5999 234.339 60.6045C235.954 60.6353 237.424 59.5927 237.816 58.0378C238.273 56.2237 237.115 54.3933 235.236 53.9525" fill="white"/>
<path d="M298.999 53.9659C293.319 54.8993 288.082 55.5952 282.968 56.1199C281.032 56.3145 279.641 57.9806 279.847 59.8363C280.041 61.547 281.527 62.8339 283.278 62.8673C283.429 62.8701 283.564 62.8727 283.716 62.8467C288.981 62.3104 294.354 61.6026 300.186 60.6432C302.094 60.3323 303.381 58.5774 303.053 56.7484C302.726 54.9049 300.907 53.6695 298.999 53.9804" fill="white"/>
<path d="M498.12 53.4469C493.318 51.9088 488.076 50.4346 482.109 48.99C480.231 48.5347 478.307 49.6265 477.835 51.4403C477.363 53.2541 478.505 55.0842 480.384 55.554C486.185 56.9664 491.247 58.3648 495.884 59.8709C496.229 59.9787 496.59 60.0435 496.937 60.0501C498.432 60.0785 499.838 59.1795 500.333 57.7422C500.956 55.9747 499.95 54.0604 498.105 53.4611" fill="white"/>
<path d="M587.618 91.9695C582.839 90.7935 577.902 89.1949 572.521 87.0961C570.723 86.3963 568.669 87.2252 567.941 88.9474C567.214 90.6695 568.082 92.6535 569.881 93.3532C575.561 95.5735 580.783 97.2643 585.878 98.5187C586.148 98.5817 586.42 98.6158 586.691 98.621C588.291 98.6514 589.745 97.6231 590.167 96.0832C590.639 94.2838 589.512 92.4396 587.633 91.9698" fill="white"/>
<path d="M649.386 86.5201C644.635 88.6286 639.65 90.3564 634.537 91.6623C632.655 92.1473 631.548 93.9924 632.042 95.7956C632.452 97.2935 633.852 98.2894 635.376 98.3185C635.693 98.3245 636.026 98.2874 636.345 98.2067C641.838 96.7923 647.218 94.9418 652.334 92.6667C654.101 91.8902 654.864 89.8794 654.05 88.1858C653.237 86.4922 651.137 85.7578 649.386 86.5346" fill="white"/>
</g>
<mask id="mask2_2553_1542" style="mask-type:luminance" maskUnits="userSpaceOnUse" x="598" y="93" width="25" height="9">
<path d="M622.949 94.3634L598.331 93.8945L598.191 101.255L622.809 101.724L622.949 94.3634Z" fill="white"/>
</mask>
<g mask="url(#mask2_2553_1542)">
<path d="M618.994 94.3172C615.5 94.6268 611.965 94.7475 608.478 94.6811L608.448 94.6805C606.697 94.6472 604.932 94.5701 603.183 94.4356C601.223 94.2825 599.566 95.6831 599.409 97.5464C599.253 99.4096 600.717 101.029 602.647 101.181C604.516 101.318 606.432 101.413 608.304 101.448L608.334 101.449C612.077 101.52 615.885 101.39 619.636 101.056C621.571 100.891 622.992 99.2396 622.801 97.3843C622.625 95.5292 620.899 94.1654 618.963 94.3311" fill="white"/>
</g>
<mask id="mask3_2553_1542" style="mask-type:luminance" maskUnits="userSpaceOnUse" x="0" y="-19" width="903" height="133">
<path d="M902.006 -1.19268L2.85223 -18.3174L0.664026 96.5771L899.818 113.702L902.006 -1.19268Z" fill="white"/>
</mask>
<g mask="url(#mask3_2553_1542)">
<path d="M558.586 81.6247C555.675 79.8714 552.78 78.0815 549.87 76.2914C547.9 75.0727 545.93 73.8541 543.96 72.6539C542.228 71.606 540.113 72.47 539.242 74.6126C538.355 76.7549 539.061 79.3336 540.793 80.3815C542.748 81.5814 544.703 82.7813 546.658 83.9997C549.583 85.8086 552.508 87.599 555.449 89.3713C555.927 89.6572 556.437 89.7961 556.935 89.8056C558.264 89.8309 559.534 88.9324 560.168 87.3758C561.039 85.2332 560.318 82.6542 558.586 81.6063" fill="white"/>
<path d="M529.3 63.8859C527.852 62.9909 526.465 62.0971 525.093 61.2221C521.587 58.9961 518.275 56.8846 514.601 54.7846C512.853 53.7916 510.752 54.7113 509.925 56.8916C509.099 59.0536 509.835 61.6143 511.598 62.626C515.138 64.6312 518.39 66.7047 521.821 68.8923C523.209 69.7677 524.611 70.6618 526.073 71.5754C526.566 71.8801 527.091 72.0377 527.604 72.0475C528.902 72.0722 530.172 71.2106 530.805 69.6909C531.691 67.567 531.016 64.9705 529.3 63.8859Z" fill="white"/>
<path d="M743.336 42.8821C738.556 44.9503 733.62 47.237 727.829 50.061C726.015 50.9492 725.122 53.442 725.819 55.6698C726.346 57.3408 727.64 58.362 729.014 58.3882C729.467 58.3968 729.921 58.2947 730.363 58.0817C736.078 55.3116 740.923 53.0601 745.627 51.0274C747.454 50.2317 748.437 47.7591 747.8 45.5324C747.163 43.2872 745.163 42.1049 743.321 42.9003" fill="white"/>
<path d="M841.32 23.5072L841.26 23.506C835.612 23.5092 830.038 23.6614 824.703 23.9289C822.768 24.0397 821.25 26.0408 821.311 28.4226C821.373 30.7122 822.894 32.5128 824.735 32.5479C824.811 32.5493 824.871 32.5505 824.946 32.5519C830.176 32.2824 835.645 32.1282 841.201 32.1233C843.149 32.1235 844.726 30.1973 844.741 27.8169C844.756 25.455 843.222 23.5434 841.305 23.5069" fill="white"/>
<path d="M712.539 57.6683L712.417 57.7214C707.539 60.1752 702.492 62.7366 697.341 65.2406C695.527 66.1288 694.634 68.6401 695.347 70.8498C695.874 72.5208 697.168 73.542 698.541 73.5681C698.994 73.5767 699.449 73.4747 699.891 73.2616C705.088 70.7216 710.15 68.179 715.043 65.7069L715.165 65.6539C716.964 64.747 717.843 62.217 717.115 60.0254C716.387 57.8154 714.338 56.7799 712.539 57.6868" fill="white"/>
<path d="M874.414 29.212C874.55 26.834 873.079 24.7944 871.149 24.6469C866.61 24.3205 862.116 24.0504 857.801 23.8575L857.726 23.8561C855.809 23.8195 854.204 25.6713 854.129 28.0137C854.053 30.3929 855.555 32.3962 857.486 32.4699C861.741 32.6432 866.175 32.9122 870.668 33.2376L870.834 33.2408C872.706 33.2765 874.295 31.4982 874.414 29.1936" fill="white"/>
<path d="M808.159 25.3116C802.56 25.9616 797.003 26.797 791.668 27.8026C789.744 28.1536 788.419 30.3613 788.691 32.7103C788.938 34.8188 790.404 36.3416 792.079 36.3735C792.275 36.3772 792.472 36.3625 792.669 36.3293C797.866 35.358 803.287 34.5385 808.75 33.9043C810.687 33.6828 812.116 31.5693 811.95 29.2039C811.784 26.8386 810.081 25.0898 808.144 25.3113" fill="white"/>
<path d="M775.306 31.5328C769.872 32.9979 764.601 34.6508 759.159 36.5956C757.289 37.2613 756.202 39.6581 756.732 41.9381C757.165 43.7919 758.53 45.0174 760.04 45.0462C760.387 45.0528 760.735 45.0041 761.085 44.8631C766.375 42.9892 771.494 41.3704 776.776 39.9392C778.673 39.4217 779.895 37.1197 779.486 34.7866C779.078 32.472 777.218 30.9971 775.306 31.5143" fill="white"/>
</g>
</g>
<defs>
<clipPath id="clip0_2553_1542">
<rect width="899.317" height="90.0818" fill="white" transform="translate(1.71533) rotate(1.09109)"/>
</clipPath>
</defs>
</svg>
