<?xml version="1.0" encoding="UTF-8"?>
<svg id="Capa_2" data-name="Capa 2" xmlns="http://www.w3.org/2000/svg" viewBox="0 0 340.33 307.87">
  <defs>
    <style>
      .cls-1 {
        fill: #034e61;
      }
    </style>
  </defs>
  <g id="Capa_1-2" data-name="Capa 1">
    <g>
      <g>
        <path class="cls-1" d="M334.93,56.89c-5.8-6.68-12.39-12.07-20.41-17.46-17.64-11.86-54.29-26.63-82.58-32.12-5.63-1.09-7.18-.92-8.85,4.78-2.17,7.4-4.33,14.8-6.57,22.17-4.32,14.25-5.56,16.02,8.42,18.42,20.78,3.56,47.93,13.32,62.08,25.27,2.45,2.07,4.34,2.43,3.01,5.89-16.72,43.41-37.81,84.21-68.57,118-14.07,15.45-24.93,25.36-51.44,46.27-5.45,4.3-6.2,6.17-1.51,11.13,5.82,6.15,11.57,12.38,17.49,18.4,6.87,6.99,5.72,10.54,13.52,5.14,24.69-17.11,29.7-25.62,45.64-42.9,36.33-39.39,63.53-85.12,82.34-136.54,4.28-11.71,8.36-26.75,12.81-39.72-1.63-3.26-3.1-4.09-5.4-6.73Z"/>
        <path class="cls-1" d="M245.15,115.95c3.14-6.39,2.61-8.31-3.47-11.14-7.66-3.56-15.34-7.06-23-10.61-7.06-3.27-7.62-3.05-11.33,4.35-12.63,25.13-28.11,48-47.51,67.73-13.18,13.41-27.29,25.51-42.13,36.56-6.92-9.98-14.25-20.55-20.25-29.19,16.84-13.27,32.37-28.22,46.57-44.91,28.93-34,48.08-73.17,55.08-118.75,1-6.54-.38-8.47-6.57-8.82-6-.35-11.99-.91-17.99-1.09C114.77-1.66,56.01,22.3,6.51,56.89-3,63.53-.02,63.65,2.59,70.6c3.37,9,6.79,17.97,10.2,26.95,5.03,13.24,5.97,13.54,16.2,3.94,31.08-29.15,71.9-49.06,113.92-52.16-4.54,8.74-8.61,17.82-13.72,26.17-19.87,32.5-47.68,55.66-78.75,74.84-6.19,3.82-7.24,5.16-4.44,10.4h0s0,0,0,0c.03,.06,.06,.12,.1,.18,2.66,5.01,17.98,31.55,28.59,47.52,10.6,15.97,28.92,38.89,36.14,47.1,1.4,1.59,3.77,3.72,5.33,3.59s3.12-1.38,4.29-2.23c7.21-5.25,14.4-10.53,21.53-15.9,43.72-32.93,78.31-74.43,103.19-125.06Z"/>
      </g>
      <path class="cls-1" d="M252.85,137.61c.26,2.34-2.25,3.63-4.51,2.33l-30.47-17.55-30.47-17.55c-2.27-1.31-2.59-4.23-.59-5.27l26.96-13.92,26.96-13.92c2.01-1.04,4.84,.6,5.1,2.94l3.51,31.47,3.51,31.47Z"/>
      <path class="cls-1" d="M153.26,240.7c.34-2.33,3.07-2.82,4.92-.88l24.74,26.11,24.74,26.11c1.84,1.94,1.41,4.86-.77,5.25l-29.37,5.27-29.37,5.27c-2.18,.39-4.48-2.04-4.14-4.37l4.63-31.38,4.63-31.38Z"/>
    </g>
  </g>
</svg>