<svg width="90" height="89" viewBox="0 0 90 89" fill="none" xmlns="http://www.w3.org/2000/svg">
<g clip-path="url(#clip0_1593_1801)">
<mask id="mask0_1593_1801" style="mask-type:luminance" maskUnits="userSpaceOnUse" x="0" y="0" width="90" height="89">
<path d="M89.9999 0.0761719H0.0439453V89.0001H89.9999V0.0761719Z" fill="white"/>
</mask>
<g mask="url(#mask0_1593_1801)">
<path fill-rule="evenodd" clip-rule="evenodd" d="M39.4011 61.2181H28.1593V72.3309H61.8956V61.2181H50.6538V16.7562H39.4121C39.4121 22.8998 34.3742 27.869 28.1703 27.869V38.9817C32.2622 38.9817 36.1121 37.8944 39.4121 36.0024V61.2073L39.4011 61.2181ZM89.9999 44.549C89.9999 69.1015 69.8594 89.0109 45.0219 89.0109C20.1845 89.0109 0.0439453 69.1015 0.0439453 44.5381C0.0439453 19.9748 20.1845 0.0761719 45.0219 0.0761719C69.8594 0.0761719 89.9999 19.9856 89.9999 44.5381V44.549Z" fill="#FFE67B"/>
</g>
</g>
<defs>
<clipPath id="clip0_1593_1801">
<rect width="90" height="89" fill="white"/>
</clipPath>
</defs>
</svg>
