<svg width="92" height="87" viewBox="0 0 92 87" fill="none" xmlns="http://www.w3.org/2000/svg">
<g clip-path="url(#clip0_1593_1793)">
<mask id="mask0_1593_1793" style="mask-type:luminance" maskUnits="userSpaceOnUse" x="0" y="0" width="92" height="87">
<path d="M92.0001 0.052002H0.1875V86.6943H92.0001V0.052002Z" fill="white"/>
</mask>
<g mask="url(#mask0_1593_1793)">
<path fill-rule="evenodd" clip-rule="evenodd" d="M46.0938 43.368C50.8454 43.368 54.704 47.0088 54.704 51.4923C54.704 55.9758 50.8454 59.6167 46.0938 59.6167C41.3422 59.6167 37.4836 55.9758 37.4836 51.4923H26.007C26.007 61.9572 35.0031 70.4456 46.0938 70.4456C57.1845 70.4456 66.1806 61.9572 66.1806 51.4923C66.1806 43.0143 60.2824 35.8366 52.1353 33.4128L63.3031 26.6304V16.3007H28.8844V27.1297H46.5899L34.6282 34.3906V43.3784H46.1048L46.0938 43.368ZM46.0938 86.6839C71.4503 86.6839 92.0001 67.2937 92.0001 43.368C92.0001 19.4422 71.4503 0.052002 46.0938 0.052002C20.7373 0.052002 0.1875 19.4526 0.1875 43.368C0.1875 67.2833 20.7373 86.6839 46.0938 86.6839Z" fill="#FFE67B"/>
</g>
</g>
<defs>
<clipPath id="clip0_1593_1793">
<rect width="92" height="86.6944" fill="white"/>
</clipPath>
</defs>
</svg>
