<svg width="91" height="91" viewBox="0 0 91 91" fill="none" xmlns="http://www.w3.org/2000/svg">
<g clip-path="url(#clip0_1593_1809)">
<mask id="mask0_1593_1809" style="mask-type:luminance" maskUnits="userSpaceOnUse" x="0" y="0" width="91" height="91">
<path d="M91.0001 0.0218506H0.120117V91H91.0001V0.0218506Z" fill="white"/>
</mask>
<g mask="url(#mask0_1593_1809)">
<path fill-rule="evenodd" clip-rule="evenodd" d="M62.5946 34.1455C62.5946 38.329 61.0014 42.3596 58.1314 45.4072L41.9917 62.5673H62.5946V73.9382H28.5146V60.3171L49.8597 37.619C50.7436 36.6796 51.2346 35.4344 51.2346 34.1455C51.2346 31.0106 48.692 28.4546 45.5492 28.4546C42.4064 28.4546 39.8637 30.9996 39.8637 34.1455H28.5037C28.5037 24.7298 36.1316 17.0837 45.5492 17.0837C54.9667 17.0837 62.5946 24.7189 62.5946 34.1455ZM91.0001 45.5164C91.0001 70.6394 70.659 91 45.5601 91C20.4612 91 0.120117 70.6285 0.120117 45.5164C0.120117 20.4043 20.4612 0.0218506 45.5601 0.0218506C70.659 0.0218506 91.0001 20.3824 91.0001 45.5055V45.5164Z" fill="#FFE67B"/>
</g>
</g>
<defs>
<clipPath id="clip0_1593_1809">
<rect width="91" height="91" fill="white"/>
</clipPath>
</defs>
</svg>
