<?xml version="1.0"?>
<svg width="1203" height="172" xmlns="http://www.w3.org/2000/svg" xmlns:svg="http://www.w3.org/2000/svg" xmlns:xlink="http://www.w3.org/1999/xlink">
 <defs>
  <clipPath id="clip0_521_456">
   <rect fill="white" height="120" id="svg_1" transform="translate(0 51.8556) rotate(-2.45942)" width="1198"/>
  </clipPath>
  <symbol height="90" id="svg_47" viewBox="0 0 91 90" width="91" xmlns="http://www.w3.org/2000/svg">
   <g clip-path="url(#svg_45)" id="svg_41">
    <mask height="90" id="svg_46" maskUnits="userSpaceOnUse" width="91" x="0" y="0">
     <path d="m90.02,0.17l-89.95,0l0,88.93l89.95,0l0,-88.93z" fill="white" id="svg_42"/>
    </mask>
    <g id="svg_43" mask="url(#svg_46)">
     <path clip-rule="evenodd" d="m39.42,61.31l-11.24,0l0,11.12l33.74,0l0,-11.12l-11.24,0l0,-44.46l-11.24,0c0,6.15 -5.04,11.11 -11.25,11.11l0,11.12c4.1,0 7.95,-1.09 11.25,-2.98l0,25.2l-0.02,0.01zm50.6,-16.66c0,24.55 -20.14,44.46 -44.97,44.46c-24.84,0 -44.98,-19.91 -44.98,-44.48c0,-24.56 20.14,-44.46 44.98,-44.46c24.83,0 44.97,19.91 44.97,44.46l0,0.02z" fill="#FFE67B" fill-rule="evenodd" id="svg_44"/>
    </g>
   </g>
   <defs>
    <clipPath id="svg_45">
     <rect fill="white" height="89" id="svg_57" transform="translate(0.0229492 0.0960693)" width="90"/>
    </clipPath>
   </defs>
  </symbol>
  <symbol height="92" id="svg_51" viewBox="0 0 92 92" width="92" xmlns="http://www.w3.org/2000/svg">
   <g clip-path="url(#svg_49)" id="svg_69">
    <mask height="92" id="svg_50" maskUnits="userSpaceOnUse" width="92" x="0" y="0">
     <path d="m91.02,0.12l-90.88,0l0,90.98l90.88,0l0,-90.98z" fill="white" id="svg_70"/>
    </mask>
    <g id="svg_71" mask="url(#svg_50)">
     <path clip-rule="evenodd" d="m62.62,34.24c0,4.19 -1.6,8.22 -4.47,11.26l-16.14,17.16l20.61,0l0,11.37l-34.08,0l0,-13.62l21.34,-22.69c0.89,-0.94 1.38,-2.19 1.38,-3.48c0,-3.13 -2.55,-5.69 -5.69,-5.69c-3.14,0 -5.68,2.55 -5.68,5.69l-11.36,0c0,-9.41 7.62,-17.06 17.04,-17.06c9.42,0 17.05,7.64 17.05,17.06zm28.4,11.37c0,25.13 -20.34,45.49 -45.44,45.49c-25.1,0 -45.44,-20.38 -45.44,-45.49c0,-25.11 20.34,-45.49 45.44,-45.49c25.1,0 45.44,20.36 45.44,45.48l0,0.01z" fill="#FFE67B" fill-rule="evenodd" id="svg_72"/>
    </g>
   </g>
   <defs>
    <clipPath id="svg_49">
     <rect fill="white" height="91" id="svg_73" transform="translate(0.0229492 0.0960693)" width="91"/>
    </clipPath>
   </defs>
  </symbol>
  <symbol height="87" id="svg_55" viewBox="0 0 93 87" width="93" xmlns="http://www.w3.org/2000/svg">
   <g clip-path="url(#svg_53)" id="svg_74">
    <mask height="87" id="svg_54" maskUnits="userSpaceOnUse" width="93" x="0" y="0">
     <path d="m92.02,0.15l-91.81,0l0,86.64l91.81,0l0,-86.64z" fill="white" id="svg_75"/>
    </mask>
    <g id="svg_76" mask="url(#svg_54)">
     <path clip-rule="evenodd" d="m46.12,43.46c4.75,0 8.61,3.64 8.61,8.13c0,4.48 -3.86,8.12 -8.61,8.12c-4.75,0 -8.61,-3.64 -8.61,-8.12l-11.48,0c0,10.46 9,18.95 20.09,18.95c11.09,0 20.08,-8.49 20.08,-18.95c0,-8.48 -5.89,-15.66 -14.04,-18.08l11.17,-6.78l0,-10.33l-34.42,0l0,10.83l17.7,0l-11.96,7.26l0,8.98l11.48,0l-0.01,-0.01zm0,43.32c25.35,0 45.9,-19.39 45.9,-43.32c0,-23.92 -20.55,-43.31 -45.9,-43.31c-25.36,0 -45.91,19.4 -45.91,43.31c0,23.92 20.55,43.32 45.91,43.32z" fill="#FFE67B" fill-rule="evenodd" id="svg_77"/>
    </g>
   </g>
   <defs>
    <clipPath id="svg_53">
     <rect fill="white" height="86.69" id="svg_78" transform="translate(0.0229492 0.0960693)" width="92"/>
    </clipPath>
   </defs>
  </symbol>
  <symbol height="84" id="svg_60" viewBox="0 0 94 84" width="94" xmlns="http://www.w3.org/2000/svg">
   <g clip-path="url(#svg_58)" id="svg_79">
    <mask height="84" id="svg_59" maskUnits="userSpaceOnUse" width="94" x="0" y="0">
     <path d="m71.72,0.82l-70.99,23.53l21.47,58.76l70.98,-23.54l-21.46,-58.75z" fill="white" id="svg_80"/>
    </mask>
    <g id="svg_81" mask="url(#svg_59)">
     <path d="m65.18,45.19l6.17,7.72c0.44,0.54 1.26,0.65 1.83,0.23l9.49,-6.81c0.59,-0.41 0.69,-1.19 0.27,-1.74l-6.18,-7.73c-0.42,-0.54 -1.26,-0.65 -1.82,-0.23l-9.5,6.81c-0.58,0.42 -0.69,1.19 -0.26,1.74l0,0.01z" fill="#DDDDDD" id="svg_82"/>
     <path d="m65.06,29.19l-7.01,5.02c-0.57,0.42 -0.68,1.19 -0.26,1.74l4.5,5.64c0.44,0.54 1.26,0.65 1.83,0.23l7,-5.02c0.58,-0.42 0.69,-1.19 0.26,-1.74l-4.49,-5.64c-0.44,-0.54 -1.26,-0.65 -1.83,-0.23z" fill="#DDDDDD" id="svg_83"/>
     <path d="m88.45,47.56c-0.59,-0.75 -1.7,-0.9 -2.5,-0.32l-11.43,8.2c1.14,0.43 2.18,1.19 2.93,2.17l10.66,-7.66c0.8,-0.59 0.96,-1.64 0.34,-2.4l0,0.01z" fill="#DDDDDD" id="svg_84"/>
     <path d="m69.17,55.23c0.16,-0.05 0.33,-0.11 0.49,-0.14l-15.39,-19.27c-0.47,-0.6 -1.28,-0.83 -2.03,-0.58l-4.48,1.49c-0.98,-0.74 -2.27,-1.02 -3.53,-0.63l-5.27,1.75c-2.36,-1.43 -6.12,-3.63 -7.66,-4.21c-0.37,-0.14 -0.74,-0.21 -1.14,-0.23l-6.71,-0.38c-1.68,-0.08 -3.33,0.52 -4.53,1.65c-1.2,1.11 -1.85,2.7 -1.76,4.29l0.47,14.36c0.05,1.68 1.1,3.15 2.72,3.8l12.41,5.09l5.53,11.43c0.96,2 3.4,2.97 5.57,2.25c0.14,-0.04 0.25,-0.08 0.39,-0.15c2.27,-0.99 3.27,-3.54 2.23,-5.67l-6.22,-12.92c-0.46,-0.96 -1.27,-1.71 -2.28,-2.13l-7.17,-2.92l0.42,-10.4c1.54,0.9 3.47,2.02 5.16,3.06c0.98,0.61 2.16,0.73 3.28,0.37l7,-2.32c1.4,-0.46 2.34,-1.66 2.49,-2.95l3.02,-1l14.33,17.93c0.73,-0.7 1.61,-1.25 2.65,-1.59l0.01,0.02z" fill="#DDDDDD" id="svg_85"/>
     <path d="m28.9,30.96c4.14,-1.37 6.35,-5.66 4.91,-9.59c-1.43,-3.92 -5.96,-5.98 -10.1,-4.61c-4.15,1.38 -6.36,5.67 -4.92,9.59c1.43,3.93 5.96,5.99 10.11,4.61z" fill="#DDDDDD" id="svg_86"/>
     <path d="m22.3,61.04l0.64,5.68l-1.8,10.03c-0.4,2.32 1.23,4.52 3.7,4.91c0.76,0.12 1.53,0.04 2.22,-0.18c1.51,-0.5 2.68,-1.74 2.98,-3.33l1.89,-10.61c0,0 0.02,-0.11 0.02,-0.19l-1.42,-2.94l-8.23,-3.37z" fill="#DDDDDD" id="svg_87"/>
     <path d="m42.84,27.16l12.43,-4.12l0.96,2.61c0.32,0.89 1.57,1.05 2.13,0.28l5.75,-7.78c0.47,-0.64 0.14,-1.54 -0.65,-1.76l-9.57,-2.71c-0.96,-0.26 -1.82,0.6 -1.49,1.48l0.95,2.62l-12.43,4.12c-0.52,0.17 -0.79,0.71 -0.61,1.2l1.27,3.49c0.18,0.49 0.74,0.75 1.26,0.58l0,-0.01z" fill="#DDDDDD" id="svg_88"/>
     <path d="m76.22,60.26c0.88,2.42 -0.47,5.07 -3.04,5.92c-2.57,0.85 -5.36,-0.42 -6.24,-2.85c-0.89,-2.42 0.47,-5.07 3.04,-5.92c2.56,-0.86 5.35,0.42 6.24,2.85z" fill="#DDDDDD" id="svg_89"/>
    </g>
   </g>
   <defs>
    <clipPath id="svg_58">
     <rect fill="white" height="62.78" id="svg_90" transform="matrix(0.949181 -0.314729 0.34315 0.939281 0.530396 24.4219)" width="75"/>
    </clipPath>
   </defs>
  </symbol>
  <symbol height="67" id="svg_64" viewBox="0 0 60 67" width="60" xmlns="http://www.w3.org/2000/svg">
   <g clip-path="url(#svg_62)" id="svg_91">
    <mask height="67" id="svg_63" maskUnits="userSpaceOnUse" width="60" x="0" y="0">
     <path d="m59.02,0.1l-58.89,0l0,66l58.89,0l0,-66z" fill="white" id="svg_92"/>
    </mask>
    <g id="svg_93" mask="url(#svg_63)">
     <path d="m53.08,8.23l-4.22,0l0,-5.29c0,-1.57 -1.28,-2.84 -2.86,-2.84c-1.58,0 -2.87,1.27 -2.87,2.84l0,5.29l-26.54,0l0,-5.29c0,-1.57 -1.28,-2.84 -2.87,-2.84c-1.59,0 -2.86,1.27 -2.86,2.84l0,5.29l-4.78,0c-3.15,0 -5.71,2.54 -5.71,5.66l0,46.54c0,3.13 2.56,5.67 5.71,5.67l34.81,0l2.77,-2.74l12.37,-12.26l2.76,-2.74l0,-34.47c0,-3.12 -2.56,-5.66 -5.71,-5.66zm-9.96,0.2l5.73,0l0,5.34c0,1.58 -1.28,2.85 -2.86,2.85c-1.58,0 -2.87,-1.27 -2.87,-2.85l0,-5.34zm-32.27,0l5.73,0l0,5.34c0,1.58 -1.28,2.85 -2.87,2.85c-1.59,0 -2.86,-1.27 -2.86,-2.85l0,-5.34zm45.19,39.94l-10.63,0c-3.94,0 -4.63,2.52 -4.63,5.54l0,9.46l-34.7,0c-1.64,0 -2.96,-1.32 -2.96,-2.94l0,-41.47l52.92,0l0,29.41z" fill="#DDDDDD" id="svg_94"/>
     <path d="m16.93,24.81l-9.47,0l0,9.38l9.47,0l0,-9.38z" fill="#DDDDDD" id="svg_95"/>
     <path d="m28.56,24.81l-9.47,0l0,9.38l9.47,0l0,-9.38z" fill="#DDDDDD" id="svg_96"/>
     <path d="m40.19,24.81l-9.47,0l0,9.38l9.47,0l0,-9.38z" fill="#DDDDDD" id="svg_97"/>
     <path d="m51.83,24.81l-9.47,0l0,9.38l9.47,0l0,-9.38z" fill="#DDDDDD" id="svg_98"/>
     <path d="m16.93,36.33l-9.47,0l0,9.38l9.47,0l0,-9.38z" fill="#DDDDDD" id="svg_99"/>
     <path d="m28.56,36.33l-9.47,0l0,9.38l9.47,0l0,-9.38z" fill="#DDDDDD" id="svg_100"/>
     <path d="m40.19,36.33l-9.47,0l0,9.38l9.47,0l0,-9.38z" fill="#DDDDDD" id="svg_101"/>
     <path d="m51.83,36.33l-9.47,0l0,9.38l9.47,0l0,-9.38z" fill="#DDDDDD" id="svg_102"/>
     <path d="m16.93,47.86l-9.47,0l0,9.36l9.47,0l0,-9.36z" fill="#DDDDDD" id="svg_103"/>
     <path d="m28.56,47.86l-9.47,0l0,9.36l9.47,0l0,-9.36z" fill="#DDDDDD" id="svg_104"/>
    </g>
   </g>
   <defs>
    <clipPath id="svg_62">
     <rect fill="white" height="66" id="svg_105" transform="translate(0.0229492 0.0960693)" width="59"/>
    </clipPath>
   </defs>
  </symbol>
  <symbol height="65" id="svg_67" viewBox="0 0 64 65" width="64" xmlns="http://www.w3.org/2000/svg">
   <mask height="65" id="svg_66" maskUnits="userSpaceOnUse" width="63" x="0" y="0">
    <path d="m62.91,0l-62.86,0l0,64.77l62.86,0l0,-64.77z" fill="white" id="svg_106"/>
   </mask>
   <g id="svg_107" mask="url(#svg_66)">
    <path d="m31.48,0c-17.34,0 -31.43,13.51 -31.43,30.09l0,4.61c0,16.58 14.09,30.08 31.43,30.08c17.34,0 31.44,-13.5 31.44,-30.08l0,-4.61c-0.01,-16.58 -14.11,-30.09 -31.44,-30.09zm-15.38,58.45c-2.59,-1.54 -4.91,-3.45 -6.88,-5.66l0,-1.51c2.04,1.95 4.36,3.64 6.88,5.01l0,2.16zm12.55,4.09c-2.4,-0.22 -4.7,-0.74 -6.89,-1.49l0,-2.38c2.19,0.69 4.5,1.14 6.89,1.35l0,2.52zm12.55,-1.49c-2.2,0.75 -4.5,1.27 -6.9,1.49l0,-2.52c2.39,-0.21 4.69,-0.67 6.9,-1.35l0,2.38zm12.55,-8.26c-1.97,2.22 -4.31,4.12 -6.9,5.66l0,-2.16c2.54,-1.37 4.86,-3.05 6.9,-5.01l0,1.51zm-22.28,5.29c-16.11,0 -29.24,-12.56 -29.24,-27.99c0,-15.43 13.13,-27.99 29.25,-27.99c16.13,0 29.26,12.56 29.26,27.99c0,15.43 -13.13,27.99 -29.26,27.99l-0.01,0zm0,-50.29c-12.85,0 -23.3,10 -23.3,22.3c0,12.3 10.45,22.3 23.3,22.3c12.86,0 23.31,-10 23.31,-22.3c0,-12.3 -10.45,-22.3 -23.3,-22.3l-0.01,0zm0,42.52c-9.23,0 -17.08,-5.71 -19.94,-13.62c-0.17,-1.04 -0.28,-2.11 -0.28,-3.2c0,-11.74 9.94,-21.26 22.2,-21.26c5.49,0 10.48,1.93 14.35,5.08c2.99,3.48 4.79,7.95 4.79,12.79c0,11.15 -9.48,20.21 -21.12,20.21zm-1.06,-27.73c2.52,-1.21 6.75,1.21 8.04,2.16l3.46,-4.27c-0.48,-0.37 -3.43,-2.48 -7.06,-3.3l0,-3.08l-5.67,0l0,3.16c-0.43,0.13 -0.87,0.29 -1.3,0.5c-2.58,1.24 -4.27,3.33 -4.74,5.89c-0.49,2.61 0.38,5.1 2.25,7.01c2.17,2.21 4.67,3.1 6.67,3.8c2.04,0.71 3.13,1.14 3.82,2.31c0.45,0.75 0.46,1.24 0.07,1.92c-0.54,0.89 -1.69,1.42 -3.16,1.43c-4.01,0.08 -6.87,-2.97 -6.89,-3l-4.26,3.58c0.15,0.16 3.01,3.22 7.54,4.39l0,2.74l5.67,0l0,-2.51c2.6,-0.49 4.78,-1.88 6.01,-3.94c1.4,-2.35 1.38,-4.87 -0.06,-7.29c-1.74,-2.93 -4.53,-3.92 -6.78,-4.71c-1.74,-0.62 -3.25,-1.15 -4.51,-2.44c-0.65,-0.67 -0.97,-1.42 -0.8,-2.34c0.16,-0.86 0.73,-1.54 1.71,-2.01l-0.01,0z" fill="#DDDDDD" id="svg_108"/>
   </g>
  </symbol>
  <symbol height="22" id="svg_109" viewBox="0 0 168 22" width="168" xmlns="http://www.w3.org/2000/svg">
   <path d="m9.1,18.24c-1.31,0 -2.52,-0.21 -3.62,-0.62c-1.09,-0.44 -2.04,-1.04 -2.86,-1.8c-0.81,-0.79 -1.44,-1.71 -1.89,-2.76c-0.45,-1.06 -0.67,-2.21 -0.67,-3.46c0,-1.25 0.22,-2.4 0.67,-3.46c0.45,-1.05 1.08,-1.96 1.89,-2.73c0.84,-0.79 1.8,-1.39 2.91,-1.8c1.1,-0.43 2.31,-0.65 3.62,-0.65c1.43,0 2.71,0.23 3.84,0.7c1.15,0.46 2.12,1.14 2.91,2.04l-1.97,1.92c-0.66,-0.66 -1.37,-1.14 -2.14,-1.44c-0.75,-0.32 -1.58,-0.48 -2.49,-0.48c-0.88,0 -1.7,0.14 -2.45,0.43c-0.75,0.29 -1.4,0.69 -1.95,1.22c-0.54,0.53 -0.96,1.15 -1.27,1.87c-0.29,0.72 -0.43,1.52 -0.43,2.38c0,0.85 0.14,1.63 0.43,2.35c0.31,0.72 0.73,1.35 1.27,1.9c0.55,0.53 1.19,0.93 1.92,1.22c0.74,0.29 1.56,0.43 2.45,0.43c0.83,0 1.63,-0.12 2.4,-0.38c0.79,-0.27 1.53,-0.72 2.23,-1.34l1.78,2.32c-0.88,0.71 -1.9,1.24 -3.07,1.61c-1.15,0.35 -2.32,0.53 -3.51,0.53zm3.63,-2.54l0,-6.29l2.95,0l0,6.69l-2.95,-0.4zm9.95,-7.52l8.35,0l0,2.57l-8.35,0l0,-2.57zm0.24,7.2l9.48,0l0,2.62l-12.6,0l0,-16.8l12.26,0l0,2.62l-9.14,0l0,11.56zm16.36,2.62l0,-14.16l-5.57,0l0,-2.64l14.26,0l0,2.64l-5.57,0l0,14.16l-3.12,0zm15.29,0l7.56,-16.8l3.07,0l7.58,16.8l-3.26,0l-6.5,-15.14l1.24,0l-6.48,15.14l-3.21,0zm3.48,-3.89l0.84,-2.45l9.07,0l0.84,2.45l-10.75,0zm31.37,4.13c-1.31,0 -2.52,-0.22 -3.62,-0.65c-1.1,-0.43 -2.06,-1.03 -2.88,-1.8c-0.82,-0.78 -1.45,-1.69 -1.9,-2.73c-0.44,-1.06 -0.67,-2.21 -0.67,-3.46c0,-1.25 0.23,-2.39 0.67,-3.43c0.45,-1.06 1.08,-1.97 1.9,-2.74c0.82,-0.78 1.78,-1.39 2.88,-1.82c1.1,-0.43 2.3,-0.65 3.6,-0.65c1.31,0 2.51,0.22 3.6,0.65c1.1,0.43 2.06,1.03 2.88,1.8c0.82,0.77 1.45,1.68 1.9,2.73c0.44,1.06 0.67,2.21 0.67,3.46c0,1.25 -0.23,2.4 -0.67,3.46c-0.45,1.05 -1.08,1.96 -1.9,2.73c-0.82,0.77 -1.78,1.37 -2.88,1.8c-1.09,0.43 -2.28,0.65 -3.58,0.65zm5.48,3.43c-0.6,0 -1.17,-0.07 -1.73,-0.21c-0.55,-0.13 -1.09,-0.36 -1.63,-0.68c-0.53,-0.3 -1.08,-0.71 -1.66,-1.22c-0.58,-0.5 -1.21,-1.11 -1.9,-1.85l3.32,-0.86c0.44,0.59 0.87,1.06 1.27,1.41c0.41,0.37 0.81,0.64 1.2,0.8c0.38,0.16 0.78,0.24 1.2,0.24c1.1,0 2.06,-0.45 2.88,-1.35l1.44,1.73c-1.12,1.33 -2.59,1.99 -4.39,1.99zm-5.5,-6.17c0.85,0 1.63,-0.14 2.35,-0.43c0.72,-0.29 1.35,-0.69 1.87,-1.22c0.53,-0.55 0.94,-1.18 1.23,-1.9c0.3,-0.72 0.45,-1.5 0.45,-2.35c0,-0.86 -0.15,-1.65 -0.45,-2.35c-0.29,-0.72 -0.7,-1.35 -1.23,-1.87c-0.52,-0.55 -1.15,-0.96 -1.87,-1.25c-0.72,-0.29 -1.5,-0.43 -2.35,-0.43c-0.85,0 -1.63,0.14 -2.35,0.43c-0.72,0.29 -1.35,0.7 -1.87,1.25c-0.53,0.52 -0.95,1.15 -1.25,1.87c-0.29,0.7 -0.43,1.49 -0.43,2.35c0,0.85 0.14,1.63 0.43,2.35c0.3,0.72 0.72,1.35 1.25,1.9c0.52,0.53 1.15,0.93 1.87,1.22c0.72,0.29 1.5,0.43 2.35,0.43zm19.58,2.74c-2.3,0 -4.11,-0.65 -5.42,-1.94c-1.3,-1.3 -1.95,-3.17 -1.95,-5.62l0,-9.48l3.12,0l0,9.36c0,1.73 0.37,2.98 1.11,3.77c0.75,0.78 1.8,1.17 3.16,1.17c1.36,0 2.41,-0.39 3.15,-1.17c0.73,-0.79 1.1,-2.04 1.1,-3.77l0,-9.36l3.07,0l0,9.48c0,2.45 -0.65,4.32 -1.96,5.62c-1.3,1.29 -3.09,1.94 -5.38,1.94zm19.59,0c-1.32,0 -2.52,-0.22 -3.63,-0.65c-1.1,-0.43 -2.06,-1.03 -2.88,-1.8c-0.81,-0.78 -1.45,-1.69 -1.89,-2.73c-0.45,-1.06 -0.68,-2.21 -0.68,-3.46c0,-1.25 0.23,-2.39 0.68,-3.43c0.44,-1.06 1.08,-1.97 1.89,-2.74c0.82,-0.78 1.78,-1.39 2.88,-1.82c1.11,-0.43 2.31,-0.65 3.6,-0.65c1.31,0 2.51,0.22 3.6,0.65c1.11,0.43 2.07,1.04 2.88,1.82c0.82,0.77 1.45,1.68 1.9,2.74c0.45,1.04 0.67,2.18 0.67,3.43c0,1.25 -0.22,2.4 -0.67,3.46c-0.45,1.05 -1.08,1.96 -1.9,2.73c-0.81,0.77 -1.77,1.37 -2.88,1.8c-1.09,0.43 -2.28,0.65 -3.57,0.65zm-0.03,-2.74c0.85,0 1.63,-0.14 2.35,-0.43c0.72,-0.29 1.35,-0.69 1.88,-1.22c0.52,-0.55 0.93,-1.17 1.22,-1.87c0.3,-0.72 0.46,-1.52 0.46,-2.38c0,-0.86 -0.16,-1.65 -0.46,-2.35c-0.29,-0.72 -0.7,-1.35 -1.22,-1.87c-0.53,-0.55 -1.16,-0.96 -1.88,-1.25c-0.72,-0.29 -1.5,-0.43 -2.35,-0.43c-0.85,0 -1.63,0.14 -2.35,0.43c-0.7,0.29 -1.33,0.7 -1.87,1.25c-0.53,0.52 -0.95,1.15 -1.25,1.87c-0.29,0.7 -0.43,1.49 -0.43,2.35c0,0.85 0.14,1.63 0.43,2.35c0.3,0.72 0.72,1.35 1.25,1.9c0.53,0.53 1.15,0.93 1.87,1.22c0.72,0.29 1.5,0.43 2.35,0.43zm15.53,2.5l0,-14.16l-5.57,0l0,-2.64l14.26,0l0,2.64l-5.57,0l0,14.16l-3.12,0zm13.91,-9.82l8.35,0l0,2.57l-8.35,0l0,-2.57zm0.24,7.2l9.48,0l0,2.62l-12.6,0l0,-16.8l12.26,0l0,2.62l-9.14,0l0,11.56z" fill="white"/>
  </symbol>
  <symbol height="19" id="svg_111" viewBox="0 0 241 19" width="241" xmlns="http://www.w3.org/2000/svg">
   <path d="m0.45,18l0,-16.8l7.87,0c2.02,0 3.56,0.4 4.61,1.2c1.06,0.78 1.59,1.84 1.59,3.17c0,0.89 -0.21,1.66 -0.63,2.3c-0.41,0.63 -0.97,1.11 -1.68,1.47c-0.69,0.33 -1.44,0.5 -2.25,0.5l0.43,-0.86c0.94,0 1.79,0.17 2.54,0.52c0.75,0.34 1.35,0.84 1.78,1.49c0.45,0.66 0.67,1.47 0.67,2.45c0,1.44 -0.55,2.56 -1.66,3.36c-1.1,0.8 -2.74,1.2 -4.92,1.2l-8.35,0zm3.12,-2.45l5.04,0c1.17,0 2.07,-0.19 2.69,-0.57c0.62,-0.39 0.94,-1 0.94,-1.85c0,-0.83 -0.32,-1.44 -0.94,-1.83c-0.62,-0.4 -1.52,-0.6 -2.69,-0.6l-5.28,0l0,-2.42l4.66,0c1.09,0 1.92,-0.19 2.49,-0.58c0.6,-0.38 0.89,-0.96 0.89,-1.72c0,-0.79 -0.29,-1.37 -0.89,-1.76c-0.57,-0.38 -1.4,-0.57 -2.49,-0.57l-4.42,0l0,11.9zm23.01,2.69c-1.31,0 -2.52,-0.22 -3.62,-0.65c-1.11,-0.43 -2.07,-1.03 -2.88,-1.8c-0.82,-0.78 -1.45,-1.69 -1.9,-2.73c-0.45,-1.06 -0.67,-2.21 -0.67,-3.46c0,-1.25 0.22,-2.39 0.67,-3.43c0.45,-1.06 1.08,-1.97 1.9,-2.74c0.81,-0.78 1.77,-1.39 2.88,-1.82c1.1,-0.43 2.3,-0.65 3.6,-0.65c1.31,0 2.51,0.22 3.6,0.65c1.1,0.43 2.06,1.04 2.88,1.82c0.81,0.77 1.45,1.68 1.89,2.74c0.45,1.04 0.68,2.18 0.68,3.43c0,1.25 -0.23,2.4 -0.68,3.46c-0.44,1.05 -1.08,1.96 -1.89,2.73c-0.82,0.77 -1.78,1.37 -2.88,1.8c-1.09,0.43 -2.28,0.65 -3.58,0.65zm-0.02,-2.74c0.85,0 1.63,-0.14 2.35,-0.43c0.72,-0.29 1.34,-0.69 1.87,-1.22c0.53,-0.55 0.94,-1.17 1.23,-1.87c0.3,-0.72 0.45,-1.52 0.45,-2.38c0,-0.86 -0.15,-1.65 -0.45,-2.35c-0.29,-0.72 -0.7,-1.35 -1.23,-1.87c-0.53,-0.55 -1.15,-0.96 -1.87,-1.25c-0.72,-0.29 -1.5,-0.43 -2.35,-0.43c-0.85,0 -1.63,0.14 -2.35,0.43c-0.71,0.29 -1.33,0.7 -1.88,1.25c-0.52,0.52 -0.94,1.15 -1.24,1.87c-0.29,0.7 -0.44,1.49 -0.44,2.35c0,0.85 0.15,1.63 0.44,2.35c0.3,0.72 0.72,1.35 1.24,1.9c0.53,0.53 1.16,0.93 1.88,1.22c0.72,0.29 1.5,0.43 2.35,0.43zm20.22,2.74c-1.31,0 -2.52,-0.22 -3.62,-0.65c-1.1,-0.43 -2.06,-1.03 -2.88,-1.8c-0.82,-0.78 -1.45,-1.69 -1.9,-2.73c-0.44,-1.06 -0.67,-2.21 -0.67,-3.46c0,-1.25 0.23,-2.39 0.67,-3.43c0.45,-1.06 1.08,-1.97 1.9,-2.74c0.82,-0.78 1.78,-1.39 2.88,-1.82c1.1,-0.43 2.3,-0.65 3.6,-0.65c1.31,0 2.51,0.22 3.6,0.65c1.1,0.43 2.06,1.04 2.88,1.82c0.82,0.77 1.45,1.68 1.9,2.74c0.44,1.04 0.67,2.18 0.67,3.43c0,1.25 -0.23,2.4 -0.67,3.46c-0.45,1.05 -1.08,1.96 -1.9,2.73c-0.82,0.77 -1.78,1.37 -2.88,1.8c-1.09,0.43 -2.28,0.65 -3.58,0.65zm-0.02,-2.74c0.85,0 1.63,-0.14 2.35,-0.43c0.72,-0.29 1.35,-0.69 1.87,-1.22c0.53,-0.55 0.94,-1.17 1.23,-1.87c0.3,-0.72 0.45,-1.52 0.45,-2.38c0,-0.86 -0.15,-1.65 -0.45,-2.35c-0.29,-0.72 -0.7,-1.35 -1.23,-1.87c-0.52,-0.55 -1.15,-0.96 -1.87,-1.25c-0.72,-0.29 -1.5,-0.43 -2.35,-0.43c-0.85,0 -1.63,0.14 -2.35,0.43c-0.71,0.29 -1.33,0.7 -1.87,1.25c-0.53,0.52 -0.95,1.15 -1.25,1.87c-0.29,0.7 -0.43,1.49 -0.43,2.35c0,0.85 0.14,1.63 0.43,2.35c0.3,0.72 0.72,1.35 1.25,1.9c0.52,0.53 1.15,0.93 1.87,1.22c0.72,0.29 1.5,0.43 2.35,0.43zm15.14,-1.46l-0.17,-3.7l8.81,-9.14l3.5,0l-7.32,7.78l-1.72,1.89l-3.1,3.17zm-2.78,3.96l0,-16.8l3.12,0l0,16.8l-3.12,0zm11.71,0l-6.43,-7.66l2.06,-2.28l8.02,9.94l-3.65,0zm17.25,0.24c-1.17,0 -2.22,-0.19 -3.14,-0.58c-0.93,-0.38 -1.66,-0.91 -2.19,-1.58c-0.53,-0.67 -0.79,-1.45 -0.79,-2.33c0,-0.8 0.18,-1.52 0.53,-2.16c0.35,-0.64 0.91,-1.25 1.68,-1.82c0.77,-0.59 1.75,-1.19 2.95,-1.78c0.94,-0.46 1.68,-0.87 2.21,-1.22c0.54,-0.35 0.92,-0.69 1.13,-1.01c0.22,-0.32 0.33,-0.66 0.33,-1.01c0,-0.48 -0.17,-0.86 -0.5,-1.15c-0.34,-0.3 -0.82,-0.46 -1.44,-0.46c-0.67,0 -1.2,0.17 -1.59,0.51c-0.36,0.32 -0.55,0.74 -0.55,1.27c0,0.27 0.05,0.54 0.15,0.79c0.11,0.26 0.3,0.55 0.57,0.87c0.27,0.32 0.67,0.72 1.18,1.22l8.88,8.52l-1.66,1.94l-9.6,-9.21c-0.54,-0.53 -0.98,-1.02 -1.32,-1.47c-0.33,-0.44 -0.57,-0.88 -0.72,-1.29c-0.14,-0.43 -0.21,-0.87 -0.21,-1.32c0,-0.79 0.2,-1.47 0.6,-2.07c0.4,-0.6 0.96,-1.07 1.7,-1.39c0.74,-0.33 1.59,-0.5 2.57,-0.5c0.91,0 1.69,0.15 2.35,0.45c0.67,0.29 1.19,0.72 1.56,1.28c0.38,0.54 0.58,1.2 0.58,1.96c0,0.68 -0.17,1.3 -0.51,1.88c-0.33,0.56 -0.86,1.09 -1.58,1.6c-0.71,0.52 -1.65,1.05 -2.83,1.61c-0.88,0.43 -1.58,0.84 -2.09,1.23c-0.51,0.38 -0.88,0.76 -1.11,1.15c-0.22,0.38 -0.33,0.81 -0.33,1.27c0,0.46 0.13,0.87 0.41,1.22c0.28,0.36 0.68,0.64 1.2,0.84c0.51,0.2 1.11,0.29 1.8,0.29c1.02,0 1.95,-0.22 2.78,-0.67c0.85,-0.46 1.56,-1.15 2.14,-2.06c0.57,-0.92 0.99,-2.04 1.24,-3.39l2.43,0.79c-0.34,1.62 -0.92,3.01 -1.75,4.18c-0.82,1.15 -1.83,2.04 -3.03,2.66c-1.2,0.63 -2.54,0.94 -4.03,0.94zm23.94,0c-1.31,0 -2.57,-0.18 -3.77,-0.55c-1.2,-0.39 -2.15,-0.87 -2.86,-1.47l1.08,-2.42c0.68,0.53 1.51,0.97 2.5,1.32c0.99,0.35 2.01,0.53 3.05,0.53c0.88,0 1.59,-0.1 2.14,-0.29c0.54,-0.19 0.94,-0.45 1.2,-0.77c0.25,-0.33 0.38,-0.71 0.38,-1.13c0,-0.51 -0.18,-0.92 -0.55,-1.22c-0.37,-0.32 -0.85,-0.57 -1.44,-0.74c-0.58,-0.2 -1.23,-0.37 -1.95,-0.53c-0.7,-0.16 -1.41,-0.35 -2.13,-0.55c-0.71,-0.23 -1.36,-0.51 -1.95,-0.84c-0.57,-0.36 -1.05,-0.82 -1.41,-1.4c-0.37,-0.57 -0.56,-1.31 -0.56,-2.2c0,-0.92 0.25,-1.75 0.72,-2.5c0.5,-0.77 1.25,-1.38 2.24,-1.82c1.01,-0.47 2.28,-0.7 3.81,-0.7c1.01,0 2.01,0.13 3,0.38c1,0.26 1.86,0.63 2.59,1.11l-0.98,2.42c-0.75,-0.45 -1.53,-0.77 -2.33,-0.98c-0.8,-0.23 -1.57,-0.34 -2.3,-0.34c-0.86,0 -1.57,0.11 -2.11,0.31c-0.53,0.21 -0.92,0.48 -1.18,0.82c-0.24,0.34 -0.36,0.72 -0.36,1.15c0,0.51 0.18,0.93 0.53,1.25c0.37,0.3 0.84,0.54 1.42,0.72c0.59,0.18 1.24,0.35 1.96,0.53c0.72,0.16 1.43,0.34 2.14,0.55c0.72,0.21 1.37,0.48 1.94,0.82c0.6,0.33 1.07,0.79 1.42,1.36c0.37,0.58 0.55,1.31 0.55,2.19c0,0.89 -0.25,1.73 -0.74,2.49c-0.48,0.76 -1.23,1.36 -2.24,1.83c-1,0.45 -2.27,0.67 -3.81,0.67zm17.66,0c-1.28,0 -2.47,-0.21 -3.58,-0.62c-1.08,-0.44 -2.04,-1.04 -2.85,-1.8c-0.8,-0.79 -1.43,-1.71 -1.87,-2.76c-0.45,-1.06 -0.68,-2.21 -0.68,-3.46c0,-1.25 0.23,-2.4 0.68,-3.46c0.44,-1.05 1.08,-1.96 1.89,-2.73c0.82,-0.79 1.77,-1.39 2.86,-1.8c1.09,-0.43 2.28,-0.65 3.57,-0.65c1.38,0 2.64,0.24 3.77,0.72c1.14,0.46 2.1,1.16 2.88,2.09l-2.01,1.89c-0.61,-0.65 -1.29,-1.14 -2.04,-1.46c-0.76,-0.34 -1.57,-0.5 -2.45,-0.5c-0.88,0 -1.69,0.14 -2.43,0.43c-0.72,0.29 -1.35,0.69 -1.89,1.22c-0.53,0.53 -0.95,1.15 -1.25,1.87c-0.29,0.72 -0.43,1.52 -0.43,2.38c0,0.86 0.14,1.66 0.43,2.38c0.3,0.72 0.72,1.34 1.25,1.87c0.54,0.53 1.17,0.93 1.89,1.22c0.74,0.29 1.55,0.43 2.43,0.43c0.88,0 1.69,-0.16 2.45,-0.48c0.75,-0.33 1.43,-0.84 2.04,-1.51l2.01,1.92c-0.78,0.91 -1.74,1.61 -2.88,2.09c-1.13,0.48 -2.4,0.72 -3.79,0.72zm21.47,-17.04l3.12,0l0,16.8l-3.12,0l0,-16.8zm-8.69,16.8l-3.12,0l0,-16.8l3.12,0l0,16.8zm8.93,-7.2l-9.19,0l0,-2.66l9.19,0l0,2.66zm10.26,-2.62l8.35,0l0,2.57l-8.35,0l0,-2.57zm0.24,7.2l9.48,0l0,2.62l-12.6,0l0,-16.8l12.27,0l0,2.62l-9.15,0l0,11.56zm12.96,2.62l0,-16.8l7.34,0c1.83,0 3.43,0.35 4.8,1.06c1.38,0.7 2.45,1.68 3.22,2.92c0.77,1.25 1.15,2.72 1.15,4.42c0,1.68 -0.38,3.15 -1.15,4.42c-0.77,1.24 -1.84,2.22 -3.22,2.92c-1.37,0.71 -2.97,1.06 -4.8,1.06l-7.34,0zm3.12,-2.64l4.08,0c1.26,0 2.35,-0.24 3.26,-0.72c0.93,-0.48 1.64,-1.15 2.14,-2.02c0.51,-0.86 0.77,-1.87 0.77,-3.02c0,-1.17 -0.26,-2.18 -0.77,-3.02c-0.5,-0.87 -1.21,-1.54 -2.14,-2.02c-0.91,-0.48 -2,-0.72 -3.26,-0.72l-4.08,0l0,11.52zm23.93,2.88c-2.3,0 -4.11,-0.65 -5.42,-1.94c-1.3,-1.3 -1.95,-3.17 -1.95,-5.62l0,-9.48l3.12,0l0,9.36c0,1.73 0.37,2.98 1.11,3.77c0.75,0.78 1.81,1.17 3.17,1.17c1.36,0 2.4,-0.39 3.14,-1.17c0.74,-0.79 1.1,-2.04 1.1,-3.77l0,-9.36l3.08,0l0,9.48c0,2.45 -0.66,4.32 -1.97,5.62c-1.3,1.29 -3.09,1.94 -5.38,1.94zm11.72,-0.24l0,-16.8l3.12,0l0,14.16l8.78,0l0,2.64l-11.9,0zm17.24,-9.82l8.36,0l0,2.57l-8.36,0l0,-2.57zm0.24,7.2l9.48,0l0,2.62l-12.6,0l0,-16.8l12.27,0l0,2.62l-9.15,0l0,11.56z" fill="white"/>
  </symbol>
  <symbol height="47" id="svg_113" viewBox="0 0 299 47" width="299" xmlns="http://www.w3.org/2000/svg">
   <path d="m107.35,17.1l0,-16.8l7.35,0c1.82,0 3.42,0.35 4.8,1.05c1.37,0.71 2.44,1.68 3.21,2.93c0.77,1.25 1.15,2.72 1.15,4.42c0,1.68 -0.38,3.15 -1.15,4.41c-0.77,1.25 -1.84,2.23 -3.21,2.93c-1.38,0.7 -2.98,1.06 -4.8,1.06l-7.35,0zm3.12,-2.64l4.08,0c1.27,0 2.36,-0.24 3.27,-0.72c0.93,-0.48 1.64,-1.16 2.13,-2.02c0.52,-0.86 0.77,-1.87 0.77,-3.02c0,-1.17 -0.25,-2.18 -0.77,-3.03c-0.49,-0.86 -1.2,-1.53 -2.13,-2.01c-0.91,-0.48 -2,-0.72 -3.27,-0.72l-4.08,0l0,11.52zm24.58,2.88c-1.31,0 -2.52,-0.22 -3.62,-0.65c-1.11,-0.43 -2.06,-1.03 -2.88,-1.8c-0.82,-0.79 -1.45,-1.7 -1.9,-2.74c-0.45,-1.05 -0.67,-2.21 -0.67,-3.45c0,-1.25 0.22,-2.4 0.67,-3.44c0.45,-1.05 1.08,-1.96 1.9,-2.73c0.82,-0.79 1.77,-1.39 2.88,-1.83c1.1,-0.43 2.3,-0.64 3.6,-0.64c1.31,0 2.51,0.21 3.6,0.64c1.1,0.44 2.06,1.04 2.88,1.83c0.81,0.77 1.45,1.68 1.9,2.73c0.44,1.04 0.67,2.19 0.67,3.44c0,1.24 -0.23,2.4 -0.67,3.45c-0.45,1.06 -1.09,1.97 -1.9,2.74c-0.82,0.77 -1.78,1.37 -2.88,1.8c-1.09,0.43 -2.28,0.65 -3.58,0.65zm-0.02,-2.74c0.85,0 1.63,-0.14 2.35,-0.43c0.72,-0.29 1.34,-0.7 1.87,-1.23c0.53,-0.54 0.94,-1.16 1.23,-1.87c0.3,-0.72 0.45,-1.51 0.45,-2.37c0,-0.87 -0.15,-1.65 -0.45,-2.36c-0.29,-0.72 -0.7,-1.34 -1.23,-1.87c-0.53,-0.54 -1.15,-0.96 -1.87,-1.25c-0.72,-0.28 -1.5,-0.43 -2.35,-0.43c-0.85,0 -1.63,0.15 -2.35,0.43c-0.71,0.29 -1.33,0.71 -1.87,1.25c-0.53,0.53 -0.95,1.15 -1.25,1.87c-0.29,0.71 -0.43,1.49 -0.43,2.36c0,0.84 0.14,1.63 0.43,2.35c0.3,0.72 0.72,1.35 1.25,1.89c0.52,0.53 1.15,0.94 1.87,1.23c0.72,0.29 1.5,0.43 2.35,0.43zm12.35,2.5l0,-16.8l2.57,0l10.54,12.93l-1.27,0l0,-12.93l3.09,0l0,16.8l-2.57,0l-10.53,-12.94l1.27,0l0,12.94l-3.1,0zm22.31,-9.82l8.36,0l0,2.57l-8.36,0l0,-2.57zm0.24,7.2l9.48,0l0,2.62l-12.6,0l0,-16.8l12.27,0l0,2.61l-9.15,0l0,11.57zm12.87,-2.95l-0.58,-11.23l3.55,0l-0.6,11.23l-2.37,0zm1.2,5.73c-0.56,0 -1.03,-0.18 -1.4,-0.55c-0.36,-0.37 -0.55,-0.81 -0.55,-1.32c0,-0.51 0.19,-0.94 0.55,-1.29c0.37,-0.37 0.84,-0.56 1.4,-0.56c0.56,0 1.01,0.19 1.36,0.56c0.36,0.35 0.53,0.78 0.53,1.29c0,0.51 -0.17,0.95 -0.53,1.32c-0.35,0.37 -0.8,0.55 -1.36,0.55zm-178.28,28.84l-5.57,-16.8l3.24,0l4.97,15.19l-1.61,0l5.16,-15.19l2.88,0l5.01,15.19l-1.56,0l5.09,-15.19l2.98,0l-5.57,16.8l-3.31,0l-4.59,-13.71l0.87,0l-4.66,13.71l-3.33,0zm26.01,-9.82l8.35,0l0,2.57l-8.35,0l0,-2.57zm0.24,7.2l9.48,0l0,2.62l-12.6,0l0,-16.8l12.26,0l0,2.61l-9.14,0l0,11.57zm12.24,-7.54l-0.19,-6.64l2.59,0l-0.22,6.64l-2.18,0zm10.96,10.16l-7.35,-16.8l3.39,0l6.55,15.19l-1.94,0l6.62,-15.19l3.12,0l-7.32,16.8l-3.07,0zm15.04,-9.82l8.36,0l0,2.57l-8.36,0l0,-2.57zm0.24,7.2l9.48,0l0,2.62l-12.6,0l0,-16.8l12.27,0l0,2.61l-9.15,0l0,11.57zm27.44,2.86c-1.31,0 -2.52,-0.21 -3.62,-0.63c-1.09,-0.43 -2.04,-1.03 -2.86,-1.8c-0.81,-0.78 -1.45,-1.7 -1.89,-2.76c-0.45,-1.05 -0.68,-2.21 -0.68,-3.45c0,-1.25 0.23,-2.4 0.68,-3.46c0.44,-1.06 1.08,-1.97 1.89,-2.74c0.83,-0.78 1.8,-1.38 2.91,-1.8c1.1,-0.43 2.31,-0.64 3.62,-0.64c1.42,0 2.7,0.23 3.84,0.69c1.15,0.47 2.12,1.15 2.91,2.04l-1.97,1.92c-0.66,-0.65 -1.37,-1.13 -2.14,-1.44c-0.75,-0.32 -1.58,-0.48 -2.5,-0.48c-0.88,0 -1.69,0.15 -2.44,0.43c-0.76,0.29 -1.4,0.7 -1.95,1.23c-0.54,0.53 -0.97,1.15 -1.27,1.87c-0.29,0.72 -0.43,1.51 -0.43,2.38c0,0.84 0.14,1.63 0.43,2.35c0.3,0.72 0.73,1.35 1.27,1.89c0.55,0.53 1.19,0.94 1.92,1.23c0.74,0.29 1.55,0.43 2.45,0.43c0.83,0 1.63,-0.13 2.4,-0.38c0.79,-0.28 1.53,-0.72 2.23,-1.35l1.78,2.33c-0.88,0.7 -1.91,1.24 -3.07,1.61c-1.15,0.35 -2.32,0.53 -3.51,0.53zm3.63,-2.55l0,-6.29l2.95,0l0,6.7l-2.95,-0.41zm14.94,2.55c-1.32,0 -2.52,-0.22 -3.63,-0.65c-1.1,-0.43 -2.06,-1.03 -2.88,-1.8c-0.81,-0.79 -1.45,-1.7 -1.89,-2.74c-0.45,-1.05 -0.68,-2.21 -0.68,-3.45c0,-1.25 0.23,-2.4 0.68,-3.44c0.44,-1.05 1.08,-1.96 1.89,-2.73c0.82,-0.79 1.78,-1.39 2.88,-1.83c1.11,-0.43 2.31,-0.64 3.6,-0.64c1.31,0 2.51,0.21 3.6,0.64c1.11,0.44 2.07,1.04 2.88,1.83c0.82,0.77 1.45,1.68 1.9,2.73c0.45,1.04 0.67,2.19 0.67,3.44c0,1.24 -0.22,2.4 -0.67,3.45c-0.45,1.06 -1.08,1.97 -1.9,2.74c-0.81,0.77 -1.77,1.37 -2.88,1.8c-1.09,0.43 -2.28,0.65 -3.57,0.65zm-0.03,-2.74c0.85,0 1.63,-0.14 2.35,-0.43c0.72,-0.29 1.35,-0.7 1.88,-1.23c0.52,-0.54 0.93,-1.16 1.22,-1.87c0.3,-0.72 0.46,-1.51 0.46,-2.37c0,-0.87 -0.16,-1.65 -0.46,-2.36c-0.29,-0.72 -0.7,-1.34 -1.22,-1.87c-0.53,-0.54 -1.16,-0.96 -1.88,-1.25c-0.72,-0.28 -1.5,-0.43 -2.35,-0.43c-0.85,0 -1.63,0.15 -2.35,0.43c-0.7,0.29 -1.33,0.71 -1.87,1.25c-0.53,0.53 -0.95,1.15 -1.25,1.87c-0.29,0.71 -0.43,1.49 -0.43,2.36c0,0.84 0.14,1.63 0.43,2.35c0.3,0.72 0.72,1.35 1.25,1.89c0.53,0.53 1.15,0.94 1.87,1.23c0.72,0.29 1.5,0.43 2.35,0.43zm15.53,2.5l0,-14.16l-5.57,0l0,-2.64l14.26,0l0,2.64l-5.57,0l0,14.16l-3.12,0zm17.66,0l0,-16.8l3.12,0l0,16.8l-3.12,0zm11.07,0l0,-14.16l-5.56,0l0,-2.64l14.25,0l0,2.64l-5.57,0l0,14.16l-3.12,0zm25.44,0.24c-1.28,0 -2.47,-0.21 -3.57,-0.63c-1.09,-0.43 -2.04,-1.03 -2.86,-1.8c-0.8,-0.78 -1.42,-1.7 -1.87,-2.76c-0.45,-1.05 -0.67,-2.21 -0.67,-3.45c0,-1.25 0.22,-2.4 0.67,-3.46c0.45,-1.06 1.08,-1.97 1.89,-2.74c0.82,-0.78 1.77,-1.38 2.86,-1.8c1.09,-0.43 2.28,-0.64 3.58,-0.64c1.37,0 2.63,0.24 3.77,0.72c1.13,0.46 2.09,1.16 2.88,2.08l-2.02,1.9c-0.61,-0.66 -1.29,-1.14 -2.04,-1.46c-0.75,-0.34 -1.57,-0.51 -2.45,-0.51c-0.88,0 -1.69,0.15 -2.42,0.43c-0.72,0.29 -1.35,0.7 -1.9,1.23c-0.53,0.53 -0.94,1.15 -1.25,1.87c-0.29,0.72 -0.43,1.51 -0.43,2.38c0,0.86 0.14,1.65 0.43,2.37c0.31,0.72 0.72,1.35 1.25,1.87c0.55,0.53 1.18,0.94 1.9,1.23c0.73,0.29 1.54,0.43 2.42,0.43c0.88,0 1.7,-0.16 2.45,-0.48c0.75,-0.34 1.43,-0.84 2.04,-1.51l2.02,1.92c-0.79,0.91 -1.75,1.61 -2.88,2.09c-1.14,0.48 -2.4,0.72 -3.8,0.72zm17.18,0c-1.31,0 -2.52,-0.22 -3.62,-0.65c-1.1,-0.43 -2.06,-1.03 -2.88,-1.8c-0.81,-0.79 -1.45,-1.7 -1.9,-2.74c-0.44,-1.05 -0.67,-2.21 -0.67,-3.45c0,-1.25 0.23,-2.4 0.67,-3.44c0.45,-1.05 1.09,-1.96 1.9,-2.73c0.82,-0.79 1.78,-1.39 2.88,-1.83c1.1,-0.43 2.31,-0.64 3.6,-0.64c1.31,0 2.51,0.21 3.6,0.64c1.11,0.44 2.07,1.04 2.88,1.83c0.82,0.77 1.45,1.68 1.9,2.73c0.45,1.04 0.67,2.19 0.67,3.44c0,1.24 -0.22,2.4 -0.67,3.45c-0.45,1.06 -1.08,1.97 -1.9,2.74c-0.81,0.77 -1.77,1.37 -2.88,1.8c-1.09,0.43 -2.28,0.65 -3.58,0.65zm-0.02,-2.74c0.85,0 1.63,-0.14 2.35,-0.43c0.72,-0.29 1.35,-0.7 1.87,-1.23c0.53,-0.54 0.94,-1.16 1.23,-1.87c0.3,-0.72 0.45,-1.51 0.45,-2.37c0,-0.87 -0.15,-1.65 -0.45,-2.36c-0.29,-0.72 -0.7,-1.34 -1.23,-1.87c-0.52,-0.54 -1.15,-0.96 -1.87,-1.25c-0.72,-0.28 -1.5,-0.43 -2.35,-0.43c-0.85,0 -1.63,0.15 -2.35,0.43c-0.7,0.29 -1.33,0.71 -1.87,1.25c-0.53,0.53 -0.95,1.15 -1.25,1.87c-0.29,0.71 -0.43,1.49 -0.43,2.36c0,0.84 0.14,1.63 0.43,2.35c0.3,0.72 0.72,1.35 1.25,1.89c0.52,0.53 1.15,0.94 1.87,1.23c0.72,0.29 1.5,0.43 2.35,0.43zm16.81,2.5l-7.35,-16.8l3.39,0l6.55,15.19l-1.94,0l6.62,-15.19l3.12,0l-7.32,16.8l-3.07,0zm15.04,-9.82l8.36,0l0,2.57l-8.36,0l0,-2.57zm0.24,7.2l9.48,0l0,2.62l-12.6,0l0,-16.8l12.27,0l0,2.61l-9.15,0l0,11.57zm12.96,2.62l0,-16.8l6.91,0c1.49,0 2.76,0.24 3.82,0.72c1.07,0.48 1.89,1.16 2.47,2.06c0.58,0.9 0.86,1.96 0.86,3.19c0,1.23 -0.28,2.3 -0.86,3.19c-0.58,0.88 -1.4,1.56 -2.47,2.04c-1.06,0.47 -2.33,0.7 -3.82,0.7l-5.18,0l1.39,-1.42l0,6.32l-3.12,0zm10.99,0l-4.24,-6.1l3.33,0l4.27,6.1l-3.36,0zm-7.87,-5.98l-1.39,-1.49l5.04,0c1.38,0 2.41,-0.29 3.09,-0.89c0.71,-0.59 1.06,-1.41 1.06,-2.47c0,-1.07 -0.35,-1.89 -1.06,-2.47c-0.68,-0.58 -1.71,-0.86 -3.09,-0.86l-5.04,0l1.39,-1.54l0,9.72zm17.32,-3.84l8.35,0l0,2.57l-8.35,0l0,-2.57zm0.24,7.2l9.48,0l0,2.62l-12.6,0l0,-16.8l12.26,0l0,2.61l-9.14,0l0,11.57zm12.95,2.62l0,-16.8l7.35,0c1.82,0 3.42,0.35 4.8,1.05c1.37,0.71 2.45,1.68 3.21,2.93c0.77,1.25 1.16,2.72 1.16,4.42c0,1.68 -0.39,3.15 -1.16,4.41c-0.76,1.25 -1.84,2.23 -3.21,2.93c-1.38,0.7 -2.98,1.06 -4.8,1.06l-7.35,0zm3.12,-2.64l4.08,0c1.27,0 2.36,-0.24 3.27,-0.72c0.93,-0.48 1.64,-1.16 2.13,-2.02c0.52,-0.86 0.77,-1.87 0.77,-3.02c0,-1.17 -0.25,-2.18 -0.77,-3.03c-0.49,-0.86 -1.2,-1.53 -2.13,-2.01c-0.91,-0.48 -2,-0.72 -3.27,-0.72l-4.08,0l0,11.52z" fill="white"/>
  </symbol>
 </defs>
 <g class="layer">
  <title>Layer 1</title>
  <g clip-path="url(#clip0_521_456)" id="svg_2" transform="matrix(0.99749 0 0 0.992739 0.00775031 9.96967)">
   <mask height="172" id="mask0_521_456" maskUnits="userSpaceOnUse" width="1203" x="0" y="0">
    <path d="m1196.9,0.45l-1196.9,51.41l5.15,119.89l1196.9,-51.41l-5.15,-119.89z" fill="white" id="svg_3"/>
   </mask>
   <g id="svg_4" mask="url(#mask0_521_456)">
    <path d="m249.51,72.28c-11.9,0.51 -21.14,10.2 -20.65,21.64c0.49,11.43 10.53,20.3 22.43,19.79c11.89,-0.51 21.14,-10.21 20.65,-21.64c-0.5,-11.44 -10.54,-20.3 -22.43,-19.79zm1.32,30.78c-5.79,0.25 -10.68,-4.05 -10.92,-9.64c-0.24,-5.58 4.27,-10.29 10.05,-10.53c5.79,-0.25 10.68,4.05 10.92,9.63c0.24,5.59 -4.26,10.29 -10.05,10.54z" fill="#DDDDDD" id="svg_5"/>
    <path d="m604.99,51.9c-11.89,0.51 -21.14,10.2 -20.65,21.62c0.49,11.41 10.54,20.3 22.43,19.79c11.89,-0.51 21.14,-10.21 20.65,-21.64c-0.49,-11.44 -10.54,-20.28 -22.43,-19.77zm1.32,30.78c-5.78,0.25 -10.68,-4.07 -10.92,-9.64c-0.24,-5.56 4.27,-10.28 10.06,-10.53c5.78,-0.25 10.68,4.05 10.92,9.63c0.24,5.59 -4.27,10.29 -10.06,10.54z" fill="#DDDDDD" id="svg_6"/>
    <path d="m900.34,80.89c-11.9,0.51 -21.14,10.2 -20.65,21.64c0.49,11.43 10.53,20.28 22.42,19.77c11.9,-0.51 21.14,-10.21 20.65,-21.62c-0.49,-11.42 -10.53,-20.3 -22.42,-19.79zm1.32,30.78c-5.79,0.25 -10.68,-4.05 -10.92,-9.64c-0.24,-5.58 4.26,-10.28 10.05,-10.53c5.79,-0.25 10.68,4.05 10.92,9.63c0.24,5.59 -4.27,10.29 -10.05,10.54z" fill="#DDDDDD" id="svg_7"/>
   </g>
   <mask height="69" id="mask1_521_456" maskUnits="userSpaceOnUse" width="47" x="1153" y="0">
    <path d="m1196.93,0.75l-43.38,1.87l2.84,66.01l43.37,-1.87l-2.83,-66.01z" fill="white" id="svg_8"/>
   </mask>
   <g id="svg_9" mask="url(#mask1_521_456)">
    <path d="m1195.65,26.18l-27.74,-23.09c-3.26,-2.71 -8.18,-2.36 -11.02,0.79c-2.83,3.13 -2.48,7.87 0.76,10.59l21.83,18.19l-18.98,21.07c-2.83,3.13 -2.48,7.88 0.78,10.59c1.56,1.3 3.52,1.91 5.43,1.83c2.07,-0.09 4.1,-0.97 5.56,-2.59l24.12,-26.74c1.36,-1.51 2.04,-3.47 1.9,-5.47c-0.15,-1.98 -1.11,-3.82 -2.66,-5.13" fill="#DDDDDD" id="svg_10"/>
   </g>
   <mask height="172" id="mask2_521_456" maskUnits="userSpaceOnUse" width="1203" x="0" y="0">
    <path d="m1196.9,0.45l-1196.9,51.41l5.15,119.89l1196.9,-51.41l-5.15,-119.89z" fill="white" id="svg_11"/>
   </mask>
   <g id="svg_12" mask="url(#mask2_521_456)">
    <path d="m111.92,75.78l-1.45,0.06c-7,0.44 -13.96,1.06 -20.63,1.89c-2.56,0.32 -4.4,2.58 -4.07,5.03c0.3,2.34 2.43,4.03 4.84,3.92c0.12,0 0.26,-0.01 0.4,-0.01c6.47,-0.8 13.2,-1.42 20.01,-1.81l1.43,-0.06c2.58,-0.17 4.55,-2.3 4.42,-4.78c-0.13,-2.48 -2.42,-4.37 -4.93,-4.24" fill="#DDDDDD" id="svg_13"/>
    <path d="m156.12,75.69c-7.79,-0.32 -15,-0.49 -22.07,-0.5c-2.61,0.02 -4.68,2.02 -4.69,4.51c-0.02,2.49 2.08,4.5 4.66,4.5c6.92,0.01 13.99,0.17 21.64,0.48c0.14,-0.01 0.28,-0.01 0.42,-0.02c2.39,-0.1 4.36,-1.94 4.48,-4.3c0.12,-2.49 -1.86,-4.59 -4.44,-4.71" fill="#DDDDDD" id="svg_14"/>
    <path d="m199.93,78.77c-8.33,-0.74 -15.28,-1.31 -21.86,-1.8c-2.56,-0.2 -4.84,1.67 -5.03,4.15c-0.2,2.48 1.72,4.63 4.31,4.83c6.52,0.47 13.41,1.04 21.69,1.78c0.23,0.03 0.45,0.02 0.65,0.02c2.31,-0.1 4.23,-1.83 4.47,-4.09c0.26,-2.48 -1.63,-4.68 -4.21,-4.91" fill="#DDDDDD" id="svg_15"/>
    <path d="m25.36,94.33c-6.96,2.94 -13.66,6.25 -19.97,9.88c-2.22,1.27 -2.97,4.04 -1.65,6.18c0.91,1.49 2.56,2.27 4.22,2.2c0.75,-0.04 1.5,-0.24 2.19,-0.64c5.97,-3.42 12.34,-6.56 18.94,-9.36c2.37,-1 3.47,-3.65 2.42,-5.94c-1.04,-2.27 -3.8,-3.31 -6.15,-2.3" fill="#DDDDDD" id="svg_16"/>
    <path d="m67.89,81.31c-7.42,1.52 -14.67,3.37 -21.58,5.46c-2.47,0.75 -3.85,3.27 -3.08,5.65c0.65,1.98 2.59,3.25 4.66,3.16c0.41,-0.02 0.8,-0.1 1.2,-0.21c6.62,-2 13.59,-3.76 20.73,-5.23c2.54,-0.51 4.14,-2.92 3.62,-5.34c-0.53,-2.43 -3.03,-3.98 -5.55,-3.47" fill="#DDDDDD" id="svg_17"/>
    <path d="m483.79,75.12c-6.38,1.58 -13.12,3.4 -21.22,5.69c-2.48,0.71 -3.9,3.22 -3.18,5.6c0.61,2.03 2.58,3.32 4.69,3.23c0.36,-0.02 0.74,-0.07 1.12,-0.18c8.01,-2.28 14.66,-4.05 20.93,-5.63c2.51,-0.63 4.02,-3.08 3.37,-5.49c-0.65,-2.4 -3.18,-3.85 -5.69,-3.22" fill="#DDDDDD" id="svg_18"/>
    <path d="m527.31,66.89c-7.05,0.8 -14.23,1.9 -21.97,3.41c-2.54,0.49 -4.19,2.86 -3.68,5.3c0.46,2.2 2.52,3.72 4.79,3.62c0.24,-0.01 0.48,-0.02 0.72,-0.09c7.48,-1.44 14.42,-2.53 21.21,-3.28c2.57,-0.29 4.42,-2.53 4.14,-5c-0.29,-2.48 -2.6,-4.25 -5.19,-3.95" fill="#DDDDDD" id="svg_19"/>
    <path d="m441.58,86.88c-4.33,1.27 -8.69,2.54 -13.02,3.76c-2.61,0.75 -5.25,1.48 -7.88,2.19c-2.49,0.69 -3.95,3.18 -3.24,5.56c0.59,2.04 2.58,3.36 4.7,3.27c0.37,-0.01 0.73,-0.07 1.09,-0.16c2.66,-0.73 5.33,-1.48 7.97,-2.23c4.36,-1.23 8.71,-2.5 13.08,-3.77c2.49,-0.72 3.89,-3.23 3.14,-5.63c-0.74,-2.38 -3.34,-3.73 -5.84,-3.01" fill="#DDDDDD" id="svg_20"/>
    <path d="m566.61,66.14c-5.51,-0.47 -11.22,-0.69 -16.97,-0.64c-2.6,0.02 -4.68,2.05 -4.66,4.54c0.01,2.49 2.13,4.48 4.7,4.47c5.45,-0.04 10.86,0.17 16.07,0.62c0.2,0.01 0.42,0.02 0.63,0.01c2.31,-0.1 4.24,-1.84 4.47,-4.11c0.23,-2.48 -1.65,-4.67 -4.24,-4.89z" fill="#DDDDDD" id="svg_21"/>
    <path d="m357.31,104.91c-7.34,0.56 -14.52,0.76 -21.31,0.55c-2.58,-0.08 -4.75,1.86 -4.85,4.35c-0.09,2.49 1.93,4.57 4.51,4.65c4.72,0.16 9.65,0.13 14.61,-0.09c2.55,-0.11 5.16,-0.26 7.77,-0.47c2.59,-0.2 4.51,-2.37 4.3,-4.85c-0.21,-2.48 -2.52,-4.35 -5.03,-4.12" fill="#DDDDDD" id="svg_22"/>
    <path d="m314.95,103.35c-7.03,-1.2 -13.87,-2.95 -20.33,-5.18c-2.43,-0.84 -5.12,0.37 -6,2.73c-0.89,2.33 0.37,4.92 2.8,5.76c6.95,2.4 14.32,4.26 21.84,5.56c0.35,0.06 0.71,0.07 1.03,0.05c2.15,-0.09 4.02,-1.6 4.41,-3.7c0.46,-2.45 -1.23,-4.79 -3.77,-5.22" fill="#DDDDDD" id="svg_23"/>
    <path d="m399.71,98.11c-7.47,1.71 -14.38,3.07 -21.14,4.19c-2.56,0.42 -4.27,2.75 -3.84,5.2c0.4,2.26 2.48,3.84 4.81,3.74c0.2,-0.01 0.38,-0.01 0.58,-0.06c6.96,-1.15 14.05,-2.53 21.72,-4.29c2.51,-0.57 4.08,-3.01 3.49,-5.41c-0.59,-2.43 -3.11,-3.92 -5.62,-3.35" fill="#DDDDDD" id="svg_24"/>
    <path d="m664.41,81c-6.51,-1.65 -13.6,-3.18 -21.65,-4.61c-2.54,-0.45 -5.01,1.16 -5.48,3.61c-0.48,2.45 1.19,4.79 3.72,5.26c7.83,1.4 14.68,2.84 20.97,4.46c0.47,0.12 0.95,0.17 1.41,0.15c1.99,-0.08 3.79,-1.39 4.33,-3.35c0.68,-2.4 -0.81,-4.86 -3.32,-5.5" fill="#DDDDDD" id="svg_25"/>
    <path d="m786.58,124.83c-6.45,-1.17 -13.14,-2.89 -20.47,-5.23c-2.45,-0.79 -5.11,0.49 -5.94,2.84c-0.82,2.34 0.49,4.91 2.94,5.69c7.74,2.49 14.82,4.3 21.7,5.55c0.36,0.06 0.73,0.09 1.09,0.07c2.13,-0.09 3.98,-1.58 4.41,-3.66c0.48,-2.43 -1.17,-4.79 -3.71,-5.26" fill="#DDDDDD" id="svg_26"/>
    <path d="m868.26,112.49c-6.14,3.19 -12.63,5.9 -19.32,8.06c-2.46,0.8 -3.78,3.35 -2.98,5.7c0.67,1.96 2.62,3.17 4.65,3.08c0.42,-0.02 0.86,-0.09 1.27,-0.23c7.19,-2.33 14.19,-5.24 20.81,-8.68c2.28,-1.18 3.13,-3.92 1.91,-6.1c-1.22,-2.19 -4.08,-2.99 -6.34,-1.81" fill="#DDDDDD" id="svg_27"/>
   </g>
   <mask height="12" id="mask3_521_456" maskUnits="userSpaceOnUse" width="35" x="800" y="126">
    <path d="m833.76,126.07l-32.77,1.41l0.42,9.8l32.77,-1.41l-0.42,-9.8z" fill="white" id="svg_28"/>
   </mask>
   <g id="svg_29" mask="url(#mask3_521_456)">
    <path d="m828.49,125.36c-4.61,0.7 -9.31,1.15 -13.95,1.36l-0.04,0c-2.33,0.1 -4.68,0.14 -7.02,0.11c-2.62,-0.05 -4.7,1.95 -4.76,4.44c-0.05,2.49 2.03,4.52 4.61,4.57c2.49,0.03 5.05,-0.01 7.54,-0.11l0.04,-0.01c4.98,-0.21 10.03,-0.7 14.99,-1.45c2.56,-0.38 4.32,-2.69 3.91,-5.14c-0.39,-2.46 -2.8,-4.13 -5.35,-3.75" fill="#DDDDDD" id="svg_30"/>
   </g>
   <mask height="172" id="mask4_521_456" maskUnits="userSpaceOnUse" width="1203" x="0" y="0">
    <path d="m1196.9,0.45l-1196.9,51.41l5.15,119.89l1196.9,-51.41l-5.15,-119.89z" fill="white" id="svg_31"/>
   </mask>
   <g id="svg_32" mask="url(#mask4_521_456)">
    <path d="m744.17,113.04c-3.99,-1.61 -7.95,-3.26 -11.94,-4.92c-2.69,-1.13 -5.4,-2.26 -8.09,-3.36c-2.37,-0.97 -5.12,0.11 -6.12,2.43c-1.03,2.32 0.09,4.97 2.46,5.93c2.67,1.11 5.36,2.22 8.03,3.34c4.01,1.67 8.01,3.32 12.04,4.96c0.65,0.26 1.34,0.36 1.99,0.33c1.77,-0.07 3.39,-1.12 4.12,-2.8c1.01,-2.31 -0.13,-4.97 -2.5,-5.93" fill="#DDDDDD" id="svg_33"/>
    <path d="m704.08,96.69c-1.99,-0.83 -3.89,-1.65 -5.78,-2.47c-4.8,-2.07 -9.35,-4.02 -14.36,-5.94c-2.38,-0.91 -5.11,0.22 -6.05,2.58c-0.95,2.34 0.21,4.97 2.62,5.89c4.84,1.82 9.3,3.75 13.99,5.78c1.91,0.81 3.83,1.64 5.84,2.49c0.67,0.27 1.38,0.4 2.05,0.37c1.73,-0.07 3.35,-1.08 4.09,-2.72c1.02,-2.3 -0.05,-4.98 -2.4,-5.98z" fill="#DDDDDD" id="svg_34"/>
    <path d="m986.52,58.04c-6.19,2.55 -12.59,5.33 -20.07,8.74c-2.34,1.07 -3.35,3.76 -2.27,6.04c0.82,1.71 2.6,2.68 4.43,2.6c0.6,-0.02 1.2,-0.16 1.77,-0.42c7.39,-3.35 13.66,-6.08 19.76,-8.59c2.36,-0.97 3.5,-3.65 2.49,-5.93c-1,-2.31 -3.74,-3.4 -6.12,-2.42" fill="#DDDDDD" id="svg_35"/>
    <path d="m1115.13,30.1l-0.08,0c-7.49,0.44 -14.87,1.04 -21.93,1.73c-2.55,0.26 -4.43,2.48 -4.18,4.98c0.24,2.4 2.38,4.17 4.83,4.07c0.1,-0.01 0.18,-0.01 0.28,-0.02c6.92,-0.69 14.16,-1.27 21.54,-1.7c2.58,-0.15 4.54,-2.3 4.39,-4.8c-0.15,-2.49 -2.31,-4.37 -4.86,-4.26" fill="#DDDDDD" id="svg_36"/>
    <path d="m946.7,75.95l-0.16,0.07c-6.29,2.95 -12.81,6.03 -19.47,9.06c-2.34,1.08 -3.35,3.78 -2.25,6.04c0.82,1.71 2.61,2.69 4.43,2.61c0.61,-0.03 1.2,-0.17 1.78,-0.42c6.71,-3.07 13.25,-6.14 19.57,-9.11l0.16,-0.07c2.31,-1.09 3.31,-3.82 2.18,-6.05c-1.12,-2.27 -3.91,-3.19 -6.23,-2.11" fill="#DDDDDD" id="svg_37"/>
    <path d="m1159.43,33.52c0.01,-2.5 -2.08,-4.53 -4.65,-4.53c-6.04,0.01 -12.03,0.07 -17.77,0.2l-0.1,0.01c-2.54,0.11 -4.55,2.18 -4.48,4.64c0.07,2.5 2.19,4.48 4.77,4.41c5.66,-0.14 11.55,-0.21 17.54,-0.21l0.22,-0.01c2.48,-0.11 4.47,-2.1 4.47,-4.53" fill="#DDDDDD" id="svg_38"/>
    <path d="m1071.27,34.56c-7.38,1.12 -14.69,2.43 -21.71,3.9c-2.52,0.51 -4.13,2.93 -3.6,5.38c0.47,2.2 2.52,3.68 4.75,3.59c0.26,-0.01 0.52,-0.04 0.78,-0.09c6.83,-1.43 13.96,-2.71 21.17,-3.8c2.55,-0.38 4.3,-2.71 3.91,-5.18c-0.38,-2.48 -2.76,-4.18 -5.32,-3.8" fill="#DDDDDD" id="svg_39"/>
    <path d="m1028.13,43.64c-7.11,1.96 -13.98,4.11 -21.07,6.57c-2.43,0.85 -3.71,3.45 -2.84,5.8c0.7,1.91 2.59,3.09 4.6,3c0.47,-0.02 0.93,-0.1 1.38,-0.27c6.88,-2.38 13.57,-4.47 20.47,-6.39c2.48,-0.69 3.94,-3.2 3.23,-5.62c-0.7,-2.4 -3.27,-3.8 -5.77,-3.1" fill="#DDDDDD" id="svg_40"/>
   </g>
  </g>
  <use id="svg_48" transform="matrix(0.705277 0 0 0.67348 -28.6841 -1.90466)" x="342.84" xlink:href="#svg_47" y="22.22"/>
  <use id="svg_52" transform="matrix(0.623188 0 0 0.623188 0 0)" x="922.67" xlink:href="#svg_51" y="1.6"/>
  <use id="svg_56" transform="matrix(0.648048 0 0 0.660994 -44.2901 -5.73933)" x="1404.73" xlink:href="#svg_55" y="40.55"/>
  <use id="svg_61" transform="matrix(0.756944 0 0 0.750329 -229.105 -16.5275)" x="1542.8" xlink:href="#svg_60" y="34.43"/>
  <use id="svg_65" transform="matrix(0.773427 0 0 0.782555 61.5793 0.263825)" x="764.59" xlink:href="#svg_64" y="36.62"/>
  <use id="svg_68" transform="matrix(0.759308 0 0 0.807342 42.2515 1.07229)" x="318.2" xlink:href="#svg_67" y="1.05"/>
  <use id="svg_110" stroke="#ffffff" transform="matrix(0.549966 0 0 0.657662 116.432 130.149)" x="155.27" xlink:href="#svg_109" y="6.49"/>
  <use id="svg_112" stroke="#ffffff" transform="matrix(0.454801 0 0 0.827513 762.774 127.859)" x="-492.33" xlink:href="#svg_111" y="6.49"/>
  <use id="svg_114" stroke="#ffffff" transform="matrix(0.396974 0 0 0.618035 -293.242 -69.1785)" x="2972.73" xlink:href="#svg_113" y="312.3"/>
 </g>
</svg>