<svg width="31" height="31" viewBox="0 0 31 31" fill="none" xmlns="http://www.w3.org/2000/svg">
<path d="M13.7825 19.6H16.6786C17.4467 19.6 18.1833 19.2945 18.7264 18.7506C19.2695 18.2068 19.5747 17.4691 19.5747 16.7C19.5747 15.9309 19.2695 15.1932 18.7264 14.6494C18.1833 14.1055 17.4467 13.8 16.6786 13.8H12.3344C11.4656 13.8 10.7416 14.09 10.3071 14.67L2.19805 22.5M7.99026 28.3L10.3071 26.27C10.7416 25.69 11.4656 25.4 12.3344 25.4H18.1266C19.7195 25.4 21.1675 24.82 22.1812 23.66L28.8422 17.28C29.401 16.7512 29.7271 16.0218 29.7488 15.2523C29.7706 14.4827 29.4861 13.736 28.958 13.1765C28.43 12.617 27.7016 12.2904 26.933 12.2686C26.1645 12.2469 25.4188 12.5317 24.8601 13.0605L18.7782 18.7155M0.75 21.05L9.43831 29.75M25.2221 10.9C25.2221 13.2224 23.342 15.105 21.0227 15.105C18.7035 15.105 16.8234 13.2224 16.8234 10.9C16.8234 8.57764 18.7035 6.695 21.0227 6.695C23.342 6.695 25.2221 8.57764 25.2221 10.9ZM10.8864 5.1C10.8864 7.50244 8.94142 9.45 6.54221 9.45C4.143 9.45 2.19805 7.50244 2.19805 5.1C2.19805 2.69756 4.143 0.75 6.54221 0.75C8.94142 0.75 10.8864 2.69756 10.8864 5.1Z" stroke="#C9E1EC" stroke-width="1.5" stroke-linecap="round" stroke-linejoin="round"/>
</svg>
