<svg width="23" height="25" viewBox="0 0 23 25" fill="none" xmlns="http://www.w3.org/2000/svg">
<path d="M11.25 24.0809V12.4143M11.25 12.4143L1.08833 6.58094M11.25 12.4143L21.4117 6.58094M6 3.39594L16.5 9.40427M10.0833 23.7659C10.438 23.9707 10.8404 24.0785 11.25 24.0785C11.6596 24.0785 12.062 23.9707 12.4167 23.7659L20.5833 19.0993C20.9377 18.8947 21.232 18.6005 21.4368 18.2462C21.6416 17.892 21.7496 17.4901 21.75 17.0809V7.74761C21.7496 7.33843 21.6416 6.93655 21.4368 6.5823C21.232 6.22804 20.9377 5.93386 20.5833 5.72927L12.4167 1.06261C12.062 0.857815 11.6596 0.75 11.25 0.75C10.8404 0.75 10.438 0.857815 10.0833 1.06261L1.91667 5.72927C1.56231 5.93386 1.26798 6.22804 1.06321 6.5823C0.858433 6.93655 0.75042 7.33843 0.75 7.74761V17.0809C0.75042 17.4901 0.858433 17.892 1.06321 18.2462C1.26798 18.6005 1.56231 18.8947 1.91667 19.0993L10.0833 23.7659Z" stroke="#0E6F7E" stroke-width="1.5" stroke-linecap="round" stroke-linejoin="round"/>
</svg>
