<svg width="33" height="31" viewBox="0 0 33 31" fill="none" xmlns="http://www.w3.org/2000/svg">
<g filter="url(#filter0_d_2781_610)">
<path d="M10.5833 21.75H22.25M16.4167 0.75V21.75M5.91667 5.41667H8.25C10.5833 5.41667 14.0833 4.25 16.4167 3.08333C18.75 4.25 22.25 5.41667 24.5833 5.41667H26.9167M21.0833 15.9167L24.5833 6.58333L28.0833 15.9167C27.0683 16.675 25.8433 17.0833 24.5833 17.0833C23.3233 17.0833 22.0983 16.675 21.0833 15.9167ZM4.75 15.9167L8.25 6.58333L11.75 15.9167C10.735 16.675 9.51 17.0833 8.25 17.0833C6.99 17.0833 5.765 16.675 4.75 15.9167Z" stroke="#C9E1EC" stroke-width="1.5" stroke-linecap="round" stroke-linejoin="round" shape-rendering="crispEdges"/>
</g>
<defs>
<filter id="filter0_d_2781_610" x="0" y="0" width="32.8335" height="30.5" filterUnits="userSpaceOnUse" color-interpolation-filters="sRGB">
<feFlood flood-opacity="0" result="BackgroundImageFix"/>
<feColorMatrix in="SourceAlpha" type="matrix" values="0 0 0 0 0 0 0 0 0 0 0 0 0 0 0 0 0 0 127 0" result="hardAlpha"/>
<feOffset dy="4"/>
<feGaussianBlur stdDeviation="2"/>
<feComposite in2="hardAlpha" operator="out"/>
<feColorMatrix type="matrix" values="0 0 0 0 0 0 0 0 0 0 0 0 0 0 0 0 0 0 0.25 0"/>
<feBlend mode="normal" in2="BackgroundImageFix" result="effect1_dropShadow_2781_610"/>
<feBlend mode="normal" in="SourceGraphic" in2="effect1_dropShadow_2781_610" result="shape"/>
</filter>
</defs>
</svg>
