<svg width="37" height="32" viewBox="0 0 37 32" fill="none" xmlns="http://www.w3.org/2000/svg">
<g filter="url(#filter0_d_2781_625)">
<path d="M16.438 0.75L13.0005 7.75L18.5005 22.9167L24.0005 7.75L20.563 0.75" fill="#C9E1EC"/>
<path d="M25.3755 0.75C25.8024 0.75 26.2234 0.834339 26.6053 0.996337C26.9871 1.15833 27.3193 1.39354 27.5755 1.68333L31.7005 6.35C32.0542 6.75036 32.247 7.23661 32.2502 7.737C32.2534 8.23738 32.0669 8.72539 31.7183 9.129L20.7321 21.946C20.4774 22.2464 20.1421 22.4911 19.754 22.6599C19.3658 22.8286 18.9366 22.9167 18.5005 22.9167C18.0643 22.9167 17.6337 22.8286 17.2456 22.6599C16.8574 22.4911 16.5222 22.2464 16.2675 21.946L5.28121 9.129C4.9328 8.72527 4.74658 8.23719 4.75005 7.7368C4.75351 7.23642 4.94648 6.75023 5.30046 6.35L9.42271 1.68683C9.67871 1.39608 10.0111 1.16001 10.3935 0.997379C10.7759 0.834749 11.1977 0.750045 11.6255 0.75H25.3755Z" fill="#C9E1EC"/>
<path d="M4.75046 7.75H32.2505H4.75046Z" fill="#C9E1EC"/>
<path d="M16.438 0.75L13.0005 7.75L18.5005 22.9167M18.5005 22.9167L24.0005 7.75L20.563 0.75M18.5005 22.9167C18.9366 22.9167 19.3658 22.8286 19.754 22.6599C20.1421 22.4911 20.4774 22.2464 20.7321 21.946L31.7183 9.129C32.0669 8.72539 32.2534 8.23738 32.2502 7.737C32.247 7.23661 32.0542 6.75036 31.7005 6.35L27.5755 1.68333C27.3193 1.39354 26.9871 1.15833 26.6053 0.996337C26.2234 0.834339 25.8024 0.75 25.3755 0.75H11.6255C11.1977 0.750045 10.7759 0.834749 10.3935 0.997379C10.0111 1.16001 9.67871 1.39608 9.42271 1.68683L5.30046 6.35C4.94648 6.75023 4.75351 7.23642 4.75005 7.7368C4.74658 8.23719 4.9328 8.72526 5.28121 9.129L16.2675 21.946C16.5222 22.2464 16.8574 22.4911 17.2456 22.6599C17.6337 22.8286 18.0643 22.9167 18.5005 22.9167ZM4.75046 7.75H32.2505" stroke="#0E6F7E" stroke-width="1.5" stroke-linecap="round" stroke-linejoin="round"/>
</g>
<defs>
<filter id="filter0_d_2781_625" x="0" y="0" width="37.0005" height="31.667" filterUnits="userSpaceOnUse" color-interpolation-filters="sRGB">
<feFlood flood-opacity="0" result="BackgroundImageFix"/>
<feColorMatrix in="SourceAlpha" type="matrix" values="0 0 0 0 0 0 0 0 0 0 0 0 0 0 0 0 0 0 127 0" result="hardAlpha"/>
<feOffset dy="4"/>
<feGaussianBlur stdDeviation="2"/>
<feComposite in2="hardAlpha" operator="out"/>
<feColorMatrix type="matrix" values="0 0 0 0 0 0 0 0 0 0 0 0 0 0 0 0 0 0 0.25 0"/>
<feBlend mode="normal" in2="BackgroundImageFix" result="effect1_dropShadow_2781_625"/>
<feBlend mode="normal" in="SourceGraphic" in2="effect1_dropShadow_2781_625" result="shape"/>
</filter>
</defs>
</svg>
