<svg width="21" height="25" viewBox="0 0 21 25" fill="none" xmlns="http://www.w3.org/2000/svg">
<path d="M19.4167 10.0833C19.4167 15.9085 12.9545 21.9752 10.7845 23.8488C10.5823 24.0008 10.3363 24.083 10.0833 24.083C9.8304 24.083 9.58432 24.0008 9.38217 23.8488C7.21217 21.9752 0.75 15.9085 0.75 10.0833C0.75 7.60798 1.73333 5.23401 3.48367 3.48367C5.23401 1.73333 7.60798 0.75 10.0833 0.75C12.5587 0.75 14.9327 1.73333 16.683 3.48367C18.4333 5.23401 19.4167 7.60798 19.4167 10.0833Z" stroke="#0E6F7E" stroke-width="1.5" stroke-linecap="round" stroke-linejoin="round"/>
<path d="M10.0833 13.5833C12.0163 13.5833 13.5833 12.0163 13.5833 10.0833C13.5833 8.15034 12.0163 6.58333 10.0833 6.58333C8.15034 6.58333 6.58333 8.15034 6.58333 10.0833C6.58333 12.0163 8.15034 13.5833 10.0833 13.5833Z" stroke="#0E6F7E" stroke-width="1.5" stroke-linecap="round" stroke-linejoin="round"/>
</svg>
