<svg width="64" height="40" viewBox="0 0 64 40" fill="none" xmlns="http://www.w3.org/2000/svg">
<g clip-path="url(#clip0_602_3070)">
<mask id="mask0_602_3070" style="mask-type:luminance" maskUnits="userSpaceOnUse" x="0" y="0" width="64" height="40">
<path d="M63.9355 0.0135498H0.00805664V39.9437H63.9355V0.0135498Z" fill="white"/>
</mask>
<g mask="url(#mask0_602_3070)">
<path d="M53.9475 35.9495C55.0504 35.9495 55.9446 35.0554 55.9446 33.9525C55.9446 32.8496 55.0504 31.9554 53.9475 31.9554C52.8446 31.9554 51.9504 32.8496 51.9504 33.9525C51.9504 35.0554 52.8446 35.9495 53.9475 35.9495Z" fill="#F7F7F7"/>
<path d="M43.9568 35.9495C45.0597 35.9495 45.9538 35.0554 45.9538 33.9525C45.9538 32.8496 45.0597 31.9554 43.9568 31.9554C42.8538 31.9554 41.9597 32.8496 41.9597 33.9525C41.9597 35.0554 42.8538 35.9495 43.9568 35.9495Z" fill="#F7F7F7"/>
<path d="M11.993 35.9495C13.096 35.9495 13.9901 35.0554 13.9901 33.9525C13.9901 32.8496 13.096 31.9554 11.993 31.9554C10.8901 31.9554 9.99597 32.8496 9.99597 33.9525C9.99597 35.0554 10.8901 35.9495 11.993 35.9495Z" fill="#F7F7F7"/>
<path d="M11.993 28.9612C14.7507 28.9612 16.987 31.1948 16.987 33.9524C16.987 36.7101 14.7507 38.9437 11.993 38.9437C9.2353 38.9437 6.99902 36.7101 6.99902 33.9524C6.99902 31.1948 9.2353 28.9612 11.993 28.9612ZM13.9901 33.9524C13.9901 32.8504 13.095 31.9554 11.993 31.9554C10.891 31.9554 9.99596 32.8504 9.99596 33.9524C9.99596 35.0544 10.891 35.9495 11.993 35.9495C13.095 35.9468 13.9874 35.0544 13.9901 33.9524Z" fill="#848484"/>
<path d="M43.9569 28.9612C46.7146 28.9612 48.9509 31.1948 48.9509 33.9524C48.9509 36.7101 46.7146 38.9437 43.9569 38.9437C41.1992 38.9437 38.9629 36.7101 38.9629 33.9524C38.9629 31.1948 41.1992 28.9612 43.9569 28.9612ZM45.9539 33.9524C45.9539 32.8504 45.0589 31.9554 43.9569 31.9554C42.8549 31.9554 41.9598 32.8504 41.9598 33.9524C41.9598 35.0544 42.8549 35.9495 43.9569 35.9495C45.0589 35.9468 45.9513 35.0544 45.9539 33.9524Z" fill="#848484"/>
<path d="M53.9474 38.9437C51.1896 38.9437 48.9534 36.7101 48.9534 33.9524C48.9534 31.1948 51.1896 28.9612 53.9474 28.9612C56.7051 28.9612 58.9414 31.1948 58.9414 33.9524C58.9414 36.7101 56.7051 38.9437 53.9474 38.9437ZM55.9444 33.9524C55.9444 32.8504 55.0494 31.9554 53.9474 31.9554C52.8454 31.9554 51.9503 32.8504 51.9503 33.9524C51.9503 35.0544 52.8454 35.9495 53.9474 35.9495C55.0494 35.9468 55.9417 35.0544 55.9444 33.9524Z" fill="#848484"/>
<path d="M48.9535 33.9524C48.9535 31.1948 46.7172 28.9612 43.9595 28.9612H53.9475C51.1897 28.9612 48.9535 31.1948 48.9535 33.9524Z" fill="#AFB4C8"/>
<path d="M62.9356 28.9612V33.9524H58.9415C58.9415 31.1948 56.7052 28.9612 53.9475 28.9612H62.9383H62.9356Z" fill="#AFB4C8"/>
<path d="M43.9568 28.9612C41.1991 28.9612 38.9628 31.1948 38.9628 33.9524H24.978V28.9612H43.9568Z" fill="#AFB4C8"/>
<path d="M11.9931 28.9612C9.23539 28.9612 6.99912 31.1948 6.99912 33.9524H1.00793V28.9612H11.9931Z" fill="#AFB4C8"/>
<path d="M20.9838 9.99597V16.9843C20.9811 18.0863 20.0888 18.9786 18.9868 18.9813H9.99597L13.9901 9.99597H20.9811H20.9838Z" fill="#A3D4FF"/>
<path d="M24.9806 28.9612V33.9524H16.9897C16.9897 31.1947 14.7534 28.9612 11.9957 28.9612H3.00488V20.9757C3.00757 19.8737 3.89993 18.9813 5.00194 18.9786H18.9867C20.0888 18.9759 20.9811 18.0836 20.9838 16.9816V9.99329H24.9779V28.9612H24.9806Z" fill="#F7F7F7"/>
<path d="M60.9385 3.00766V28.9612H24.9807V3.00766C24.9834 1.90566 25.8758 1.01331 26.9778 1.01062H58.9415C60.0435 1.01331 60.9359 1.90566 60.9385 3.00766Z" fill="#FFEE6E"/>
<path d="M58.9415 1.01062H55.9446C57.0466 1.01331 57.939 1.90566 57.9416 3.00766V28.9612H60.9386V3.00766C60.9359 1.90566 60.0435 1.01331 58.9415 1.01062Z" fill="#FFDA45"/>
<path d="M26.9778 1.01062H29.9747C28.8727 1.01331 27.9803 1.90566 27.9776 3.00766V28.9612H24.9807V3.00766C24.9834 1.90566 25.8758 1.01331 26.9778 1.01062Z" fill="#FFBC36"/>
<path d="M21.9811 21.9756H17.9869V23.9726H21.9811V21.9756Z" fill="#AFB4C8"/>
<path d="M62.9357 37.9465H34.9688V39.9436H62.9357V37.9465Z" fill="#AFB4C8"/>
<path d="M32.969 37.9465H30.9719V39.9436H32.969V37.9465Z" fill="#AFB4C8"/>
<path d="M28.9748 37.9465H1.00793V39.9436H28.9748V37.9465Z" fill="#AFB4C8"/>
<path d="M40.9599 16.9843H36.9658V24.9697H40.9599V16.9843Z" fill="#B2876D"/>
<path d="M40.9599 16.9843H38.9629V24.9697H40.9599V16.9843Z" fill="#966857"/>
<path d="M37.9656 5.00476V7.7302L33.9688 9.90733V5.00476H37.9656Z" fill="#966857"/>
<path d="M35.9658 5.00476H33.9688V9.90733L35.9658 8.81876V5.00476Z" fill="#B2876D"/>
<path d="M48.9508 16.9843H43.9568V20.9783H48.9508V16.9843Z" fill="#A3D4FF"/>
<path d="M48.9508 18.9786H43.9568V20.9757H48.9508V18.9786Z" fill="#65B1FC"/>
<path d="M51.9477 13.8987V24.9698H40.9598V16.9843H36.9657V24.9698H33.9688V13.8987L42.9596 8.99609L51.9504 13.8987H51.9477ZM48.9507 16.9843H43.9567V20.9784H48.9507V16.9843Z" fill="#F7F7F7"/>
<path d="M42.9596 8.99878L33.9688 13.8987V15.8957L42.9596 10.9931L51.9477 15.8957V13.8987L42.9596 8.99878Z" fill="#CFCFCF"/>
<path d="M37.9655 7.7302L42.9595 5.00476L53.9474 10.9932V14.9873L51.9477 13.8987L42.9595 8.99885L33.9687 13.8987L31.9717 14.9873V10.9932L33.9687 9.90733L37.9655 7.7302Z" fill="#FF936B"/>
<path d="M42.9595 7.00171L33.9687 11.9016L31.9717 12.9902V14.9872L33.9687 13.8986L42.9595 8.99875L51.9477 13.8986L53.9474 14.9872V12.9902L51.9477 11.9016L42.9595 7.00171Z" fill="#FF7045"/>
<path d="M11.993 34.9523C11.442 34.9523 10.9932 34.5062 10.9932 33.9552C10.9932 33.4042 11.4393 32.958 11.993 32.958C12.5467 32.958 12.9929 33.4042 12.9929 33.9552C12.9929 34.5062 12.5467 34.9523 11.993 34.9523ZM11.993 30.9583C10.3373 30.9583 8.99609 32.2995 8.99609 33.9525C8.99609 35.6055 10.3373 36.9467 11.993 36.9467C13.6487 36.9467 14.99 35.6055 14.99 33.9525C14.99 32.2995 13.6487 30.9583 11.993 30.9583Z" fill="black"/>
<path d="M43.9566 34.9523C43.4056 34.9523 42.9568 34.5062 42.9568 33.9552C42.9568 33.4042 43.403 32.958 43.9566 32.958C44.5103 32.958 44.9565 33.4042 44.9565 33.9552C44.9565 34.5062 44.5103 34.9523 43.9566 34.9523ZM43.9566 30.9583C42.3009 30.9583 40.9597 32.2995 40.9597 33.9525C40.9597 35.6055 42.3009 36.9467 43.9566 36.9467C45.6124 36.9467 46.9536 35.6055 46.9536 33.9525C46.9536 32.2995 45.6124 30.9583 43.9566 30.9583Z" fill="black"/>
<path d="M53.9474 34.9523C53.3964 34.9523 52.9475 34.5062 52.9475 33.9552C52.9475 33.4042 53.3937 32.958 53.9474 32.958C54.5011 32.958 54.9472 33.4042 54.9472 33.9552C54.9472 34.5062 54.5011 34.9523 53.9474 34.9523ZM53.9474 30.9583C52.2917 30.9583 50.9504 32.2995 50.9504 33.9525C50.9504 35.6055 52.2917 36.9467 53.9474 36.9467C55.6031 36.9467 56.9443 35.6055 56.9443 33.9525C56.9443 32.2995 55.6031 30.9583 53.9474 30.9583Z" fill="black"/>
<path d="M61.9384 32.9554H59.85C59.6618 31.8399 59.1592 30.8024 58.4012 29.9611H61.9384V32.9554ZM49.9534 33.9525C49.9534 31.7485 51.7435 29.9584 53.9475 29.9584C56.1515 29.9584 57.9416 31.7458 57.9416 33.9525C57.9416 36.1592 56.1515 37.9466 53.9475 37.9466C51.7435 37.9466 49.9534 36.1592 49.9534 33.9525ZM48.9535 37.2559C49.1175 37.4978 49.2975 37.7289 49.4938 37.9439H48.4159C48.6121 37.7262 48.7922 37.4978 48.9562 37.2559H48.9535ZM39.9627 33.9525C39.9627 31.7485 41.7528 29.9584 43.9568 29.9584C46.1608 29.9584 47.9509 31.7458 47.9509 33.9525C47.9509 36.1592 46.1608 37.9466 43.9568 37.9466C41.7528 37.9466 39.9627 36.1592 39.9627 33.9525ZM23.9808 32.9554H17.8983C17.4091 30.0767 14.9175 27.9695 11.9958 27.9641H4.00486V20.9758C4.00486 20.4248 4.45105 19.9786 5.00474 19.9786H18.9895C20.6452 19.9786 21.9865 18.6374 21.9865 16.9844V10.9959H23.9835V32.9554H23.9808ZM7.99898 33.9525C7.99898 31.7485 9.78908 29.9584 11.9931 29.9584C14.1971 29.9584 15.9872 31.7458 15.9872 33.9525C15.9872 36.1592 14.1971 37.9466 11.9931 37.9466C9.78908 37.9466 7.99898 36.1592 7.99898 33.9525ZM2.00512 29.9584H7.53937C6.7814 30.7997 6.27877 31.8372 6.09062 32.9527H2.00512V29.9584ZM14.6406 10.9933H19.984V16.9817C19.984 17.5327 19.5379 17.9789 18.9842 17.9789H11.5308L14.6379 10.9906L14.6406 10.9933ZM25.9779 29.9584H39.5031C38.7451 30.7997 38.2425 31.8372 38.0543 32.9527H25.9779V29.9584ZM49.4911 29.9584C49.2949 30.1762 49.1148 30.4046 48.9508 30.6465C48.7869 30.4046 48.6068 30.1735 48.4106 29.9584H49.4884H49.4911ZM25.9779 3.00777C25.9779 2.45677 26.4241 2.01059 26.9778 2.01059H58.9415C59.4925 2.01059 59.9414 2.45677 59.9414 3.00777V27.9641H25.9779V3.00777ZM62.9356 27.9641H61.9357V3.00777C61.9357 1.35477 60.5945 0.0135498 58.9388 0.0135498H26.9778C25.3221 0.0135498 23.9808 1.35477 23.9808 3.00777V8.99621H13.9929C13.5977 8.99621 13.2403 9.22737 13.079 9.59022L9.34828 17.9816H5.00205C3.34635 17.9816 2.00512 19.3228 2.00512 20.9758V27.9641H1.00793C0.456925 27.9641 0.00805664 28.4103 0.00805664 28.9613V33.9525C0.00805664 34.5035 0.454237 34.9497 1.00793 34.9497H6.09062C6.27877 36.0652 6.7814 37.1026 7.53937 37.9439H1.00793V39.941H28.9748V37.9439H16.4495C17.2075 37.1026 17.7101 36.0652 17.8983 34.9497H38.0543C38.2425 36.0652 38.7451 37.1026 39.5031 37.9439H34.9687V39.941H62.9356V37.9439H58.4012C59.1592 37.1026 59.6618 36.0652 59.85 34.9497H62.9356C63.4866 34.9497 63.9355 34.5035 63.9355 33.9525V28.9613C63.9355 28.4103 63.4893 27.9641 62.9356 27.9641Z" fill="black"/>
<path d="M21.9811 21.9756H17.9869V23.9726H21.9811V21.9756Z" fill="black"/>
<path d="M32.9717 11.5871L42.9597 6.14163L52.9476 11.5871V13.3046L43.4381 8.11986C43.1397 7.9559 42.7796 7.9559 42.4812 8.11986L32.9717 13.3046V11.5871ZM34.9687 6.00186H36.9658V7.13343L34.9687 8.222V6.00186ZM50.9506 23.9699H41.9598V16.9816C41.9598 16.4306 41.5136 15.9844 40.9599 15.9844H36.9658C36.4148 15.9844 35.9659 16.4306 35.9659 16.9816V23.9699H34.966V14.4873L42.957 10.1303L50.9479 14.4873V23.9699H50.9506ZM37.9657 23.9699V17.9814H39.9627V23.9699H37.9657ZM31.4638 15.8446C31.7675 16.0247 32.1411 16.0301 32.4529 15.8634L32.9744 15.5812V24.9697C32.9744 25.5207 33.4205 25.9669 33.9742 25.9669H51.9531C52.5042 25.9669 52.953 25.5207 52.953 24.9697V15.5812L53.4745 15.8634C53.7836 16.0328 54.1599 16.0247 54.4636 15.8446C54.7673 15.6645 54.9528 15.3393 54.9528 14.9872V10.9931C54.9528 10.6276 54.7539 10.2916 54.4313 10.1169L43.4435 4.12846C43.1451 3.9645 42.785 3.9645 42.4866 4.12846L38.9709 6.04487V5.00469C38.9709 4.45369 38.5247 4.00751 37.971 4.00751H33.9769C33.4259 4.00751 32.977 4.45369 32.977 5.00469V9.31325L31.4987 10.1196C31.1789 10.2943 30.9773 10.6303 30.9773 10.9958V14.9899C30.9773 15.342 31.1628 15.6699 31.4665 15.8473L31.4638 15.8446Z" fill="black"/>
<path d="M44.9565 17.9814H47.9535V19.9785H44.9565V17.9814ZM42.9595 20.9756C42.9595 21.5266 43.4057 21.9728 43.9593 21.9728H48.9533C49.5043 21.9728 49.9532 21.5266 49.9532 20.9756V16.9816C49.9532 16.4306 49.507 15.9844 48.9533 15.9844H43.9593C43.4083 15.9844 42.9595 16.4306 42.9595 16.9816V20.9756Z" fill="black"/>
<path d="M32.969 37.9465H30.9719V39.9436H32.969V37.9465Z" fill="black"/>
</g>
</g>
<defs>
<clipPath id="clip0_602_3070">
<rect width="64" height="40" fill="white"/>
</clipPath>
</defs>
</svg>
