<svg width="93" height="87" viewBox="0 0 93 87" fill="none" xmlns="http://www.w3.org/2000/svg">
<g clip-path="url(#clip0_521_531)">
<mask id="mask0_521_531" style="mask-type:luminance" maskUnits="userSpaceOnUse" x="0" y="0" width="93" height="87">
<path d="M92.023 0.148071H0.210388V86.7904H92.023V0.148071Z" fill="white"/>
</mask>
<g mask="url(#mask0_521_531)">
<path fill-rule="evenodd" clip-rule="evenodd" d="M46.1167 43.464C50.8683 43.464 54.7269 47.1049 54.7269 51.5884C54.7269 56.0719 50.8683 59.7127 46.1167 59.7127C41.3651 59.7127 37.5065 56.0719 37.5065 51.5884H26.0299C26.0299 62.0533 35.026 70.5417 46.1167 70.5417C57.2074 70.5417 66.2034 62.0533 66.2034 51.5884C66.2034 43.1104 60.3053 35.9326 52.1581 33.5089L63.326 26.7264V16.3968H28.9073V27.2258H46.6128L34.6511 34.4867V43.4744H46.1277L46.1167 43.464ZM46.1167 86.78C71.4732 86.78 92.023 67.3898 92.023 43.464C92.023 19.5383 71.4732 0.148071 46.1167 0.148071C20.7602 0.148071 0.210388 19.5487 0.210388 43.464C0.210388 67.3794 20.7602 86.78 46.1167 86.78Z" fill="#FFE67B"/>
</g>
</g>
<defs>
<clipPath id="clip0_521_531">
<rect width="92" height="86.6944" fill="white" transform="translate(0.0229492 0.0960693)"/>
</clipPath>
</defs>
</svg>
