<svg width="92" height="92" viewBox="0 0 92 92" fill="none" xmlns="http://www.w3.org/2000/svg">
<g clip-path="url(#clip0_521_595)">
<mask id="mask0_521_595" style="mask-type:luminance" maskUnits="userSpaceOnUse" x="0" y="0" width="92" height="92">
<path d="M91.023 0.11792H0.143005V91.0961H91.023V0.11792Z" fill="white"/>
</mask>
<g mask="url(#mask0_521_595)">
<path fill-rule="evenodd" clip-rule="evenodd" d="M62.6175 34.2416C62.6175 38.4251 61.0243 42.4557 58.1543 45.5032L42.0146 62.6634H62.6175V74.0343H28.5375V60.4132L49.8825 37.7151C50.7665 36.7757 51.2575 35.5305 51.2575 34.2416C51.2575 31.1066 48.7149 28.5506 45.5721 28.5506C42.4293 28.5506 39.8866 31.0957 39.8866 34.2416H28.5266C28.5266 24.8259 36.1545 17.1797 45.5721 17.1797C54.9896 17.1797 62.6175 24.815 62.6175 34.2416ZM91.023 45.6125C91.023 70.7355 70.6819 91.0961 45.583 91.0961C20.4841 91.0961 0.143005 70.7246 0.143005 45.6125C0.143005 20.5003 20.4841 0.11792 45.583 0.11792C70.6819 0.11792 91.023 20.4785 91.023 45.6015V45.6125Z" fill="#FFE67B"/>
</g>
</g>
<defs>
<clipPath id="clip0_521_595">
<rect width="91" height="91" fill="white" transform="translate(0.0229492 0.0960693)"/>
</clipPath>
</defs>
</svg>
