<svg width="60" height="57" viewBox="0 0 60 57" fill="none" xmlns="http://www.w3.org/2000/svg">
<g clip-path="url(#clip0_602_3115)">
<mask id="mask0_602_3115" style="mask-type:luminance" maskUnits="userSpaceOnUse" x="0" y="0" width="60" height="57">
<path d="M59.9344 0.0330811H0.00244141V56.9771H59.9344V0.0330811Z" fill="white"/>
</mask>
<g mask="url(#mask0_602_3115)">
<path d="M30.0617 4.37267L26.2568 4.13074L26.2164 0.038208H21.9705V4.13074H18.2437L24.0116 13.8896L30.0617 4.37267Z" fill="#0E6F7E"/>
<path d="M49.3586 19.0238H9.51989L0.00244141 29.18H9.51989V56.9695H50.2431V29.18H59.9344L49.3586 19.0238Z" fill="#0E6F7E"/>
<path d="M32.4102 9.79967V13.8896H36.6587L36.6965 9.79967L40.5039 9.55773L34.4563 0.038208L28.6833 9.79967H32.4102Z" fill="#0E6F7E"/>
<path d="M21.9705 0.038208V4.13074H18.2437L24.0116 13.8896L30.0617 4.37267L26.2568 4.13074L26.2164 0.038208H21.9705Z" fill="#0E6F7E"/>
<path d="M50.2379 29.1799H9.51978V56.9719H50.2379V29.1799Z" fill="#E2C079"/>
<path d="M0.00244141 29.18L9.51989 19.0238H49.3586L59.9344 29.18H0.00244141Z" fill="#D1A95A"/>
<path d="M46.3223 50.2742V53.562C46.3223 53.562 46.4659 54.5883 45.7704 54.5883C45.1909 54.5883 45.211 53.781 45.211 53.781C45.211 53.781 45.2312 53.4703 45.4277 53.4703C45.7679 53.4703 45.5487 54.1477 45.7074 54.1401C45.9443 54.1324 45.8637 51.8913 45.8637 51.8913L45.8712 49.3523H46.3273L46.3223 50.2767V50.2742Z" fill="#FFE67B"/>
<path d="M48.1515 51.7054H43.9888C43.9888 51.7054 44.145 49.6503 46.1105 49.6503C48.076 49.6503 48.1515 51.7054 48.1515 51.7054Z" fill="#FFE67B"/>
<path d="M42.6508 53.9313H36.5427V54.6469H42.6508V53.9313Z" fill="#FFE67B"/>
<path d="M42.6508 52.7063H36.5427V53.5136H42.6508V52.7063Z" fill="#FFE67B"/>
<path d="M31.8355 29.1799H27.6526V50.6765L28.0961 50.1672C28.1918 50.0577 28.3355 50.0704 28.4161 50.1952L28.5849 50.4499C28.6656 50.5721 28.8117 50.5747 28.8974 50.4626L29.1015 50.1876C29.1847 50.0755 29.3258 50.0755 29.4064 50.1876L29.613 50.4702C29.6962 50.5823 29.8373 50.5823 29.9204 50.4702L30.0994 50.2232C30.1825 50.1112 30.3236 50.1112 30.4068 50.2232L30.6033 50.4855C30.684 50.595 30.815 50.5976 30.8981 50.4932L31.1577 50.1748C31.2383 50.0781 31.3618 50.073 31.445 50.1697L31.8834 50.6791L31.8355 29.1799Z" fill="#0E6F7E"/>
<path d="M32.4102 13.8896V9.79967H28.6833L34.4563 0.038208L40.5039 9.55773L36.6965 9.79967L36.6587 13.8896H32.4102Z" fill="#0E6F7E"/>
</g>
</g>
<defs>
<clipPath id="clip0_602_3115">
<rect width="60" height="57" fill="white"/>
</clipPath>
</defs>
</svg>
