<svg width="59" height="46" viewBox="0 0 59 46" fill="none" xmlns="http://www.w3.org/2000/svg">
<g clip-path="url(#clip0_602_3046)">
<mask id="mask0_602_3046" style="mask-type:luminance" maskUnits="userSpaceOnUse" x="0" y="0" width="59" height="46">
<path d="M58.9653 0.00756836H0.0322266V46H58.9653V0.00756836Z" fill="white"/>
</mask>
<g mask="url(#mask0_602_3046)">
<path d="M28.7158 23.0037C29.982 20.8912 30.7749 18.4343 30.8963 15.8001C30.9062 15.562 30.8963 15.3214 30.8963 15.0807C30.8963 14.8401 30.9062 14.5995 30.8963 14.3614C30.7749 11.7272 29.982 9.27028 28.7158 7.15784H24.2111C24.8479 9.32347 25.2195 11.7728 25.279 14.3614H30.8963V15.8026H25.279C25.2195 18.3887 24.8454 20.8406 24.2111 23.0062H28.7158V23.0037Z" fill="#FCD21C"/>
<path d="M27.7345 5.71668C25.9653 3.41427 23.5593 1.65138 20.7866 0.71167C21.5919 1.55513 22.2882 2.58855 22.8631 3.71569C23.1802 4.33878 23.4701 5.00747 23.7353 5.71668H27.7345Z" fill="#FCD21C"/>
<path d="M3.62009 23.0038H8.12482C7.48801 20.8381 7.11633 18.3888 7.05686 15.8002H1.43959V14.359H7.05686C7.11633 11.7703 7.49049 9.32103 8.12482 7.1554H3.62009C2.35391 9.26783 1.561 11.7247 1.43959 14.359C1.42967 14.5971 1.43959 14.8377 1.43959 15.0783C1.43959 15.3189 1.42967 15.5596 1.43959 15.7977C1.561 18.4319 2.35391 20.8888 3.62009 23.0012V23.0038Z" fill="#FCD21C"/>
<path d="M4.60132 5.71662H8.60056C8.86321 5.00994 9.15312 4.33872 9.47276 3.71563C10.0476 2.58596 10.7489 1.55253 11.5542 0.706543C8.78145 1.64625 6.3705 3.41168 4.60132 5.71409V5.71662Z" fill="#FCD21C"/>
<path d="M16.8691 23.0037H22.7441C23.4082 20.8913 23.8121 18.4344 23.874 15.8002H16.8716V23.0037H16.8691Z" fill="#FCD21C"/>
<path d="M16.8692 14.359H23.8716C23.8344 12.7911 23.6733 11.284 23.4107 9.87573C23.2348 8.92083 23.0118 8.00898 22.7417 7.1554H16.8667V14.359H16.8692Z" fill="#FCD21C"/>
<path d="M16.8691 5.71669H22.2287C20.9526 2.54297 19.0397 0.397605 16.8691 0.0151367V5.71669Z" fill="#FCD21C"/>
<path d="M10.1097 5.71669C11.3857 2.54297 13.2986 0.397605 15.4668 0.0151367V5.71669H10.1072H10.1097Z" fill="#FCD21C"/>
<path d="M8.89794 9.99984C9.07883 8.99935 9.31422 8.04698 9.59422 7.1554H15.4692V14.359H8.4668C8.49901 12.8342 8.65264 11.3727 8.90042 9.99984H8.89794Z" fill="#FCD21C"/>
<path d="M8.76166 19.3285C8.59812 18.2014 8.49405 17.0185 8.4668 15.8002H15.4692V23.0037H9.59422C9.23741 21.869 8.95246 20.6355 8.76166 19.3285Z" fill="#FCD21C"/>
<path fill-rule="evenodd" clip-rule="evenodd" d="M37.2172 24.4398C36.8307 24.4398 36.516 24.7615 36.516 25.1592C36.516 25.5568 36.8307 25.8785 37.2172 25.8785H40.0246C40.4112 25.8785 40.7259 25.5568 40.7259 25.1592C40.7259 24.7615 40.4112 24.4398 40.0246 24.4398H37.2172ZM52.2181 23.0037H37.9185C37.1429 23.0037 36.516 22.3603 36.516 21.5675V15.8204C36.516 15.0276 37.1454 14.3842 37.9185 14.3842H48.2759C48.8086 14.3842 49.2943 14.6907 49.5321 15.1795L52.845 21.9677C53.0779 22.4464 52.7385 23.0062 52.2181 23.0062V23.0037ZM36.516 11.5094C34.9674 11.5094 33.7086 12.7961 33.7086 14.3842V38.8115H36.516C36.516 33.2568 40.9142 28.7534 46.3382 28.7534C51.7622 28.7534 56.1604 33.2568 56.1604 38.8115C57.709 38.8115 58.9678 37.5248 58.9678 35.9367V27.3147C58.9678 25.7265 57.7115 24.4398 56.1604 24.4398L49.9459 12.986C49.4504 12.0742 48.5113 11.5068 47.4929 11.5068H36.516V11.5094Z" fill="#545454"/>
<path d="M2.83963 24.4398C1.28849 24.4398 0.0322266 25.7265 0.0322266 27.3147V37.3728C0.0322266 38.1656 0.661599 38.809 1.43469 38.809H2.83715C2.83715 33.2543 7.23533 28.7508 12.6593 28.7508C18.0833 28.7508 22.4815 33.2543 22.4815 38.809H32.3037V24.4398H2.83963Z" fill="#545454"/>
<path fill-rule="evenodd" clip-rule="evenodd" d="M12.6618 41.6839C14.2104 41.6839 15.4692 40.3972 15.4692 38.8091C15.4692 37.2209 14.2129 35.9342 12.6618 35.9342C11.1106 35.9342 9.85436 37.2209 9.85436 38.8091C9.85436 40.3972 11.1106 41.6839 12.6618 41.6839ZM12.6618 45.9949C16.5371 45.9949 19.6765 42.7781 19.6765 38.8116C19.6765 34.8451 16.5346 31.6283 12.6618 31.6283C8.78888 31.6283 5.64697 34.8451 5.64697 38.8116C5.64697 42.7781 8.78888 45.9949 12.6618 45.9949Z" fill="#545454"/>
<path fill-rule="evenodd" clip-rule="evenodd" d="M46.3357 41.6839C47.8844 41.6839 49.1431 40.3972 49.1431 38.8091C49.1431 37.2209 47.8868 35.9342 46.3357 35.9342C44.7846 35.9342 43.5283 37.2209 43.5283 38.8091C43.5283 40.3972 44.7846 41.6839 46.3357 41.6839ZM46.3357 45.9949C50.2111 45.9949 53.3505 42.7781 53.3505 38.8116C53.3505 34.8451 50.2086 31.6283 46.3357 31.6283C42.4628 31.6283 39.3209 34.8451 39.3209 38.8116C39.3209 42.7781 42.4628 45.9949 46.3357 45.9949Z" fill="#545454"/>
<path d="M12.6619 40.2451C13.4364 40.2451 14.0643 39.6021 14.0643 38.809C14.0643 38.0158 13.4364 37.3728 12.6619 37.3728C11.8873 37.3728 11.2594 38.0158 11.2594 38.809C11.2594 39.6021 11.8873 40.2451 12.6619 40.2451Z" fill="#FCD21C"/>
<path d="M46.3357 40.2451C47.1102 40.2451 47.7382 39.6021 47.7382 38.809C47.7382 38.0158 47.1102 37.3728 46.3357 37.3728C45.5611 37.3728 44.9332 38.0158 44.9332 38.809C44.9332 39.6021 45.5611 40.2451 46.3357 40.2451Z" fill="#FCD21C"/>
</g>
</g>
<defs>
<clipPath id="clip0_602_3046">
<rect width="59" height="46" fill="white"/>
</clipPath>
</defs>
</svg>
