<svg width="60" height="67" viewBox="0 0 60 67" fill="none" xmlns="http://www.w3.org/2000/svg">
<g clip-path="url(#clip0_521_603)">
<mask id="mask0_521_603" style="mask-type:luminance" maskUnits="userSpaceOnUse" x="0" y="0" width="60" height="67">
<path d="M59.0229 0.0960693H0.133484V66.0961H59.0229V0.0960693Z" fill="white"/>
</mask>
<g mask="url(#mask0_521_603)">
<path d="M53.0754 8.232H48.8635V2.94365C48.8635 1.37143 47.5811 0.0960693 46.0003 0.0960693C44.4194 0.0960693 43.126 1.37143 43.126 2.94365V8.232H16.5943V2.94365C16.5943 1.37143 15.3119 0.0960693 13.72 0.0960693C12.1281 0.0960693 10.8568 1.37143 10.8568 2.94365V8.232H6.08104C2.9304 8.232 0.365662 10.7717 0.365662 13.8942V60.4339C0.365662 63.5563 2.9304 66.0961 6.08104 66.0961H40.8929L43.6567 63.3584L56.0271 51.0996L58.7908 48.3619V13.8942C58.7908 10.7717 56.2261 8.232 53.0754 8.232ZM43.115 8.4299H48.8524V13.7732C48.8524 15.3454 47.5701 16.6208 45.9892 16.6208C44.4084 16.6208 43.115 15.3454 43.115 13.7732V8.4299ZM10.8457 8.4299H16.5832V13.7732C16.5832 15.3454 15.3008 16.6208 13.7089 16.6208C12.117 16.6208 10.8457 15.3454 10.8457 13.7732V8.4299ZM56.0381 48.3729H45.4144C41.4678 48.3729 40.7824 50.8907 40.7824 53.9142V63.3694H6.08104C4.44492 63.3694 3.11833 62.0501 3.11833 60.4339V18.9626H56.0381V48.3729Z" fill="#DDDDDD"/>
<path d="M16.9259 24.8118H7.46289V34.1901H16.9259V24.8118Z" fill="#DDDDDD"/>
<path d="M28.5556 24.8118H19.0927V34.1901H28.5556V24.8118Z" fill="#DDDDDD"/>
<path d="M40.1854 24.8118H30.7224V34.1901H40.1854V24.8118Z" fill="#DDDDDD"/>
<path d="M51.8262 24.8118H42.3632V34.1901H51.8262V24.8118Z" fill="#DDDDDD"/>
<path d="M16.9259 36.334H7.46289V45.7123H16.9259V36.334Z" fill="#DDDDDD"/>
<path d="M28.5556 36.334H19.0927V45.7123H28.5556V36.334Z" fill="#DDDDDD"/>
<path d="M40.1854 36.334H30.7224V45.7123H40.1854V36.334Z" fill="#DDDDDD"/>
<path d="M51.8262 36.334H42.3632V45.7123H51.8262V36.334Z" fill="#DDDDDD"/>
<path d="M16.9259 47.8562H7.46289V57.2235H16.9259V47.8562Z" fill="#DDDDDD"/>
<path d="M28.5556 47.8562H19.0927V57.2235H28.5556V47.8562Z" fill="#DDDDDD"/>
</g>
</g>
<defs>
<clipPath id="clip0_521_603">
<rect width="59" height="66" fill="white" transform="translate(0.0229492 0.0960693)"/>
</clipPath>
</defs>
</svg>
