<svg width="64" height="65" viewBox="0 0 64 65" fill="none" xmlns="http://www.w3.org/2000/svg">
<mask id="mask0_521_507" style="mask-type:luminance" maskUnits="userSpaceOnUse" x="0" y="0" width="63" height="65">
<path d="M62.9097 0H0.0455933V64.7663H62.9097V0Z" fill="white"/>
</mask>
<g mask="url(#mask0_521_507)">
<path d="M31.4833 0C14.145 0 0.0455933 13.5078 0.0455933 30.0905V34.6974C0.0455933 51.2801 14.145 64.7771 31.4833 64.7771C48.8216 64.7771 62.921 51.2801 62.921 34.6974V30.0905C62.9097 13.5078 48.8103 0 31.4833 0ZM16.1042 58.4548C13.5108 56.9119 11.1892 55.0023 9.2187 52.7905V51.2801C11.2572 53.2329 13.5788 54.916 16.1042 56.2862V58.4548ZM28.6521 62.5438C26.2512 62.3172 23.9523 61.7994 21.7553 61.0549V58.6705C23.9523 59.361 26.2626 59.8142 28.6521 60.0192V62.5438ZM41.2 61.0549C39.003 61.7994 36.7041 62.3172 34.3032 62.5438V60.0192C36.6927 59.8142 38.9917 59.3503 41.2 58.6705V61.0549ZM53.7479 52.7905C51.7774 55.0131 49.4445 56.9119 46.8511 58.4548V56.2862C49.3879 54.916 51.7094 53.2437 53.7479 51.2801V52.7905ZM31.472 58.0771C15.3568 58.0771 2.23128 45.5188 2.23128 30.0905C2.23128 14.6622 15.3568 2.10385 31.4833 2.10385C47.6099 2.10385 60.7353 14.6622 60.7353 30.0905C60.7353 45.5188 47.6099 58.0771 31.4833 58.0771H31.472ZM31.472 7.78965C18.6183 7.78965 8.16549 17.791 8.16549 30.0905C8.16549 42.3899 18.6183 52.3913 31.472 52.3913C44.3257 52.3913 54.7785 42.3899 54.7785 30.0905C54.7785 17.791 44.3257 7.78965 31.4833 7.78965H31.472ZM31.472 50.3091C22.2423 50.3091 14.3941 44.6017 11.529 36.6934C11.3591 35.6468 11.2458 34.5787 11.2458 33.489C11.2458 21.7506 21.189 12.2347 33.4538 12.2347C38.935 12.2347 43.9293 14.1552 47.8024 17.3055C50.7921 20.7904 52.5928 25.257 52.5928 30.1013C52.5928 41.2463 43.1139 50.3091 31.472 50.3091ZM30.4074 22.5814C32.9329 21.373 37.157 23.7897 38.4481 24.7392L41.9135 20.4667C41.4265 20.0999 38.482 17.9853 34.8468 17.1653V14.0904H29.1844V17.2516C28.754 17.3811 28.3124 17.5429 27.882 17.7479C25.3 18.9886 23.6126 21.0817 23.1369 23.6387C22.6499 26.2496 23.522 28.7419 25.3906 30.6515C27.5649 32.8633 30.0564 33.748 32.0609 34.4493C34.0993 35.1613 35.1865 35.5929 35.8773 36.7581C36.3303 37.5133 36.3417 37.9988 35.9453 38.6785C35.413 39.574 34.2579 40.1027 32.7857 40.1135C28.7767 40.189 25.9228 37.1357 25.9002 37.1141L21.642 40.6853C21.7893 40.8471 24.6544 43.9112 29.1844 45.0764V47.8168H34.8468V45.3138C37.4515 44.8175 39.6259 43.4257 40.8603 41.365C42.2645 39.0238 42.2419 36.4992 40.8036 34.0824C39.0596 31.1478 36.2737 30.1552 34.0201 29.3676C32.276 28.7527 30.7698 28.224 29.5128 26.9293C28.8559 26.2604 28.5389 25.5052 28.7087 24.5881C28.8673 23.725 29.4448 23.0453 30.4188 22.5814H30.4074Z" fill="#DDDDDD"/>
</g>
</svg>
