<svg width="1203" height="172" viewBox="0 0 1203 172" fill="none" xmlns="http://www.w3.org/2000/svg">
<g clip-path="url(#clip0_521_456)">
<mask id="mask0_521_456" style="mask-type:luminance" maskUnits="userSpaceOnUse" x="0" y="0" width="1203" height="172">
<path d="M1196.9 0.447163L0 51.8556L5.14943 171.745L1202.05 120.337L1196.9 0.447163Z" fill="white"/>
</mask>
<g mask="url(#mask0_521_456)">
<path d="M249.508 73.2495C237.614 73.7603 228.368 83.4531 228.859 94.8876C229.35 106.322 239.393 115.186 251.287 114.676C263.181 114.165 272.427 104.472 271.936 93.0374C271.445 81.6029 261.402 72.7386 249.508 73.2495ZM250.83 104.03C245.044 104.279 240.149 99.9763 239.909 94.3938C239.669 88.8112 244.177 84.1048 249.963 83.8563C255.75 83.6077 260.645 87.9103 260.885 93.4928C261.124 99.0753 256.616 103.782 250.83 104.03Z" fill="#DDDDDD"/>
<path d="M604.99 52.8702C593.096 53.3811 583.851 63.0738 584.341 74.4891C584.831 85.9044 594.875 94.788 606.769 94.2771C618.663 93.7662 627.909 84.0735 627.417 72.6389C626.926 61.2044 616.885 52.3593 604.99 52.8702ZM606.312 83.6511C600.526 83.8996 595.63 79.5778 595.391 74.0145C595.152 68.4512 599.66 63.7255 605.446 63.477C611.232 63.2284 616.127 67.531 616.367 73.1136C616.607 78.6961 612.099 83.4025 606.312 83.6511Z" fill="#DDDDDD"/>
<path d="M900.335 81.8609C888.441 82.3718 879.196 92.0645 879.687 103.499C880.178 114.934 890.22 123.779 902.114 123.268C914.008 122.757 923.254 113.064 922.763 101.649C922.273 90.2336 912.23 81.35 900.335 81.8609ZM901.658 112.642C895.871 112.89 890.976 108.588 890.736 103.005C890.497 97.4227 895.005 92.7162 900.791 92.4677C906.577 92.2192 911.472 96.5218 911.712 102.104C911.952 107.687 907.444 112.393 901.658 112.642Z" fill="#DDDDDD"/>
</g>
<mask id="mask1_521_456" style="mask-type:luminance" maskUnits="userSpaceOnUse" x="1153" y="0" width="47" height="69">
<path d="M1196.93 0.754298L1153.55 2.61743L1156.39 68.6259L1199.76 66.7628L1196.93 0.754298Z" fill="white"/>
</mask>
<g mask="url(#mask1_521_456)">
<path d="M1195.65 27.1534L1167.91 4.06444C1164.65 1.35005 1159.73 1.69623 1156.89 4.84621C1154.06 7.97607 1154.41 12.7248 1157.65 15.4401L1179.48 33.6335L1160.5 54.6987C1157.67 57.8285 1158.02 62.5773 1161.28 65.2916C1162.84 66.5937 1164.8 67.2038 1166.71 67.1219C1168.78 67.033 1170.81 66.1548 1172.27 64.53L1196.39 37.7866C1197.75 36.2816 1198.43 34.3238 1198.29 32.3244C1198.14 30.3442 1197.18 28.4957 1195.63 27.1928" fill="#DDDDDD"/>
</g>
<mask id="mask2_521_456" style="mask-type:luminance" maskUnits="userSpaceOnUse" x="0" y="0" width="1203" height="172">
<path d="M1196.9 0.447163L0 51.8556L5.14943 171.745L1202.05 120.337L1196.9 0.447163Z" fill="white"/>
</mask>
<g mask="url(#mask2_521_456)">
<path d="M111.918 76.7484L110.471 76.8105C103.465 77.2465 96.5072 77.8732 89.8399 78.6995C87.2772 79.0217 85.4419 81.2798 85.7687 83.7344C86.0705 86.0742 88.1959 87.7572 90.6069 87.6537C90.7274 87.6485 90.8681 87.6424 91.0087 87.6364C97.476 86.8379 104.213 86.2207 111.02 85.8319L112.446 85.7706C115.035 85.6016 116.997 83.473 116.87 80.9906C116.744 78.5082 114.448 76.6204 111.938 76.7475" fill="#DDDDDD"/>
<path d="M156.117 76.6629C148.333 76.3415 141.12 76.1692 134.054 76.1641C131.438 76.18 129.37 78.1781 129.356 80.6665C129.343 83.155 131.442 85.1669 134.018 85.172C140.943 85.1831 148.015 85.3422 155.657 85.6504C155.798 85.6444 155.938 85.6383 156.079 85.6323C158.47 85.5296 160.444 83.6898 160.564 81.3318C160.679 78.839 158.697 76.7449 156.115 76.6244" fill="#DDDDDD"/>
<path d="M199.928 79.7375C191.603 78.9958 184.654 78.4264 178.071 77.9377C175.506 77.7393 173.232 79.6113 173.036 82.0882C172.841 84.5652 174.765 86.7197 177.35 86.9172C183.872 87.3892 190.76 87.9612 199.045 88.7047C199.268 88.7337 199.489 88.7242 199.689 88.7155C202 88.6163 203.919 86.8946 204.164 84.6277C204.419 82.1481 202.534 79.9534 199.947 79.7174" fill="#DDDDDD"/>
<path d="M25.356 95.297C18.397 98.238 11.6957 101.554 5.39018 105.18C3.17027 106.452 2.42374 109.223 3.74358 111.364C4.65275 112.849 6.29645 113.627 7.96406 113.555C8.70745 113.523 9.46349 113.317 10.151 112.921C16.1232 109.502 22.4896 106.355 29.0927 103.564C31.4649 102.556 32.5587 99.9054 31.5144 97.6167C30.4709 95.3473 27.7089 94.3088 25.3568 95.3162" fill="#DDDDDD"/>
<path d="M67.8926 82.2843C60.4698 83.7988 53.2226 85.6529 46.3076 87.7435C43.8435 88.4858 42.4626 91.0136 43.2289 93.3914C43.8775 95.3693 45.824 96.6356 47.8934 96.5468C48.2952 96.5295 48.6946 96.4545 49.0923 96.341C55.7092 94.3404 62.6784 92.5753 69.8216 91.1114C72.3559 90.5975 73.9636 88.1949 73.4367 85.7683C72.9098 83.3416 70.4076 81.7906 67.8934 82.3035" fill="#DDDDDD"/>
<path d="M483.787 76.0889C477.413 77.674 470.668 79.4873 462.574 81.7828C460.088 82.4874 458.666 84.9978 459.392 87.3773C460.003 89.4146 461.971 90.6994 464.08 90.6088C464.442 90.5933 464.822 90.5384 465.2 90.4257C473.214 88.1529 479.861 86.3824 486.133 84.8016C488.643 84.1731 490.147 81.7171 489.501 79.3149C488.854 76.9126 486.316 75.4595 483.807 76.088" fill="#DDDDDD"/>
<path d="M527.313 67.8551C520.263 68.6594 513.084 69.7584 505.339 71.2675C502.803 71.7621 501.154 74.1279 501.662 76.5747C502.118 78.7729 504.176 80.2852 506.446 80.1877C506.687 80.1774 506.929 80.167 507.167 80.0989C514.654 78.6588 521.591 77.5701 528.383 76.8155C530.947 76.5318 532.803 74.2921 532.516 71.8166C532.228 69.3411 529.918 67.5697 527.334 67.8735" fill="#DDDDDD"/>
<path d="M441.579 87.8531C437.245 89.1193 432.891 90.3863 428.556 91.6139C425.951 92.3622 423.306 93.093 420.679 93.8036C418.193 94.489 416.73 96.9818 417.436 99.3622C418.026 101.4 420.016 102.723 422.145 102.631C422.507 102.616 422.867 102.562 423.225 102.469C425.891 101.738 428.556 100.987 431.201 100.237C435.556 99.0082 439.91 97.7412 444.284 96.4733C446.769 95.7495 448.171 93.24 447.424 90.8421C446.677 88.4634 444.083 87.1092 441.578 87.8339" fill="#DDDDDD"/>
<path d="M566.613 67.1121C561.097 66.6354 555.391 66.4176 549.637 66.4719C547.041 66.487 544.955 68.5245 544.981 71.0112C544.987 73.4987 547.106 75.4906 549.682 75.4764C555.135 75.435 560.538 75.6465 565.751 76.0976C565.953 76.1082 566.174 76.118 566.375 76.1094C568.686 76.0101 570.624 74.2683 570.849 72.0023C571.084 69.5236 569.199 67.3289 566.613 67.1121Z" fill="#DDDDDD"/>
<path d="M357.309 105.879C349.967 106.445 342.789 106.638 335.997 106.428C333.417 106.346 331.246 108.291 331.152 110.782C331.057 113.274 333.079 115.347 335.659 115.43C340.376 115.593 345.306 115.555 350.268 115.342C352.82 115.232 355.43 115.082 358.038 114.873C360.626 114.666 362.546 112.5 362.338 110.021C362.131 107.543 359.817 105.675 357.31 105.898" fill="#DDDDDD"/>
<path d="M314.952 104.323C307.916 103.121 301.078 101.371 294.621 99.1409C292.19 98.3003 289.504 99.5149 288.619 101.867C287.733 104.2 288.992 106.788 291.423 107.629C298.37 110.03 305.737 111.893 313.26 113.19C313.605 113.253 313.967 113.256 314.289 113.242C316.439 113.15 318.306 111.643 318.699 109.543C319.157 107.093 317.467 104.755 314.932 104.324" fill="#DDDDDD"/>
<path d="M399.71 99.0821C392.236 100.792 385.329 102.149 378.574 103.268C376.015 103.687 374.304 106.017 374.731 108.467C375.13 110.726 377.211 112.314 379.542 112.214C379.743 112.205 379.924 112.198 380.123 112.15C387.078 111.003 394.165 109.619 401.839 107.862C404.35 107.291 405.916 104.852 405.33 102.447C404.743 100.023 402.223 98.5306 399.711 99.1013" fill="#DDDDDD"/>
<path d="M664.412 81.9657C657.9 80.3168 650.809 78.7892 642.757 77.3608C640.221 76.9105 637.754 78.5207 637.276 80.9712C636.797 83.4218 638.468 85.7607 641.004 86.2303C648.834 87.6297 655.679 89.0714 661.969 90.6913C662.437 90.8062 662.922 90.8625 663.384 90.8426C665.373 90.7572 667.169 89.4458 667.709 87.494C668.391 85.0926 666.896 82.6304 664.393 81.9858" fill="#DDDDDD"/>
<path d="M786.584 125.8C780.132 124.631 773.436 122.913 766.109 120.566C763.66 119.784 760.997 121.055 760.172 123.405C759.347 125.755 760.665 128.321 763.114 129.103C770.85 131.586 777.933 133.404 784.81 134.651C785.175 134.713 785.538 134.736 785.9 134.72C788.03 134.629 789.878 133.141 790.312 131.059C790.791 128.628 789.14 126.269 786.604 125.799" fill="#DDDDDD"/>
<path d="M868.259 113.459C862.116 116.654 855.63 119.363 848.939 121.521C846.478 122.321 845.158 124.866 845.964 127.222C846.632 129.18 848.576 130.389 850.605 130.302C851.027 130.283 851.466 130.207 851.883 130.073C859.07 127.739 866.07 124.835 872.686 121.388C874.97 120.21 875.818 117.474 874.597 115.289C873.376 113.104 870.524 112.301 868.26 113.478" fill="#DDDDDD"/>
</g>
<mask id="mask3_521_456" style="mask-type:luminance" maskUnits="userSpaceOnUse" x="800" y="126" width="35" height="12">
<path d="M833.756 126.069L800.987 127.476L801.408 137.275L834.177 135.867L833.756 126.069Z" fill="white"/>
</mask>
<g mask="url(#mask3_521_456)">
<path d="M828.494 126.333C823.875 127.033 819.184 127.485 814.543 127.685L814.502 127.687C812.172 127.787 809.819 127.83 807.482 127.795C804.864 127.753 802.776 129.752 802.722 132.242C802.668 134.733 804.748 136.765 807.326 136.808C809.823 136.836 812.378 136.803 814.869 136.696L814.91 136.695C819.892 136.481 824.944 135.994 829.903 135.241C832.463 134.861 834.216 132.548 833.809 130.097C833.422 127.645 831.015 125.974 828.455 126.354" fill="#DDDDDD"/>
</g>
<mask id="mask4_521_456" style="mask-type:luminance" maskUnits="userSpaceOnUse" x="0" y="0" width="1203" height="172">
<path d="M1196.9 0.447163L0 51.8556L5.14943 171.745L1202.05 120.337L1196.9 0.447163Z" fill="white"/>
</mask>
<g mask="url(#mask4_521_456)">
<path d="M746.026 113.193C742.032 111.591 738.057 109.949 734.061 108.307C731.356 107.189 728.651 106.071 725.947 104.972C723.571 104.014 720.819 105.077 719.81 107.377C718.782 109.677 719.902 112.31 722.278 113.269C724.962 114.368 727.646 115.468 730.331 116.587C734.347 118.247 738.363 119.887 742.398 121.507C743.053 121.768 743.742 121.874 744.405 121.845C746.173 121.769 747.799 120.735 748.533 119.064C749.541 116.765 748.402 114.133 746.025 113.174" fill="#DDDDDD"/>
<path d="M705.837 96.9648C703.849 96.1438 701.942 95.3193 700.055 94.5132C695.237 92.4637 690.685 90.5185 685.651 88.6133C683.258 87.7133 680.528 88.8334 679.582 91.169C678.634 93.4854 679.793 96.097 682.208 97.0154C687.056 98.8322 691.527 100.742 696.243 102.758C698.149 103.563 700.077 104.386 702.085 105.226C702.762 105.505 703.471 105.629 704.155 105.6C705.882 105.526 707.51 104.53 708.245 102.898C709.275 100.616 708.195 97.9628 705.837 96.9648Z" fill="#DDDDDD"/>
<path d="M988.989 58.5939C982.777 61.1171 976.374 63.8799 968.871 67.2686C966.521 68.3338 965.509 71.0002 966.592 73.2679C967.41 74.9685 969.203 75.9329 971.031 75.8544C971.634 75.8285 972.232 75.6871 972.804 75.4311C980.21 72.1044 986.494 69.3852 992.607 66.9048C994.981 65.935 996.115 63.2828 995.111 61.0116C994.107 58.7212 991.364 57.6433 988.97 58.614" fill="#DDDDDD"/>
<path d="M1117.93 30.858L1117.85 30.8615C1110.34 31.2997 1102.94 31.8877 1095.86 32.5773C1093.3 32.8418 1091.42 35.0438 1091.67 37.521C1091.91 39.902 1094.06 41.6611 1096.51 41.5559C1096.61 41.5515 1096.69 41.5481 1096.79 41.5438C1103.73 40.8602 1110.99 40.2783 1118.38 39.8452C1120.97 39.6954 1122.93 37.5669 1122.78 35.0853C1122.63 32.6231 1120.46 30.7493 1117.91 30.8589" fill="#DDDDDD"/>
<path d="M949.073 76.3732L948.914 76.4378C942.599 79.3705 936.068 82.4281 929.394 85.4341C927.044 86.4993 926.032 89.1849 927.135 91.4325C927.953 93.1331 929.746 94.0975 931.574 94.019C932.177 93.9931 932.774 93.8517 933.347 93.5957C940.08 90.5486 946.632 87.5094 952.967 84.5566L953.125 84.4919C955.454 83.4084 956.445 80.7044 955.323 78.4769C954.199 76.2301 951.402 75.3089 949.074 76.3924" fill="#DDDDDD"/>
<path d="M1162.34 34.2541C1162.35 31.7657 1160.25 29.7537 1157.68 29.7487C1151.62 29.7582 1145.62 29.8228 1139.87 29.9541L1139.77 29.9584C1137.22 30.068 1135.21 32.1213 1135.28 34.5678C1135.35 37.0528 1137.48 39.0245 1140.06 38.9526C1145.73 38.8054 1151.64 38.7442 1157.64 38.7373L1157.86 38.7278C1160.35 38.6208 1162.34 36.6454 1162.34 34.2349" fill="#DDDDDD"/>
<path d="M1073.96 35.2923C1066.56 36.4009 1059.23 37.6993 1052.2 39.1581C1049.67 39.6719 1048.06 42.0745 1048.59 44.5012C1049.06 46.6793 1051.12 48.1531 1053.35 48.0573C1053.61 48.0461 1053.87 48.0156 1054.13 47.9659C1060.98 46.5534 1068.13 45.282 1075.35 44.2004C1077.91 43.8205 1079.66 41.5081 1079.27 39.0562C1078.89 36.6042 1076.5 34.9132 1073.94 35.2932" fill="#DDDDDD"/>
<path d="M1030.71 44.305C1023.58 46.2502 1016.69 48.3784 1009.59 50.8241C1007.15 51.6617 1005.87 54.243 1006.74 56.578C1007.44 58.4763 1009.34 59.6481 1011.35 59.5618C1011.82 59.542 1012.28 59.4644 1012.73 59.2905C1019.63 56.9305 1026.33 54.8494 1033.25 52.9513C1035.74 52.2659 1037.2 49.7731 1036.49 47.3735C1035.79 44.9931 1033.21 43.5995 1030.71 44.2857" fill="#DDDDDD"/>
</g>
</g>
<defs>
<clipPath id="clip0_521_456">
<rect width="1198" height="120" fill="white" transform="translate(0 51.8556) rotate(-2.45942)"/>
</clipPath>
</defs>
</svg>
