<svg width="28" height="28" viewBox="0 0 28 28" fill="none" xmlns="http://www.w3.org/2000/svg">
<path d="M8.16659 24.5H19.8333M13.9999 3.5V24.5M3.49992 8.16667H5.83325C8.16659 8.16667 11.6666 7 13.9999 5.83333C16.3333 7 19.8333 8.16667 22.1666 8.16667H24.4999M18.6666 18.6667L22.1666 9.33333L25.6666 18.6667C24.6516 19.425 23.4266 19.8333 22.1666 19.8333C20.9066 19.8333 19.6816 19.425 18.6666 18.6667ZM2.33325 18.6667L5.83325 9.33333L9.33325 18.6667C8.31825 19.425 7.09325 19.8333 5.83325 19.8333C4.57325 19.8333 3.34825 19.425 2.33325 18.6667Z" stroke="white" stroke-width="2" stroke-linecap="round" stroke-linejoin="round"/>
</svg>
