<svg width="94" height="84" viewBox="0 0 94 84" fill="none" xmlns="http://www.w3.org/2000/svg">
<g clip-path="url(#clip0_521_562)">
<mask id="mask0_521_562" style="mask-type:luminance" maskUnits="userSpaceOnUse" x="0" y="0" width="94" height="84">
<path d="M71.7168 0.817937L0.733276 24.3546L22.1987 83.1105L93.1822 59.5738L71.7168 0.817937Z" fill="white"/>
</mask>
<g mask="url(#mask0_521_562)">
<path d="M65.1833 45.188L71.3505 52.9092C71.7879 53.4497 72.6117 53.5614 73.1793 53.1447L82.6731 46.3284C83.2558 45.9187 83.362 45.1378 82.9359 44.5936L76.7647 36.8616C76.3386 36.3174 75.5035 36.2094 74.936 36.6261L65.4421 43.4424C64.8633 43.8628 64.7532 44.633 65.1793 45.1773L65.1833 45.188Z" fill="#DDDDDD"/>
<path d="M65.0575 29.1853L58.0548 34.2134C57.476 34.6339 57.3659 35.404 57.792 35.9483L62.29 41.589C62.7274 42.1296 63.5512 42.2413 64.1187 41.8246L71.1214 36.7965C71.7003 36.376 71.8104 35.6059 71.3842 35.0616L66.8863 29.4209C66.4489 28.8804 65.6251 28.7686 65.0575 29.1853Z" fill="#DDDDDD"/>
<path d="M88.4532 47.5631C87.862 46.8089 86.7473 46.6614 85.9481 47.2391L74.5234 55.4413C75.6645 55.8687 76.7009 56.6316 77.4498 57.6101L88.1126 49.9492C88.9079 49.3607 89.0669 48.3097 88.4493 47.5523L88.4532 47.5631Z" fill="#DDDDDD"/>
<path d="M69.1686 55.2323C69.3262 55.18 69.4952 55.124 69.6607 55.0932L54.2712 35.8167C53.7991 35.2156 52.9851 34.9923 52.2417 35.2388L47.7588 36.7253C46.7831 35.9904 45.4931 35.7085 44.235 36.1016L38.9636 37.8495C36.598 36.4209 32.8375 34.216 31.3021 33.6426C30.9342 33.5 30.5562 33.4329 30.156 33.4092L23.4524 33.0341C21.7691 32.9548 20.1178 33.5505 18.9151 34.6829C17.7159 35.7902 17.0701 37.3754 17.1599 38.9693L17.6327 53.3295C17.6785 55.0101 18.7321 56.4769 20.3478 57.1319L32.7624 62.2163L38.2905 73.6494C39.2496 75.6526 41.6882 76.6241 43.8621 75.9033C43.9972 75.8584 44.1099 75.8211 44.2485 75.7511C46.5242 74.756 47.5151 72.2144 46.4825 70.0791L40.2588 57.1568C39.7968 56.2035 38.9906 55.4485 37.9778 55.0266L30.813 52.1103L31.232 41.7121C32.7719 42.6087 34.6957 43.7268 36.3884 44.7651C37.3699 45.3778 38.5521 45.503 39.6712 45.144L46.6659 42.8247C48.0738 42.3578 49.0115 41.1569 49.1598 39.8689L52.1784 38.868L66.5085 56.7999C67.2381 56.1009 68.1245 55.5544 69.1607 55.2108L69.1686 55.2323Z" fill="#DDDDDD"/>
<path d="M28.8966 30.9644C33.0416 29.59 35.2493 25.2979 33.8149 21.3715C32.3805 17.4452 27.8526 15.3864 23.7076 16.7608C19.5625 18.1352 17.3548 22.4274 18.7892 26.3537C20.2236 30.2801 24.7516 32.3388 28.8966 30.9644Z" fill="#DDDDDD"/>
<path d="M22.295 61.0446L22.9426 66.7232L21.1381 76.7509C20.7363 79.0731 22.3733 81.2726 24.8377 81.6581C25.6012 81.7778 26.3696 81.7034 27.0567 81.4756C28.566 80.9752 29.7447 79.7424 30.0359 78.1545L31.9304 67.5437C31.9304 67.5437 31.9515 67.4284 31.9466 67.3459L30.5333 64.4108L22.295 61.0446Z" fill="#DDDDDD"/>
<path d="M42.8372 27.1598L55.2722 23.0366L56.2285 25.6542C56.5538 26.5446 57.7968 26.6977 58.3634 25.9326L64.1061 18.147C64.5801 17.5088 64.2509 16.6077 63.4634 16.3877L53.8876 13.6815C52.9336 13.4205 52.0742 14.2828 52.3955 15.1625L53.3518 17.78L40.9168 21.9032C40.3986 22.075 40.1269 22.6102 40.3072 23.1036L41.5809 26.5902C41.7612 27.0836 42.323 27.3424 42.8411 27.1706L42.8372 27.1598Z" fill="#DDDDDD"/>
<path d="M76.219 60.2552C77.1048 62.6797 75.7495 65.3301 73.1814 66.1816C70.6133 67.0332 67.8235 65.7572 66.9378 63.3327C66.0521 60.9082 67.4073 58.2579 69.9755 57.4063C72.5436 56.5548 75.3333 57.8308 76.219 60.2552Z" fill="#DDDDDD"/>
</g>
</g>
<defs>
<clipPath id="clip0_521_562">
<rect width="74.9975" height="62.7826" fill="white" transform="matrix(0.949181 -0.314729 0.34315 0.939281 0.530396 24.4219)"/>
</clipPath>
</defs>
</svg>
