<svg width="33" height="28" viewBox="0 0 33 28" fill="none" xmlns="http://www.w3.org/2000/svg">
<path d="M14.4375 3.5L11 10.5L16.5 25.6667M16.5 25.6667L22 10.5L18.5625 3.5M16.5 25.6667C16.9361 25.6667 17.3653 25.5786 17.7535 25.4099C18.1416 25.2411 18.4769 24.9964 18.7316 24.696L29.7178 11.879C30.0665 11.4754 30.2529 10.9874 30.2497 10.487C30.2465 9.98661 30.0537 9.50036 29.7 9.1L25.575 4.43333C25.3188 4.14354 24.9867 3.90833 24.6048 3.74634C24.2229 3.58434 23.8019 3.5 23.375 3.5H9.62497C9.19723 3.50004 8.7754 3.58475 8.39301 3.74738C8.01062 3.91001 7.67822 4.14608 7.42222 4.43683L3.29997 9.1C2.94599 9.50023 2.75303 9.98642 2.74956 10.4868C2.74609 10.9872 2.93231 11.4753 3.28072 11.879L14.267 24.696C14.5217 24.9964 14.8569 25.2411 15.2451 25.4099C15.6332 25.5786 16.0638 25.6667 16.5 25.6667ZM2.74997 10.5H30.25" stroke="#FCD21C" stroke-width="2" stroke-linecap="round" stroke-linejoin="round"/>
</svg>
