<svg width="37" height="28" viewBox="0 0 37 28" fill="none" xmlns="http://www.w3.org/2000/svg">
<path d="M12.8334 17.4999H15.1667C15.7855 17.4999 16.379 17.2541 16.8166 16.8165C17.2542 16.3789 17.5 15.7854 17.5 15.1666C17.5 14.5477 17.2542 13.9543 16.8166 13.5167C16.379 13.0791 15.7855 12.8333 15.1667 12.8333H11.6667C10.9667 12.8333 10.3834 13.0666 10.0334 13.5333L3.50004 19.8333M8.16671 24.4999L10.0334 22.8666C10.3834 22.3999 10.9667 22.1666 11.6667 22.1666H16.3334C17.6167 22.1666 18.7834 21.6999 19.6 20.7666L24.9667 15.6333C25.4169 15.2078 25.6797 14.6209 25.6972 14.0017C25.7147 13.3826 25.4855 12.7818 25.06 12.3316C24.6346 11.8814 24.0477 11.6186 23.4285 11.6011C22.8094 11.5836 22.2086 11.8128 21.7584 12.2383L16.8584 16.7883M2.33337 18.6666L9.33337 25.6666M22.05 10.4999C22.05 12.3685 20.5353 13.8833 18.6667 13.8833C16.7981 13.8833 15.2834 12.3685 15.2834 10.4999C15.2834 8.63135 16.7981 7.11658 18.6667 7.11658C20.5353 7.11658 22.05 8.63135 22.05 10.4999ZM10.5 5.83325C10.5 7.76625 8.93304 9.33325 7.00004 9.33325C5.06704 9.33325 3.50004 7.76625 3.50004 5.83325C3.50004 3.90026 5.06704 2.33325 7.00004 2.33325C8.93304 2.33325 10.5 3.90026 10.5 5.83325Z" stroke="#FCD21C" stroke-width="2" stroke-linecap="round" stroke-linejoin="round"/>
</svg>
