<svg width="24" height="26" viewBox="0 0 24 26" fill="none" xmlns="http://www.w3.org/2000/svg">
<path d="M19.6684 14.0908C20.0849 12.9626 20.3334 11.8099 20.3334 10.6666C20.3334 8.19123 19.3501 5.81726 17.5997 4.06692C15.8494 2.31658 13.4754 1.33325 11.0001 1.33325C8.52473 1.33325 6.15076 2.31658 4.40042 4.06692C2.65008 5.81726 1.66675 8.19123 1.66675 10.6666C1.66675 16.4918 8.12891 22.5584 10.2989 24.4321C10.5011 24.5841 10.7471 24.6663 11.0001 24.6663C11.253 24.6663 11.4991 24.5841 11.7012 24.4321C12.0222 24.1544 12.3384 23.8712 12.6497 23.5828M15.6667 19.9999L18.0001 22.3333L22.6667 17.6666M14.5001 10.6666C14.5001 12.5996 12.9331 14.1666 11.0001 14.1666C9.06708 14.1666 7.50008 12.5996 7.50008 10.6666C7.50008 8.73359 9.06708 7.16659 11.0001 7.16659C12.9331 7.16659 14.5001 8.73359 14.5001 10.6666Z" stroke="#0E6F7E" stroke-width="2" stroke-linecap="round" stroke-linejoin="round"/>
</svg>
