<svg width="1440" height="400" viewBox="0 0 1440 400" fill="none" xmlns="http://www.w3.org/2000/svg">
<path opacity="0.53" d="M1439.5 122.337V336C1234 414 1077 418 738 358C672.794 346.459 634 338 528 304C422 270 195 247 0 348V1.3593C0 1.3593 91.5 -0.940773 252.5 1.35927C372.256 3.07009 479.009 2.23578 548.069 1.69607C571.853 1.51018 591.167 1.35925 605 1.35926C611.677 1.35926 611.908 40.7191 612.16 83.4686C612.43 129.291 612.722 179.009 621 188.321C683 122.337 638 170.337 685 122.337C739 161.189 813 239 1096 247C1347 239 1439.5 122.337 1439.5 122.337Z" fill="#C6D7CE"/>
</svg>
