<svg width="1357" height="169" viewBox="0 0 1357 169" fill="none" xmlns="http://www.w3.org/2000/svg">
<path d="M19.4421 75.7723C17.0647 76.5668 14.8007 76.8172 12.6501 76.5237C10.4995 76.2302 8.62268 75.4515 7.01951 74.1878C5.43318 72.8904 4.28927 71.192 3.58778 69.0928C2.88628 66.9936 2.78357 64.9614 3.27962 62.9962C3.80097 61.0225 4.83267 59.2719 6.37472 57.7445C7.91676 56.217 9.8765 55.056 12.2539 54.2615C14.7831 53.4164 17.1273 53.2375 19.2864 53.725C21.4456 54.2125 23.1878 55.3032 24.513 56.9972L18.9641 62.4784C18.213 61.661 17.4495 61.143 16.6735 60.9243C15.9228 60.6972 15.1807 60.7062 14.4473 60.9513C13.815 61.1626 13.2713 61.5129 12.8163 62.0024C12.3866 62.4834 12.1088 63.0823 11.9828 63.7992C11.8737 64.4823 11.9713 65.2791 12.2755 66.1896C12.5798 67.1001 12.9851 67.8082 13.4915 68.3138C14.0231 68.8109 14.6052 69.1225 15.2377 69.2485C15.8956 69.3661 16.5406 69.3192 17.1729 69.1079C17.9064 68.8628 18.5048 68.4239 18.9681 67.7911C19.4567 67.1498 19.7555 66.2768 19.8642 65.172L27.5936 66.2161C27.5531 68.3665 26.8167 70.2855 25.3844 71.9731C23.9521 73.6607 21.9713 74.9271 19.4421 75.7723ZM42.4758 68.332C40.1099 69.0757 37.8672 69.2774 35.7477 68.9373C33.6456 68.5637 31.8172 67.7268 30.2625 66.4265C28.7077 65.1262 27.5985 63.4203 26.9348 61.3088C26.2712 59.1973 26.205 57.1635 26.7363 55.2076C27.2676 53.2516 28.2924 51.5318 29.8108 50.0483C31.3546 48.5568 33.3094 47.4392 35.6753 46.6956C38.0412 45.952 40.2839 45.7502 42.4034 46.0904C44.5229 46.4305 46.3473 47.2547 47.8767 48.563C49.4314 49.8633 50.5406 51.5692 51.2043 53.6807C51.8679 55.7922 51.9341 57.8259 51.4028 59.7819C50.897 61.7299 49.8762 63.4623 48.3403 64.9793C46.7965 66.4708 44.8417 67.5884 42.4758 68.332ZM40.3649 61.616C41.0009 61.4161 41.5253 61.0835 41.9381 60.6183C42.351 60.1531 42.6141 59.5673 42.7275 58.8608C42.8329 58.1288 42.7456 57.3177 42.4658 56.4273C42.1779 55.5115 41.7894 54.809 41.3002 54.3198C40.803 53.8052 40.2521 53.4752 39.6473 53.3299C39.0426 53.1845 38.4222 53.2118 37.7862 53.4117C37.1502 53.6116 36.6258 53.9441 36.213 54.4093C35.8001 54.8745 35.537 55.4603 35.4236 56.1668C35.3023 56.8479 35.3855 57.6464 35.6734 58.5622C35.9532 59.4526 36.3457 60.1678 36.8509 60.7078C37.3481 61.2224 37.899 61.5524 38.5038 61.6978C39.1085 61.8431 39.7289 61.8159 40.3649 61.616ZM65.5589 37.6847C67.1718 37.2146 68.7281 37.122 70.2277 37.407C71.72 37.6665 73.0388 38.3792 74.1842 39.5453C75.3552 40.7038 76.2616 42.384 76.9034 44.5857L80.396 56.567L71.7172 59.0969L68.6612 48.6132C68.2806 47.3075 67.7815 46.4531 67.164 46.0498C66.539 45.6209 65.8297 45.5221 65.036 45.7534C64.4472 45.9251 63.9378 46.2263 63.5079 46.6572C63.0961 47.055 62.8262 47.6059 62.698 48.3099C62.5955 49.0064 62.6973 49.8795 63.0032 50.9291L65.8801 60.7984L57.2013 63.3282L51.0782 42.3224L59.3346 39.9157L61.1256 46.06L58.9594 44.7749C59.316 42.9488 60.0698 41.4374 61.2209 40.2408C62.3976 39.0367 63.8436 38.1847 65.5589 37.6847ZM95.8241 52.8105C93.4279 53.4497 91.1785 53.553 89.076 53.1202C86.9923 52.6549 85.2023 51.7386 83.7061 50.3714C82.2098 49.0042 81.1764 47.2513 80.606 45.1127C80.0355 42.9742 80.0585 40.9395 80.6751 39.0087C81.2916 37.0779 82.3908 35.4047 83.9727 33.9892C85.5804 32.5668 87.5824 31.536 89.9786 30.8968C92.3748 30.2576 94.6242 30.1543 96.7268 30.587C98.8293 31.0198 100.616 31.9231 102.086 33.2972C103.583 34.6644 104.616 36.4173 105.186 38.5559C105.757 40.6944 105.734 42.7291 105.117 44.6599C104.527 46.5838 103.431 48.2699 101.83 49.7181C100.222 51.1405 98.2203 52.1713 95.8241 52.8105ZM94.0096 46.0084C94.6538 45.8365 95.1923 45.5273 95.6251 45.0807C96.058 44.634 96.3465 44.0603 96.4907 43.3594C96.6281 42.6328 96.5765 41.8186 96.3359 40.9168C96.0885 39.9892 95.7312 39.2704 95.2639 38.7602C94.7898 38.2243 94.2538 37.8705 93.656 37.6988C93.0582 37.527 92.4372 37.5271 91.7931 37.6989C91.149 37.8707 90.6105 38.18 90.1776 38.6266C89.7448 39.0733 89.4562 39.647 89.312 40.3479C89.1609 41.023 89.2091 41.8243 89.4565 42.7519C89.697 43.6537 90.0578 44.3854 90.5388 44.9471C91.013 45.483 91.549 45.8368 92.1467 46.0085C92.7445 46.1802 93.3655 46.1802 94.0096 46.0084ZM122.278 46.0768C119.842 46.6677 117.565 46.7262 115.447 46.2522C113.329 45.7783 111.524 44.844 110.033 43.4495C108.562 42.0228 107.566 40.234 107.044 38.083C106.522 35.9321 106.591 33.8985 107.251 31.9821C107.937 30.0595 109.113 28.4023 110.779 27.0104C112.444 25.6185 114.495 24.6271 116.931 24.0361C119.522 23.4074 121.873 23.427 123.984 24.095C126.094 24.763 127.738 25.9968 128.915 27.7966L122.924 32.79C122.244 31.9121 121.527 31.3315 120.772 31.0481C120.044 30.7584 119.303 30.7047 118.552 30.8871C117.904 31.0442 117.333 31.3475 116.838 31.7968C116.369 32.2398 116.042 32.8131 115.856 33.5168C115.689 34.1883 115.719 34.9905 115.946 35.9235C116.172 36.8564 116.516 37.5961 116.978 38.1426C117.466 38.6829 118.02 39.0424 118.639 39.2214C119.285 39.3941 119.931 39.4018 120.579 39.2446C121.331 39.0623 121.964 38.6754 122.479 38.084C123.02 37.4863 123.392 36.6416 123.593 35.5499L131.207 37.2426C130.985 39.3819 130.089 41.2319 128.52 42.7926C126.95 44.3533 124.869 45.4481 122.278 46.0768ZM146.393 40.6414C143.784 41.1956 141.399 41.198 139.238 40.6485C137.102 40.0935 135.323 39.0949 133.899 37.6527C132.469 36.1845 131.53 34.3939 131.081 32.2811C130.621 30.1161 130.735 28.088 131.424 26.1969C132.139 24.3003 133.309 22.6885 134.935 21.3615C136.588 20.029 138.562 19.1189 140.857 18.6312C142.97 18.1823 145.002 18.1867 146.953 18.6446C148.93 19.0969 150.628 20.0311 152.047 21.4472C153.492 22.8577 154.472 24.7759 154.987 27.2018C155.054 27.5148 155.115 27.8697 155.172 28.2665C155.224 28.6372 155.27 28.9819 155.31 29.3004L138.838 32.8002L137.932 28.5354L149.709 26.0332L146.624 27.8745C146.447 27.0398 146.141 26.3688 145.706 25.8614C145.291 25.3224 144.79 24.9519 144.202 24.7497C143.608 24.5214 142.946 24.4849 142.216 24.6401C141.485 24.7952 140.882 25.1006 140.407 25.556C139.951 25.9799 139.644 26.5223 139.485 27.1832C139.32 27.818 139.326 28.5528 139.503 29.3875L139.786 30.7178C139.98 31.6307 140.329 32.3745 140.832 32.949C141.336 33.5235 141.963 33.9083 142.713 34.1033C143.458 34.2722 144.313 34.2541 145.278 34.0491C146.269 33.8385 147.05 33.5362 147.621 33.1424C148.218 32.743 148.813 32.2076 149.406 31.5363L155.012 35.2114C154.207 36.5548 153.099 37.6899 151.687 38.6168C150.296 39.5121 148.531 40.187 146.393 40.6414ZM200.708 30.5657L196.925 1.12778L205.892 -0.0243952L209.674 29.4136L200.708 30.5657ZM225.204 28.3198C222.735 28.5459 220.5 28.2685 218.501 27.4876C216.525 26.6776 214.915 25.4727 213.671 23.8729C212.427 22.273 211.704 20.371 211.502 18.1669C211.3 15.9628 211.666 13.9611 212.599 12.1618C213.532 10.3626 214.897 8.89867 216.695 7.77004C218.52 6.63899 220.667 5.9604 223.137 5.73429C225.606 5.50818 227.841 5.78559 229.84 6.56654C231.84 7.34748 233.449 8.53911 234.666 10.1414C235.911 11.7413 236.634 13.6433 236.836 15.8474C237.038 18.0515 236.672 20.0532 235.739 21.8524C234.832 23.6492 233.468 25.1265 231.646 26.2841C229.821 27.4151 227.674 28.0937 225.204 28.3198ZM224.563 21.3091C225.227 21.2484 225.809 21.0343 226.311 20.667C226.813 20.2997 227.194 19.7828 227.455 19.1163C227.713 18.4233 227.799 17.612 227.714 16.6826C227.626 15.7266 227.395 14.9578 227.021 14.3762C226.644 13.768 226.175 13.3289 225.615 13.0589C225.054 12.7888 224.442 12.6842 223.779 12.745C223.115 12.8058 222.532 13.0198 222.03 13.3871C221.528 13.7544 221.147 14.2713 220.886 14.9378C220.624 15.5777 220.536 16.3757 220.624 17.3317C220.709 18.2612 220.941 19.0432 221.32 19.678C221.697 20.2861 222.166 20.7252 222.726 20.9953C223.287 21.2653 223.899 21.3699 224.563 21.3091ZM291.167 27.6829C289.281 27.5086 287.571 26.8951 286.034 25.8425C284.525 24.7923 283.369 23.3866 282.568 21.6253C281.769 19.8375 281.478 17.7753 281.694 15.4386C281.91 13.1019 282.574 11.1413 283.684 9.55683C284.797 7.94582 286.192 6.76258 287.869 6.00711C289.575 5.22754 291.37 4.92493 293.255 5.09929C295.273 5.28592 296.843 5.8328 297.964 6.7399C299.112 7.64947 299.874 8.96524 300.25 10.6872C300.656 12.3851 300.737 14.5484 300.494 17.1772C300.256 19.7529 299.767 21.8501 299.028 23.469C298.292 25.0613 297.275 26.2125 295.977 26.9227C294.682 27.6063 293.079 27.8597 291.167 27.6829ZM293.966 20.8717C294.63 20.9331 295.242 20.8291 295.802 20.5595C296.363 20.29 296.832 19.8514 297.21 19.2435C297.587 18.6357 297.819 17.8671 297.905 16.9378C297.993 15.9819 297.908 15.1705 297.648 14.5038C297.388 13.837 297.008 13.3198 296.506 12.952C296.004 12.5843 295.422 12.3697 294.758 12.3083C294.094 12.2469 293.482 12.351 292.921 12.6205C292.361 12.89 291.892 13.3287 291.514 13.9365C291.137 14.5443 290.904 15.3262 290.815 16.2821C290.729 17.2115 290.816 18.0095 291.076 18.6763C291.335 19.343 291.716 19.8603 292.218 20.228C292.719 20.5958 293.302 20.8104 293.966 20.8717ZM296.025 35.5237L297.009 24.889L298.144 16.9599L298.92 8.99755L299.193 6.05013L307.756 6.8421L305.027 36.3561L296.025 35.5237ZM318.699 30.7015C316.982 30.469 315.469 29.9144 314.162 29.0377C312.884 28.1382 311.949 26.8948 311.357 25.3077C310.768 23.6941 310.632 21.7114 310.951 19.3595L312.571 7.38869L321.53 8.60141L320.118 19.0263C319.911 20.559 320.017 21.6632 320.437 22.339C320.857 23.0147 321.503 23.4117 322.375 23.5297C322.903 23.6013 323.41 23.5353 323.895 23.3319C324.41 23.1056 324.856 22.695 325.232 22.1001C325.612 21.4788 325.874 20.6397 326.017 19.5827L327.396 9.39558L336.354 10.6083L333.419 32.2905L324.897 31.1368L325.745 24.874L327.219 26.8092C326.223 28.3966 324.957 29.5034 323.419 30.1294C321.911 30.7326 320.338 30.9233 318.699 30.7015ZM349.25 35.1762C346.617 34.7555 344.39 33.9002 342.571 32.6104C340.778 31.3248 339.476 29.7531 338.666 27.8953C337.86 26.0112 337.627 24.0027 337.968 21.8697C338.317 19.6841 339.153 17.8328 340.476 16.3158C341.824 14.8029 343.496 13.7198 345.491 13.0663C347.512 12.417 349.681 12.2775 351.999 12.6477C354.131 12.9884 356.026 13.7232 357.682 14.8519C359.364 15.9848 360.613 17.467 361.427 19.2985C362.268 21.1341 362.493 23.2764 362.102 25.7254C362.051 26.0414 361.981 26.3947 361.892 26.7855C361.807 27.15 361.726 27.4881 361.649 27.7999L345.02 25.1432L345.708 20.8378L357.597 22.7372L354.056 23.3463C354.191 22.5037 354.147 21.7674 353.923 21.1376C353.73 20.4857 353.396 19.9597 352.92 19.5596C352.448 19.1331 351.843 18.861 351.106 18.7432C350.368 18.6254 349.696 18.6935 349.088 18.9474C348.511 19.1793 348.029 19.5749 347.643 20.1343C347.261 20.6673 347.002 21.3552 346.868 22.1978L346.653 23.5408C346.506 24.4624 346.564 25.2819 346.827 25.9991C347.091 26.7163 347.538 27.3008 348.168 27.7525C348.802 28.1778 349.606 28.4684 350.58 28.624C351.581 28.7839 352.418 28.7826 353.092 28.6203C353.793 28.4621 354.541 28.1765 355.336 27.7634L359.246 33.2085C358.011 34.1725 356.569 34.8332 354.919 35.1907C353.299 35.526 351.409 35.5212 349.25 35.1762Z" fill="#C5C5C5"/>
<path d="M436.687 28.9646C438.303 29.3123 439.677 29.9625 440.809 30.9151C441.972 31.8473 442.767 33.0958 443.195 34.6606C443.648 36.231 443.633 38.1373 443.151 40.3793L440.526 52.5802L431.688 50.6789L433.985 40.0032C434.271 38.6736 434.251 37.6874 433.926 37.0446C433.606 36.3757 433.094 35.9655 432.39 35.8141C431.869 35.7019 431.372 35.7313 430.898 35.9023C430.425 36.0733 429.996 36.4175 429.612 36.935C429.26 37.432 428.98 38.1628 428.773 39.1274L426.526 49.5685L417.689 47.6673L419.985 36.9915C420.271 35.6619 420.265 34.6785 419.965 34.0413C419.671 33.378 419.147 32.9651 418.391 32.8024C417.869 32.6903 417.372 32.7197 416.899 32.8906C416.425 33.0616 415.997 33.4058 415.613 33.9233C415.26 34.4203 414.98 35.1511 414.773 36.1157L412.527 46.5568L403.689 44.6556L408.29 23.2649L416.698 25.0736L415.377 31.2132L414.027 29.1224C415.183 27.6799 416.523 26.7134 418.047 26.2229C419.576 25.7064 421.175 25.6276 422.844 25.9865C424.721 26.3903 426.27 27.2418 427.49 28.5409C428.743 29.8196 429.389 31.568 429.431 33.7863L426.825 32.7757C427.988 31.1711 429.42 30.0334 431.119 29.3624C432.849 28.6709 434.706 28.5383 436.687 28.9646ZM455.896 56.5498C453.482 55.9839 451.449 55.0145 449.799 53.6418C448.181 52.2491 447.034 50.5972 446.359 48.6861C445.684 46.775 445.599 44.7419 446.104 42.587C446.609 40.4321 447.589 38.6485 449.042 37.2363C450.496 35.8242 452.255 34.8668 454.317 34.3641C456.405 33.8675 458.657 33.9022 461.071 34.4681C463.486 35.034 465.518 36.0033 467.169 37.3761C468.819 38.7488 469.969 40.3878 470.618 42.2928C471.293 44.2039 471.378 46.2369 470.873 48.3919C470.368 50.5468 469.388 52.3304 467.934 53.7426C466.507 55.1608 464.745 56.1312 462.651 56.6537C460.562 57.1503 458.311 57.1156 455.896 56.5498ZM457.503 49.6955C458.152 49.8476 458.772 49.8287 459.365 49.6389C459.957 49.449 460.482 49.079 460.94 48.5289C461.403 47.9529 461.742 47.2105 461.955 46.3018C462.174 45.3671 462.197 44.5647 462.026 43.8945C461.86 43.1984 461.554 42.6337 461.108 42.2004C460.662 41.7672 460.114 41.4745 459.465 41.3224C458.816 41.1702 458.195 41.1891 457.603 41.379C457.011 41.5688 456.486 41.9388 456.028 42.4889C455.577 43.013 455.241 43.7424 455.022 44.6771C454.809 45.5858 454.783 46.4012 454.942 47.1233C455.108 47.8195 455.413 48.3842 455.86 48.8174C456.306 49.2507 456.854 49.5434 457.503 49.6955ZM476.565 61.102L473.32 37.743L482.324 39.988L484.509 58.8365L479.968 57.7043L491.173 42.1943L499.479 44.2651L485.647 63.3663L476.565 61.102ZM506.537 69.1594C503.957 68.4835 501.825 67.4149 500.14 65.9536C498.481 64.499 497.339 62.8077 496.714 60.8797C496.096 58.9258 496.061 56.9042 496.608 54.8147C497.169 52.6736 498.182 50.9128 499.646 49.5322C501.136 48.1583 502.906 47.2436 504.955 46.7881C507.03 46.3393 509.202 46.4122 511.472 47.007C513.562 47.5544 515.375 48.4707 516.913 49.7557C518.477 51.0475 519.575 52.6446 520.206 54.5468C520.864 56.4558 520.879 58.6098 520.25 61.0088C520.169 61.3184 520.065 61.6633 519.938 62.0435C519.817 62.3978 519.704 62.7264 519.597 63.0292L503.306 58.7612L504.412 54.5436L516.058 57.595L512.475 57.8555C512.692 57.03 512.719 56.2929 512.559 55.6443C512.43 54.9767 512.149 54.4205 511.714 53.9758C511.286 53.5053 510.711 53.1754 509.988 52.9861C509.266 52.7969 508.59 52.799 507.961 52.9924C507.363 53.1668 506.845 53.5135 506.406 54.0324C505.974 54.5256 505.649 55.1849 505.433 56.0104L505.088 57.326C504.852 58.2288 504.83 59.05 505.022 59.7896C505.214 60.5291 505.602 61.1544 506.184 61.6654C506.774 62.1507 507.546 62.5184 508.5 62.7684C509.481 63.0253 510.314 63.1058 511.001 63.01C511.713 62.921 512.485 62.7098 513.317 62.3764L516.677 68.1772C515.354 69.0161 513.854 69.5328 512.177 69.7274C510.532 69.9029 508.652 69.7136 506.537 69.1594ZM554.113 58.7063C555.705 59.1515 557.037 59.8839 558.109 60.9035C559.213 61.9045 559.931 63.199 560.263 64.7869C560.62 66.3819 560.489 68.2837 559.872 70.4924L556.511 82.5114L547.805 80.0773L550.746 69.5606C551.112 68.2508 551.152 67.2653 550.866 66.6039C550.588 65.9168 550.102 65.4764 549.408 65.2825C548.895 65.1389 548.396 65.138 547.914 65.28C547.431 65.4219 546.982 65.7395 546.567 66.2327C546.186 66.7074 545.862 67.4198 545.596 68.37L542.72 78.6556L534.014 76.2214L536.955 65.7048C537.321 64.395 537.374 63.413 537.114 62.7588C536.861 62.0789 536.362 61.6349 535.617 61.4266C535.103 61.283 534.605 61.2822 534.123 61.4241C533.64 61.566 533.191 61.8836 532.776 62.3768C532.394 62.8515 532.071 63.564 531.805 64.5142L528.929 74.7997L520.223 72.3656L526.115 51.2937L534.397 53.6094L532.706 59.6574L531.485 57.4885C532.726 56.1188 534.122 55.2355 535.673 54.8384C537.231 54.4156 538.832 54.434 540.476 54.8936C542.325 55.4106 543.819 56.3545 544.959 57.7253C546.131 59.0776 546.671 60.8621 546.577 63.0788L544.037 61.9118C545.296 60.3809 546.794 59.3321 548.531 58.7655C550.3 58.1803 552.161 58.1606 554.113 58.7063ZM571.623 87.3765C569.245 86.6707 567.273 85.5844 565.705 84.1177C564.171 82.6329 563.123 80.9169 562.56 78.9697C561.998 77.0224 562.032 74.9879 562.662 72.8661C563.292 70.7443 564.374 69.0209 565.907 67.696C567.441 66.3711 569.252 65.5179 571.341 65.1365C573.454 64.7627 575.7 64.9286 578.078 65.6345C580.455 66.3403 582.427 67.4266 583.995 68.8933C585.562 70.3601 586.614 72.0633 587.151 74.003C587.713 75.9502 587.68 77.9847 587.05 80.1065C586.42 82.2283 585.338 83.9517 583.804 85.2766C582.296 86.6091 580.481 87.4751 578.359 87.8745C576.246 88.2483 574 88.0823 571.623 87.3765ZM573.626 80.6277C574.265 80.8174 574.886 80.8348 575.488 80.6798C576.091 80.5248 576.636 80.1861 577.125 79.6637C577.622 79.1156 578.003 78.3943 578.269 77.4995C578.542 76.5792 578.612 75.7796 578.48 75.1005C578.355 74.3959 578.083 73.8143 577.663 73.3558C577.243 72.8972 576.713 72.5731 576.074 72.3833C575.435 72.1936 574.814 72.1762 574.212 72.3312C573.609 72.4862 573.064 72.8249 572.575 73.3473C572.093 73.8442 571.716 74.5528 571.443 75.4731C571.177 76.3679 571.103 77.1803 571.22 77.9105C571.345 78.6151 571.617 79.1967 572.037 79.6552C572.458 80.1138 572.987 80.4379 573.626 80.6277ZM594.716 94.2945C592.929 93.7532 591.226 93.0282 589.607 92.1195C587.987 91.2108 586.735 90.2878 585.848 89.3505L589.95 84.3659C590.768 85.2544 591.777 86.0618 592.978 86.788C594.204 87.5219 595.443 88.0783 596.693 88.4573C597.74 88.7743 598.469 88.8977 598.88 88.8273C599.317 88.7647 599.582 88.5802 599.675 88.274C599.767 87.9677 599.616 87.6851 599.221 87.426C598.834 87.1414 598.294 86.8525 597.603 86.5595C596.911 86.2664 596.147 85.9373 595.311 85.5723C594.507 85.1895 593.706 84.7518 592.908 84.2591C592.11 83.7665 591.423 83.1822 590.848 82.5063C590.273 81.8304 589.884 81.0439 589.682 80.1468C589.488 79.2242 589.573 78.1632 589.936 76.9637C590.338 75.6366 591.097 74.557 592.213 73.7249C593.355 72.9005 594.813 72.409 596.589 72.2505C598.398 72.0742 600.476 72.3417 602.824 73.0532C604.355 73.5172 605.844 74.1216 607.29 74.8663C608.736 75.611 609.919 76.4432 610.839 77.3627L606.737 82.3473C605.843 81.4356 604.904 80.7191 603.919 80.1978C602.968 79.6588 602.046 79.254 601.152 78.9833C600.055 78.6507 599.271 78.5247 598.801 78.6051C598.356 78.6933 598.095 78.865 598.018 79.1202C597.925 79.4264 598.073 79.7218 598.46 80.0064C598.848 80.291 599.387 80.5799 600.078 80.873C600.77 81.1661 601.517 81.504 602.321 81.8868C603.157 82.2519 603.958 82.6896 604.723 83.2C605.521 83.6926 606.208 84.2769 606.783 84.9528C607.359 85.6287 607.743 86.4279 607.938 87.3506C608.139 88.2476 608.059 89.2959 607.695 90.4954C607.316 91.7459 606.565 92.8 605.441 93.6576C604.325 94.4898 602.863 94.994 601.054 95.1703C599.253 95.3211 597.14 95.0292 594.716 94.2945ZM662.148 112.645C660.312 112.18 658.886 111.405 657.867 110.322C656.881 109.219 656.307 107.795 656.145 106.048C655.989 104.275 656.229 102.135 656.864 99.6278C657.513 97.0687 658.299 95.0533 659.222 93.5817C660.177 92.0908 661.348 91.1083 662.734 90.6342C664.119 90.1601 665.782 90.1688 667.72 90.6602C669.581 91.1319 671.173 92.0167 672.494 93.3145C673.823 94.5865 674.742 96.1676 675.254 98.0579C675.771 99.9222 675.742 101.992 675.165 104.267C674.589 106.541 673.626 108.388 672.276 109.806C670.932 111.199 669.374 112.138 667.6 112.624C665.826 113.11 664.009 113.117 662.148 112.645ZM646.187 116.192L653.469 87.4607L661.806 89.5737L661.079 92.443L659.152 100.208L657.574 108.061L654.95 118.413L646.187 116.192ZM661.784 105.29C662.43 105.454 663.051 105.446 663.646 105.267C664.242 105.088 664.774 104.727 665.241 104.186C665.708 103.644 666.057 102.921 666.286 102.016C666.522 101.085 666.563 100.271 666.411 99.5716C666.258 98.8726 665.962 98.3024 665.524 97.8612C665.085 97.42 664.543 97.1175 663.897 96.9537C663.25 96.7899 662.63 96.7975 662.034 96.9767C661.438 97.1559 660.907 97.5163 660.439 98.0581C659.972 98.5998 659.62 99.336 659.384 100.267C659.155 101.171 659.117 101.973 659.27 102.672C659.423 103.371 659.718 103.941 660.157 104.383C660.595 104.824 661.137 105.126 661.784 105.29ZM686.389 118.642C683.978 118.058 681.953 117.074 680.313 115.688C678.706 114.284 677.571 112.623 676.911 110.707C676.25 108.791 676.18 106.757 676.702 104.606C677.223 102.455 678.216 100.679 679.68 99.2777C681.145 97.8765 682.91 96.9324 684.976 96.4453C687.068 95.9644 689.319 96.016 691.73 96.6C694.14 97.1841 696.165 98.1687 697.805 99.5538C699.445 100.939 700.582 102.586 701.217 104.496C701.878 106.412 701.947 108.446 701.426 110.597C700.905 112.748 699.912 114.524 698.447 115.926C697.009 117.333 695.24 118.29 693.142 118.797C691.05 119.278 688.799 119.226 686.389 118.642ZM688.046 111.8C688.694 111.957 689.315 111.943 689.909 111.758C690.503 111.572 691.03 111.206 691.492 110.659C691.96 110.087 692.304 109.347 692.524 108.44C692.75 107.507 692.78 106.705 692.613 106.033C692.453 105.336 692.151 104.769 691.708 104.332C691.265 103.896 690.72 103.599 690.072 103.442C689.424 103.285 688.803 103.299 688.209 103.485C687.616 103.67 687.088 104.036 686.626 104.583C686.171 105.103 685.83 105.83 685.604 106.763C685.384 107.67 685.351 108.486 685.505 109.209C685.666 109.906 685.967 110.473 686.41 110.91C686.853 111.346 687.399 111.643 688.046 111.8ZM701.599 121.898L706.559 100.587L714.935 102.537L713.439 108.965L712.502 106.817C713.538 105.306 714.867 104.301 716.489 103.802C718.111 103.303 719.922 103.287 721.921 103.752L720.108 111.544C719.73 111.402 719.389 111.281 719.083 111.182C718.804 111.09 718.508 111.007 718.196 110.935C716.872 110.627 715.699 110.723 714.679 111.225C713.691 111.707 713 112.792 712.607 114.48L710.403 123.947L701.599 121.898ZM769.877 137.438C766.928 136.821 764.778 135.636 763.428 133.883C762.084 132.103 761.72 129.739 762.337 126.789L766.086 108.857L774.935 110.707L771.202 128.561C771.065 129.214 771.129 129.758 771.392 130.195C771.681 130.636 772.086 130.912 772.608 131.021C773.365 131.179 774.072 131.123 774.728 130.851L775.557 137.44C774.796 137.69 773.914 137.805 772.91 137.786C771.932 137.772 770.921 137.656 769.877 137.438ZM760.547 120.694L761.897 114.234L778.068 117.615L776.717 124.075L760.547 120.694ZM777.634 138.639L781.986 117.196L790.845 118.994L786.493 140.437L777.634 138.639ZM786.766 116.371C785.145 116.042 783.939 115.348 783.147 114.289C782.355 113.231 782.089 112.061 782.349 110.78C782.609 109.5 783.31 108.527 784.452 107.86C785.594 107.194 786.975 107.026 788.596 107.354C790.216 107.683 791.427 108.351 792.23 109.357C793.032 110.364 793.304 111.507 793.044 112.788C792.768 114.147 792.056 115.172 790.909 115.865C789.767 116.531 788.386 116.699 786.766 116.371Z" fill="#FFE67B"/>
<path d="M791.805 133.179L793.121 126.507L804.894 128.829L803.578 135.501L791.805 133.179ZM807.422 136.245L808.687 129.564L820.477 131.798L819.212 138.479L807.422 136.245ZM823.064 139.196L824.282 132.505L836.088 134.655L834.87 141.345L823.064 139.196ZM838.732 142.036L839.906 135.338L851.726 137.41L850.552 144.108L838.732 142.036ZM854.418 144.774L855.548 138.069L867.381 140.064L866.251 146.769L854.418 144.774ZM870.114 147.407L871.194 140.693L883.042 142.6L881.962 149.313L870.114 147.407ZM885.813 149.916L886.83 143.193L898.695 144.986L897.679 151.71L885.813 149.916ZM901.554 152.282L902.521 145.552L914.399 147.259L913.432 153.99L901.554 152.282ZM917.31 154.534L918.228 147.796L930.118 149.416L929.2 156.154L917.31 154.534ZM933.066 156.663L933.92 149.917L945.825 151.425L944.971 158.171L933.066 156.663ZM948.83 158.64L949.611 151.885L961.532 153.263L960.751 160.018L948.83 158.64ZM964.647 160.456L965.381 153.696L977.311 154.992L976.577 161.753L964.647 160.456ZM980.436 162.151L981.091 155.383L993.035 156.538L992.381 163.307L980.436 162.151ZM996.247 163.661L996.824 156.885L1008.78 157.904L1008.2 164.68L996.247 163.661ZM1012.08 164.991L1012.58 158.209L1024.55 159.099L1024.05 165.88L1012.08 164.991ZM1027.9 166.144L1028.32 159.356L1040.3 160.086L1039.88 166.874L1027.9 166.144ZM1043.76 167.089L1044.09 160.297L1056.07 160.885L1055.74 167.676L1043.76 167.089ZM1059.59 167.838L1059.81 161.042L1071.81 161.442L1071.58 168.238L1059.59 167.838ZM1075.45 168.344L1075.58 161.545L1087.58 161.784L1087.44 168.583L1075.45 168.344ZM1091.27 168.628L1091.29 161.828L1103.29 161.853L1103.27 168.653L1091.27 168.628ZM1107.13 168.635L1107.04 161.836L1119.04 161.682L1119.13 168.481L1107.13 168.635ZM1122.95 168.401L1122.74 161.604L1134.74 161.231L1134.95 168.028L1122.95 168.401ZM1138.77 167.877L1138.44 161.086L1150.43 160.496L1150.76 167.288L1138.77 167.877ZM1154.57 167.067L1154.1 160.283L1166.08 159.461L1166.54 166.245L1154.57 167.067ZM1170.33 165.948L1169.72 159.175L1181.67 158.096L1182.28 164.869L1170.33 165.948ZM1186.05 164.488L1185.28 157.732L1197.2 156.371L1197.97 163.127L1186.05 164.488ZM1201.7 162.657L1200.76 155.923L1212.64 154.254L1213.59 160.988L1201.7 162.657ZM1217.29 160.421L1216.16 153.716L1227.99 151.713L1229.12 158.418L1217.29 160.421ZM1232.79 157.746L1231.45 151.079L1243.21 148.715L1244.55 155.382L1232.79 157.746ZM1248.16 154.598L1246.6 147.981L1258.27 145.215L1259.84 151.832L1248.16 154.598ZM1263.39 150.927L1261.56 144.376L1273.13 141.161L1274.95 147.713L1263.39 150.927ZM1278.41 146.676L1276.3 140.211L1287.71 136.489L1289.82 142.954L1278.41 146.676ZM1293.18 141.773L1290.74 135.424L1301.94 131.127L1304.38 137.476L1293.18 141.773ZM1307.6 136.143L1304.78 129.951L1315.71 124.989L1318.52 131.18L1307.6 136.143ZM1321.59 129.674L1318.36 123.688L1328.93 117.995L1332.15 123.981L1321.59 129.674ZM1334.95 122.328L1331.22 116.647L1341.24 110.051L1344.98 115.732L1334.95 122.328ZM1347.44 113.934L1343.09 108.707L1352.31 101.031L1356.66 106.258L1347.44 113.934Z" fill="#7BABAF"/>
</svg>
